<svg width="187" height="34" viewBox="0 0 187 34" fill="none" xmlns="http://www.w3.org/2000/svg">
<path d="M115.296 33.5575L115.383 33.4667L115.541 33.4046L115.605 33.2454L115.708 33.1275L115.796 32.9921L115.918 32.8807L116.052 32.7835L116.148 32.645L116.253 32.5175L116.364 32.3965L116.48 32.2803L116.679 32.2484L116.721 32.0573L116.837 31.941L117.031 31.9012L117.081 31.7197L117.248 31.6544L117.393 31.5668L117.41 31.3534L117.601 31.3104L117.735 31.2116L117.797 31.0428L117.908 30.9218L118.001 30.7816L118.115 30.6654L118.287 30.6017L118.402 30.4838L118.496 30.3468L118.617 30.2354L118.644 30.0379L118.856 30.0092L118.867 29.7974L119.062 29.7528L119.185 29.6413L119.263 29.4916L119.4 29.3929L119.459 29.2257L119.523 29.0632L119.72 29.0202L119.731 28.81L119.909 28.7495L119.964 28.5791L120.135 28.5106L120.199 28.3497L120.358 28.2685L120.476 28.1523L120.551 28.001L120.599 27.8258L120.745 27.735L120.857 27.614L120.966 27.4913L121.006 27.3114L121.183 27.2429L121.286 27.1155L121.419 27.012L121.465 26.8384L121.516 26.6696L121.656 26.5708L121.785 26.4625L121.842 26.3001L121.92 26.1536L122.094 26.0803L122.208 25.9608L122.261 25.7952L122.321 25.6344L122.429 25.5117L122.622 25.4512V25.2474L122.797 25.1725L122.872 25.0244L123.012 24.9225L123.114 24.7951L123.205 24.6581L123.181 24.4383L123.393 24.3874L123.426 24.2122L123.488 24.0545L123.655 23.9717L123.762 23.8475L123.759 23.6468L123.907 23.5481L123.923 23.3617L124.015 23.228L124.19 23.1467L124.195 22.954L124.311 22.8362L124.475 22.747L124.539 22.5925L124.641 22.4635L124.682 22.2947L124.803 22.1784L124.827 22.0001L124.958 21.8886L125.04 21.7468L125.096 21.5908L125.249 21.492L125.306 21.336L125.405 21.2038L125.499 21.07L125.535 20.9012L125.674 20.7929L125.701 20.6193L125.862 20.5237L125.86 20.3342L125.989 20.2196L126.056 20.0698L126.156 19.9377L126.234 19.7943L126.271 19.6271L126.414 19.5204L126.427 19.3404L126.514 19.2019L126.639 19.084L126.635 18.8961L126.803 18.8005L126.826 18.6286L126.989 18.5298L126.981 18.3403L127.011 18.1715L127.14 18.0568L127.28 17.9453L127.244 17.7415L127.35 17.6141L127.404 17.458L127.554 17.3513L127.602 17.192L127.622 17.02L127.689 16.8703L127.793 16.7397L127.933 16.6267L127.922 16.4387L128.098 16.3448L128.124 16.1744L128.114 15.988L128.224 15.859L128.27 15.6998L128.366 15.5644L128.439 15.4179L128.57 15.3L128.667 15.1647L128.689 14.9943L128.686 14.8111L128.867 14.7171L128.921 14.5611L128.963 14.4002L128.985 14.2282L129.144 14.1231V13.9416L129.299 13.8333L129.286 13.6469L129.413 13.5243L129.442 13.3571L129.461 13.1851L129.571 13.0529L129.697 12.9287L129.694 12.7917L129.78 12.736L129.908 12.7869L130.085 12.7407L130.251 12.7439L130.407 12.8044L130.564 12.8618L130.741 12.814L130.892 12.9048L131.05 12.9653L131.225 12.9223L131.378 12.9987L131.553 12.9605L131.714 12.9956L131.876 13.0306L132.037 13.0704L132.201 13.0895L132.355 13.166L132.518 13.193L132.686 13.1946L132.836 13.2902L133.008 13.2711L133.158 13.373H133.326L133.486 13.4144L133.658 13.3921L133.825 13.3889L133.995 13.381L134.134 13.5434L134.301 13.5514L134.468 13.553L134.629 13.6007L134.807 13.5482L134.963 13.6151L135.111 13.7265L135.289 13.6772L135.464 13.6421L135.644 13.7202L135.665 13.9049L135.6 14.0499L135.55 14.2075L135.534 14.3715L135.561 14.5404L135.42 14.6853L135.471 14.8589L135.501 15.0293L135.439 15.1854L135.335 15.3351L135.356 15.5039L135.278 15.6568L135.269 15.8208L135.28 15.9896L135.259 16.1521L135.232 16.3145L135.248 16.4849L135.189 16.6394L135.058 16.7811L135.127 16.9611L135.001 17.1028L134.993 17.2685L135.039 17.4468L134.953 17.595L134.858 17.7415L134.837 17.9055L134.853 18.0759L134.786 18.2288L134.699 18.3769L134.713 18.5489L134.624 18.6954L134.613 18.8611L134.643 19.0379L134.485 19.1669L134.562 19.3564L134.522 19.5156L134.431 19.6606L134.425 19.8294L134.361 19.9807L134.342 20.1463L134.227 20.2833L134.14 20.4282L134.165 20.6066L134.033 20.7387L134.02 20.906L134.016 21.0764L133.919 21.2165L133.901 21.3821L133.863 21.543L133.844 21.7102L133.772 21.8583L133.678 22.0001L133.693 22.1784L133.662 22.3409L133.478 22.4492L133.505 22.6323L133.428 22.7789L133.322 22.9158L133.256 23.0655L133.244 23.2359L133.134 23.3697L133.185 23.564L133.018 23.6755L133.011 23.8475L132.912 23.986L132.844 24.1341L132.879 24.3253L132.745 24.4479L132.766 24.6326L132.615 24.7473L132.618 24.9273L132.478 25.0451L132.529 25.2458L132.454 25.3923L132.37 25.534L132.306 25.6853L132.265 25.8462L132.185 25.9911L132.105 26.1344L131.988 26.2603L131.881 26.3924L131.832 26.5501L131.731 26.6839L131.777 26.8861L131.703 27.0327L131.609 27.1696L131.539 27.3177L131.359 27.4117L131.295 27.563L131.336 27.7669L131.235 27.899L131.115 28.0217L131.018 28.1554L130.978 28.3211L130.883 28.4548L130.872 28.6348L130.735 28.7479L130.728 28.931L130.518 29.0027L130.47 29.1635L130.424 29.3244L130.38 29.4884L130.23 29.592L130.173 29.7464L130.142 29.9184L129.964 30.0044L129.907 30.1605L129.864 30.3261L129.791 30.4743L129.67 30.5905L129.533 30.6988L129.445 30.8374L129.423 31.0173L129.372 31.1782L129.272 31.3088L129.189 31.4505L129.1 31.5875L128.977 31.7037L128.84 31.8088L128.767 31.957L128.656 32.0796L128.651 32.2755L128.538 32.3949L128.487 32.559L128.28 32.6147L128.243 32.7883L128.081 32.8743L128.07 33.067L127.958 33.1896L127.809 33.282L127.705 33.4078L127.683 33.6228L127.495 33.5416L127.333 33.5925L127.169 33.54L127.006 33.5511L126.844 33.6403L126.68 33.6276L126.518 33.5464L126.355 33.5607L126.191 33.6483L126.029 33.5113L125.867 33.5145L125.704 33.6308L125.542 33.618L125.378 33.6387L125.215 33.5432L125.053 33.6101L124.891 33.5973L124.727 33.6435L124.564 33.618L124.402 33.5304L124.238 33.548L124.076 33.591L123.913 33.6324L123.749 33.54L123.587 33.5002L123.424 33.6037L123.262 33.5336L123.098 33.5018L122.936 33.4938L122.773 33.5894L122.611 33.5352L122.449 33.6069L122.286 33.6499L122.124 33.634L121.961 33.6244L121.797 33.5973L121.635 33.5941L121.473 33.548L121.309 33.5782L121.146 33.583L120.984 33.4986L120.822 33.5703L120.659 33.5257L120.497 33.5671L120.334 33.5703L120.17 33.5925L120.007 33.5575L119.844 33.5273L119.682 33.6053L119.518 33.5623L119.355 33.5289L119.193 33.575L119.029 33.6037L118.865 33.5177L118.703 33.6292L118.539 33.6403L118.376 33.5304L118.212 33.548L118.05 33.5289L117.886 33.4938L117.722 33.5607L117.56 33.548L117.396 33.5368L117.233 33.6467L117.071 33.5097L116.907 33.5464L116.743 33.5002H116.581L116.417 33.6005L116.253 33.5209L116.089 33.5384L115.925 33.6403L115.761 33.5081L115.597 33.6403L115.431 33.5925L115.296 33.5575Z" fill="#CE651B"/>
<path d="M144.643 33.5608L144.791 33.4875L144.81 33.2598L145.03 33.2152L145.116 33.048L145.215 32.9158L145.318 32.7884L145.395 32.6355L145.592 32.5909L145.696 32.4635L145.815 32.3504L145.867 32.1784L145.944 32.0271L146.098 31.9427L146.229 31.8392L146.318 31.699L146.436 31.5844L146.499 31.4235L146.613 31.3041L146.741 31.1958L146.757 30.9983L146.972 30.9601L147.022 30.7897L147.101 30.6431L147.251 30.5524L147.373 30.4393L147.439 30.2832L147.488 30.1144L147.561 29.9631L147.697 29.8596L147.84 29.7624L147.873 29.5825L147.991 29.4662L148.09 29.334L148.19 29.205L148.357 29.1222L148.405 28.955L148.512 28.8292L148.587 28.6811L148.642 28.5202L148.798 28.4294L148.876 28.2829L148.938 28.1268L149.08 28.0249L149.083 27.8306L149.193 27.7064L149.285 27.5694L149.386 27.4404L149.496 27.3162L149.529 27.1426L149.663 27.0327L149.758 26.899L149.839 26.7572L149.908 26.6059L150.065 26.5104L150.059 26.3161L150.215 26.2173L150.237 26.039L150.339 25.91L150.395 25.7523L150.495 25.6217L150.561 25.4704L150.715 25.3701L150.815 25.2379L150.846 25.0659L150.882 24.8987L151.035 24.7967L151.119 24.6566L151.143 24.4814L151.261 24.3604L151.294 24.1915L151.428 24.0769L151.527 23.9431L151.592 23.7918L151.696 23.6596L151.79 23.5227L151.755 23.3188L151.876 23.1962L151.931 23.0401L152.027 22.9047L152.033 22.7232L152.122 22.5846L152.192 22.4365L152.313 22.3123L152.452 22.196L152.463 22.0192L152.576 21.8918L152.622 21.731L152.662 21.5685L152.807 21.4539L152.783 21.2628L152.923 21.1449L152.915 20.9618L152.942 20.7945L153.031 20.6544L153.114 20.5127L153.149 20.3486L153.324 20.2451L153.283 20.0492L153.343 19.8963L153.487 19.7801L153.499 19.6081L153.523 19.4408L153.628 19.3071L153.687 19.1542L153.78 19.014L153.773 18.8357L153.888 18.7051L153.964 18.5601L154.063 18.4232L154.139 18.2767L154.197 18.1238L154.216 17.9565L154.275 17.8037L154.295 17.638L154.281 17.4597L154.389 17.3259L154.531 17.2033L154.472 17.0105L154.623 16.8895L154.679 16.735L154.666 16.5598L154.668 16.3878L154.735 16.2381L154.805 16.09L154.932 15.9578L154.926 15.7858L155.005 15.6393V15.4705L155.106 15.3288L155.16 15.1743L155.155 15.0055L155.126 14.8303L155.172 14.6758L155.279 14.5325L155.23 14.3652L155.286 14.3207L155.233 14.2506L155.217 14.1232L155.045 13.948L154.916 13.9639L154.771 13.9655L154.626 13.9241L154.453 13.8938L154.278 13.983L154.104 14.0197L153.942 13.9305L153.778 13.9671L153.614 13.9193H153.45L153.288 13.9321L153.124 13.9703L152.961 13.9496L152.797 13.983L152.635 13.905L152.471 13.9544L152.309 14.0228L152.145 13.9368L151.982 14.0069L151.818 14.0419L151.656 13.948L151.492 13.905L151.329 13.9289L151.166 13.905L151.003 13.9273L150.839 13.9384L150.675 14.0228L150.511 14.0372L150.349 13.9241L150.185 14.034L150.021 13.9464L149.859 13.9544L149.695 14.0165L149.532 14.0085L149.368 14.0324L149.204 13.8938L149.042 13.9958L148.878 13.9305L148.714 14.034L148.552 13.905L148.388 13.8938L148.224 13.9607L148.06 13.9735L147.897 14.0133L147.733 13.9894L147.569 14.0085L147.407 13.9575L147.243 13.9751L147.079 13.9241L146.915 13.9687L146.753 14.0419L146.59 13.9145L146.428 13.9496L146.264 13.9783L146.101 14.0276L145.938 14.0483L145.774 13.9193L145.611 14.0244L145.447 13.9575L145.283 13.9894L145.121 14.0388L144.957 13.948L144.795 13.9098L144.631 13.9751L144.468 13.9225L144.304 13.9671L144.14 14.0197L143.976 14.0404L143.812 13.9751L143.648 14.034L143.486 13.9926L143.322 13.9878L143.158 13.897L142.994 13.9384L142.83 13.9368L142.666 13.9687L142.504 13.9241L142.34 13.8922L142.176 13.9225L142.012 13.9241L141.848 13.9114L141.684 13.9751L141.518 13.9129L141.356 13.9305L141.192 13.9735L141.028 13.9703L140.864 14.0117L140.7 13.999L140.536 14.0197L140.372 14.0213L140.208 14.0005L140.043 13.9639L139.879 13.9575L139.715 13.9671L139.549 13.9703L139.383 13.9098L139.186 14.0021L139.146 13.8062L139.231 13.6438L139.169 13.483L139.269 13.3205L139.227 13.1565L139.153 12.994L139.221 12.8316L139.194 12.6691L139.269 12.5067L139.283 12.3442L139.245 12.1818L139.215 12.0194L139.167 11.8569L139.286 11.6945L139.27 11.532L139.216 11.3696L139.27 11.2055L139.275 11.0431L139.161 10.8807L139.162 10.7182L139.243 10.5558L139.293 10.3917L139.229 10.2293L139.169 10.0668L139.204 9.9028L139.293 9.74036L139.267 9.57792L139.204 9.41387L139.157 9.25144L139.253 9.08739L139.261 8.92496L139.258 8.76251L139.242 8.60006L139.154 8.43603L139.175 8.27358L139.197 8.10954L139.143 7.9471L139.227 7.78306L139.172 7.62062L139.173 7.45658L139.242 7.29413L139.264 7.1301L139.28 6.96606L139.145 6.80203L139.164 6.58066L139.383 6.56314L139.547 6.59021L139.71 6.5918L139.874 6.70966L140.038 6.62684L140.202 6.60295L140.366 6.65392L140.528 6.57588L140.692 6.71284L140.856 6.68736L141.018 6.6571L141.182 6.64914L141.346 6.6157L141.509 6.60136L141.673 6.65869L141.835 6.62525L141.999 6.63321L142.161 6.62684L142.325 6.5918H142.488L142.652 6.66984L142.814 6.68895L142.978 6.56473L143.14 6.55676L143.304 6.6778L143.467 6.66984L143.631 6.57269L143.793 6.70806L143.957 6.60136L144.12 6.58225L144.283 6.55995L144.447 6.59817L144.61 6.70488L144.774 6.69691L144.938 6.56632L145.1 6.60295L145.264 6.59021L145.428 6.60295L145.592 6.68258L145.756 6.66825L145.92 6.65551L146.084 6.63799L146.248 6.6778L146.412 6.64595L146.576 6.64277L146.74 6.69691L146.904 6.60773L147.068 6.55995L147.232 6.62684L147.394 6.63639L147.558 6.69533L147.722 6.67621L147.886 6.65869L148.048 6.63958L148.212 6.6778L148.376 6.65073L148.54 6.62047L148.703 6.65073L148.867 6.71444L149.031 6.65869L149.195 6.63958L149.359 6.61251L149.521 6.70806L149.685 6.60295L149.849 6.57588L150.013 6.58066L150.177 6.63799L150.341 6.61092L150.506 6.71284L150.67 6.56951L150.834 6.64914L150.998 6.6794L151.162 6.70806L151.326 6.61888L151.49 6.60932L151.654 6.59658L151.817 6.67621L151.981 6.61888L152.145 6.62684L152.309 6.56473L152.473 6.71284L152.636 6.70806L152.8 6.62525L152.964 6.60613L153.128 6.60932L153.292 6.66188L153.456 6.62047L153.622 6.63003L153.786 6.70329L153.95 6.68576L154.114 6.61251L154.278 6.66347L154.442 6.69533L154.606 6.57906L154.77 6.60773L154.934 6.56632L155.098 6.69054L155.262 6.66188L155.426 6.64277L155.59 6.6778L155.755 6.68576L155.919 6.62525L156.083 6.68895L156.247 6.60773L156.411 6.6778L156.575 6.64754L156.739 6.64117L156.903 6.66825L157.068 6.63003L157.232 6.62206L157.396 6.71444L157.559 6.59817L157.723 6.58544L157.887 6.56951L158.051 6.5711L158.215 6.56951L158.379 6.62366L158.543 6.62843L158.707 6.68258L158.871 6.7001L159.035 6.63003L159.199 6.6571L159.362 6.57588H159.526L159.69 6.70329L159.854 6.56791L160.02 6.65073L160.184 6.57747L160.348 6.56314L160.512 6.62047L160.677 6.64436L160.841 6.59817L161.005 6.70806L161.169 6.71284L161.335 6.61728L161.499 6.70488L161.663 6.64436L161.828 6.63639L161.992 6.56155L162.158 6.55995L162.322 6.6141L162.488 6.62206L162.651 6.70169L162.815 6.56155L162.979 6.69373L163.145 6.64754L163.309 6.63639L163.475 6.60773L163.638 6.68258L163.804 6.70488L163.968 6.6778L164.134 6.68099L164.299 6.69851L164.463 6.66507L164.629 6.66825L164.796 6.58225L164.966 6.63321L164.941 6.80999L164.979 6.98836L164.895 7.14285L164.915 7.31007L164.848 7.46614L164.867 7.63336L164.818 7.79262L164.762 7.95028L164.85 8.12547L164.856 8.2911L164.716 8.43761L164.727 8.60325L164.64 8.75773L164.619 8.91858L164.683 9.09377L164.667 9.25621L164.59 9.4107L164.659 9.58588L164.61 9.74514L164.541 9.89962L164.538 10.0652L164.45 10.2165L164.489 10.3885L164.444 10.5462L164.498 10.7214L164.46 10.8807L164.355 11.0272L164.294 11.1833L164.247 11.3409L164.213 11.5002L164.326 11.6849L164.224 11.833L164.161 11.9875L164.162 12.1547L164.17 12.3219L164.145 12.4828L164.124 12.6468L164.033 12.795L163.966 12.9494L164.022 13.1262L163.981 13.2855L163.925 13.4415L163.882 13.6008L163.828 13.7569L163.893 13.9368L163.731 14.0706L163.815 14.2554L163.721 14.4035L163.713 14.5691L163.669 14.7268L163.629 14.886L163.602 15.0485L163.497 15.1918L163.519 15.3638L163.457 15.5167L163.4 15.6728L163.446 15.8495L163.393 16.0056L163.384 16.1713L163.328 16.3257L163.263 16.4802L163.291 16.6538L163.269 16.8163L163.204 16.9707L163.096 17.1141L163.182 17.302L163.062 17.4421L162.975 17.5902L163.064 17.7798L162.893 17.9088L162.858 18.0696L162.932 18.256L162.806 18.3945L162.777 18.5554L162.715 18.7083L162.68 18.8691L162.688 19.0395L162.707 19.2131L162.553 19.3437L162.569 19.5173L162.502 19.6702L162.41 19.8167L162.359 19.9728L162.363 20.1448L162.287 20.2945L162.238 20.4505L162.341 20.648L162.217 20.785L162.148 20.9379L162.093 21.0924L162.056 21.2532L161.98 21.4029L161.996 21.5781L161.981 21.7453L161.854 21.8807L161.894 22.0638L161.814 22.2135L161.72 22.3585L161.784 22.5496L161.631 22.6786L161.652 22.857L161.593 23.013L161.51 23.1611L161.502 23.3315L161.512 23.5067L161.48 23.6692L161.4 23.8189L161.247 23.9463L161.233 24.1135L161.171 24.268L161.149 24.4336L161.144 24.604L161.152 24.7808L161.075 24.9305L161.01 25.0818L160.889 25.2188L160.915 25.3987L160.848 25.55L160.751 25.6934L160.797 25.8813L160.711 26.0262L160.625 26.1727L160.66 26.3575L160.463 26.4658L160.466 26.641L160.416 26.7986L160.327 26.9419L160.364 27.1283L160.221 27.2541L160.219 27.4261L160.128 27.5694L160.053 27.7191L160.114 27.9118L160.041 28.0615L159.921 28.1937L159.866 28.3482L159.845 28.5154L159.813 28.6779L159.735 28.8244L159.698 28.9868L159.686 29.1557L159.616 29.3054L159.542 29.4551L159.506 29.6175L159.433 29.7672L159.418 29.9376L159.253 30.0523L159.291 30.2418L159.187 30.3804L159.06 30.5078L159.046 30.6782L159.003 30.8374L158.944 30.9903L158.886 31.1432L158.758 31.269L158.695 31.4203L158.758 31.6226L158.616 31.742L158.563 31.8981L158.453 32.0303L158.49 32.223L158.434 32.3775L158.325 32.5097L158.288 32.6737L158.218 32.8218L158.118 32.9556L158.105 33.1308L157.979 33.2518L157.888 33.3872L157.829 33.5799L157.661 33.5066L157.498 33.6324L157.334 33.6006L157.172 33.5082L157.01 33.5385L156.847 33.634L156.685 33.6165L156.521 33.5862L156.358 33.5783L156.196 33.6436L156.032 33.6165L155.87 33.6388L155.707 33.548L155.543 33.634L155.381 33.5767L155.219 33.6038L155.055 33.6293L154.892 33.6165L154.73 33.5098H154.568L154.404 33.4971L154.241 33.564L154.079 33.6181L153.915 33.6261L153.752 33.65L153.588 33.5003L153.426 33.6117L153.264 33.5098L153.1 33.6022L152.937 33.5608L152.775 33.4971L152.611 33.5448L152.449 33.5003L152.285 33.5831L152.124 33.4987L151.961 33.5512L151.799 33.5958L151.637 33.6372L151.474 33.5082L151.31 33.5178L151.148 33.5385L150.984 33.6197L150.822 33.564L150.659 33.5369L150.495 33.5528L150.333 33.6261L150.171 33.6436L150.008 33.5783H149.846L149.682 33.5703L149.519 33.5209L149.355 33.5178L149.193 33.5417L149.029 33.5958L148.867 33.4939L148.703 33.5608L148.54 33.5544L148.376 33.5608L148.214 33.5448L148.05 33.5703L147.886 33.5432L147.724 33.5114L147.56 33.5178L147.396 33.5369L147.233 33.6468L147.069 33.5448L146.905 33.599L146.743 33.5098L146.581 33.6213L146.417 33.5448L146.253 33.5512L146.09 33.6356L145.926 33.5432L145.762 33.6197L145.598 33.5082L145.434 33.6038L145.272 33.5576L145.108 33.599L144.943 33.6388L144.779 33.5576L144.643 33.5608Z" fill="#CE651B"/>
<path d="M175.469 33.5735L175.459 33.3999L175.598 33.2725L175.626 33.1116L175.596 32.9333L175.671 32.7852L175.738 32.637L175.862 32.5049L175.857 32.3345L175.883 32.172L176.011 32.043L175.957 31.8567L176.053 31.7149L176.104 31.562L176.069 31.3821L176.228 31.2626L176.156 31.0699L176.323 30.9521L176.261 30.7626L176.394 30.6336L176.341 30.4472L176.529 30.3342L176.521 30.1622L176.618 30.022L176.573 29.8373L176.635 29.686L176.706 29.5363L176.626 29.4901L176.537 29.4853L176.429 29.4391L176.33 29.5745L176.207 29.6796L176.066 29.7592L175.961 29.885L175.808 29.9519L175.706 30.0825L175.516 30.1032L175.367 30.1733L175.292 30.3389L175.131 30.3947L175.012 30.5046L174.908 30.6336L174.773 30.7228L174.601 30.7642L174.547 30.9569L174.362 30.9823L174.299 31.1623L174.12 31.1957L174.036 31.3486L173.853 31.3773L173.77 31.535L173.646 31.6385L173.544 31.7723L173.35 31.7834L173.253 31.9236L173.071 31.9522L172.953 32.0669L172.837 32.18L172.75 32.3329L172.592 32.4842L172.501 32.2803L172.426 32.1338L172.266 32.051L172.161 31.9268L172.121 31.7516L172.07 31.5859L171.876 31.5302L171.755 31.4171L171.737 31.2244L171.678 31.0652L171.457 31.0285L171.382 30.8804L171.315 30.7275L171.22 30.5953L171.154 30.4409L171.065 30.3023L170.957 30.1813L170.807 30.0905L170.744 29.9344L170.674 29.7815L170.499 29.7115L170.419 29.5681L170.331 29.428L170.295 29.2512L170.144 29.162L170.037 29.0362L169.881 28.9502L169.796 28.8085L169.795 28.6062L169.656 28.5043L169.502 28.4151L169.43 28.2638L169.379 28.1268L169.429 27.966L169.575 27.8895L169.734 27.8274L169.852 27.7143L169.997 27.6347L170.115 27.5216L170.263 27.4468L170.331 27.27L170.543 27.278L170.667 27.1713L170.739 26.9993L170.911 26.9547L171.037 26.8527L171.097 26.6648L171.236 26.5756L171.392 26.5103L171.571 26.4753L171.68 26.3479L171.763 26.1886L171.903 26.101L172.071 26.0517L172.207 25.9609L172.315 25.8335L172.449 25.7395L172.595 25.6631L172.648 25.4624L172.864 25.4736L172.907 25.2633L173.028 25.1519L173.171 25.069L173.345 25.0276L173.461 24.9082L173.63 24.8604L173.768 24.7696L173.823 24.5737L173.971 24.4957L174.111 24.4097L174.254 24.3285L174.394 24.2393L174.453 24.0482L174.625 24.0036L174.755 23.9049L174.934 23.8666L175.055 23.7552L175.192 23.666L175.23 23.4478L175.405 23.4048L175.532 23.2997L175.656 23.193L175.792 23.1006L175.938 23.021L176.048 22.8952L176.209 22.833L176.266 22.6372L176.457 22.6133L176.577 22.4986L176.717 22.4015L176.728 22.2565L176.54 22.2597L176.378 22.3091L176.214 22.2995L176.051 22.3043H175.889L175.726 22.3059L175.564 22.2852L175.402 22.2533L175.239 22.2438L175.075 22.2932L174.913 22.2502L174.751 22.317L174.587 22.3377L174.424 22.274L174.26 22.3075L174.098 22.3744L173.936 22.3632L173.773 22.2581L173.609 22.2677L173.445 22.2629L173.283 22.368L173.12 22.3377L172.957 22.239L172.794 22.2518L172.63 22.2438L172.466 22.3823L172.304 22.3808L172.14 22.3839L171.977 22.2358L171.815 22.317L171.651 22.2677L171.489 22.2884L171.325 22.376L171.161 22.2502L170.997 22.2836L170.834 22.231L170.67 22.3059L170.506 22.2629L170.342 22.3839L170.179 22.3632L170.015 22.3234L169.886 22.2709L169.871 22.1435L169.771 21.9794L169.924 21.8154L169.841 21.6513L169.79 21.4889L169.903 21.3249L169.878 21.1624L169.774 20.9984L169.812 20.8343L169.857 20.6703L169.852 20.5063L169.822 20.3438L169.886 20.1798L169.847 20.0157L169.878 19.8517L169.784 19.6877L169.902 19.5236L169.787 19.3596L169.902 19.1972L169.879 19.0331L169.852 18.8691L169.838 18.705L169.79 18.5426L169.854 18.377L169.835 18.2129L169.857 18.0489L169.835 17.8849L169.811 17.7208L169.917 17.5568L169.782 17.3912L169.843 17.2192L170.013 17.216L170.175 17.2255L170.338 17.2797L170.502 17.2781L170.664 17.2494L170.826 17.2606L170.989 17.2653L171.151 17.2128L171.314 17.2574L171.476 17.2303L171.64 17.157L171.802 17.2733L171.966 17.1634L172.129 17.2032L172.291 17.1475L172.455 17.2622L172.617 17.1969L172.78 17.173L172.944 17.2972L173.106 17.1634L173.27 17.2669L173.433 17.2064L173.596 17.1809L173.759 17.1984L173.923 17.2144L174.085 17.2494L174.249 17.2415L174.413 17.2287L174.576 17.157L174.738 17.2303L174.9 17.243L175.064 17.2638L175.228 17.2112L175.391 17.2781L175.555 17.2669L175.719 17.2144L175.883 17.2717L176.045 17.2797L176.209 17.251L176.373 17.1809L176.538 17.2319L176.671 17.1937L176.683 17.0631L176.702 16.899L176.671 16.735L176.715 16.5726L176.755 16.4085L176.742 16.2445L176.777 16.0805L176.753 15.918L176.71 15.754L176.637 15.5915L176.653 15.4275L176.626 15.2635L176.739 15.101L176.779 14.937L176.639 14.7729L176.772 14.6089L176.755 14.4449L176.721 14.2808L176.683 14.1168L176.65 13.9527L176.718 13.7871L176.755 13.674L176.866 13.5833L177.029 13.6581L177.193 13.6916L177.355 13.6661L177.519 13.6183L177.681 13.5865L177.845 13.5801L178.009 13.6772L178.173 13.6804L178.336 13.6581L178.5 13.6788L178.664 13.6406L178.828 13.6422L178.992 13.596L179.156 13.5785L179.318 13.604L179.482 13.682L179.646 13.5785L179.81 13.5817L179.974 13.6215L180.138 13.6406L180.302 13.5928L180.466 13.6326L180.628 13.5976L180.792 13.6438L180.956 13.6263L181.12 13.588L181.284 13.6916L181.448 13.6199L181.612 13.6072L181.776 13.6597L181.94 13.6613L182.105 13.5642L182.269 13.5435L182.435 13.682L182.616 13.6072L182.618 13.7855L182.675 13.9496L182.677 14.112L182.667 14.276L182.585 14.4401L182.65 14.6041L182.645 14.7666L182.58 14.9306L182.534 15.0946L182.55 15.2571L182.632 15.4195L182.636 15.5836L182.605 15.7476L182.588 15.9116L182.566 16.0757L182.593 16.2397L182.558 16.4037L182.618 16.5678L182.65 16.7318L182.573 16.8959L182.559 17.0615L182.612 17.2144L182.761 17.2064L182.924 17.1777L183.086 17.2669L183.247 17.1539L183.409 17.2335L183.57 17.2574L183.732 17.2701L183.895 17.1793L184.056 17.2176L184.218 17.1666L184.38 17.1937L184.541 17.1984L184.702 17.2032L184.864 17.2462L185.027 17.1857L185.187 17.2192L185.35 17.2303L185.512 17.2223L185.675 17.1634L185.837 17.216L185.998 17.3052L186.162 17.1491L186.324 17.2717L186.487 17.2685L186.595 17.2813L186.58 17.3864L186.657 17.5472L186.638 17.7081L186.592 17.8689L186.701 18.0314L186.609 18.1922L186.69 18.3531L186.598 18.5139L186.641 18.6764L186.622 18.8372L186.714 18.9981L186.665 19.1605L186.663 19.3214L186.651 19.4822L186.635 19.6431L186.595 19.8039L186.651 19.9648L186.719 20.1272L186.635 20.2881L186.654 20.4505L186.698 20.6114L186.587 20.7738L186.717 20.9347L186.697 21.0971L186.636 21.258L186.697 21.4204L186.603 21.5829L186.692 21.7867L186.491 21.801L186.331 21.7533L186.171 21.7596L186.011 21.7533L185.851 21.6943L185.691 21.7278L185.53 21.7596L185.371 21.7071L185.211 21.8186L185.052 21.7373L184.891 21.7421L184.732 21.7071L184.571 21.7166L184.411 21.6975L184.25 21.6991L184.091 21.7405L183.93 21.7564L183.769 21.7899L183.608 21.8026L183.447 21.7294L183.285 21.7692L183.124 21.7262L182.97 21.7819L182.831 21.8552L182.717 21.9571L182.677 22.1052L182.634 22.2518L182.677 22.4078L182.55 22.5719L182.626 22.7359L182.559 22.8999L182.626 23.0624L182.64 23.2264L182.57 23.3905L182.545 23.5545L182.551 23.7185L182.55 23.8826L182.64 24.0466L182.57 24.2106L182.551 24.3747L182.613 24.5387L182.581 24.7027L182.624 24.8668L182.596 25.0308L182.572 25.1949L182.553 25.3589L182.586 25.5229L182.68 25.687L182.636 25.851L182.604 26.0135L182.593 26.1775L182.58 26.3399L182.669 26.504L182.653 26.668L182.531 26.832L182.663 26.9961L182.675 27.1601L182.581 27.3242L182.64 27.4882L182.674 27.6522L182.596 27.8163L182.57 27.9787L182.623 28.1428L182.664 28.3068L182.556 28.4708L182.632 28.6349L182.658 28.7989L182.661 28.9629L182.679 29.1286L182.607 29.291L182.621 29.455L182.543 29.6207L182.615 29.7847L182.672 29.9487L182.588 30.1128L182.527 30.2768L182.659 30.4425L182.615 30.6065L182.659 30.7705L182.567 30.9362L182.612 31.1002L182.623 31.2642L182.644 31.4283L182.658 31.5923L182.609 31.7563L182.567 31.922L182.523 32.086L182.637 32.25L182.596 32.4157L182.545 32.5797L182.597 32.7453L182.564 32.9094L182.593 33.075L182.588 33.2406L182.54 33.4063L182.572 33.5448L182.438 33.6165L182.277 33.5416L182.117 33.6452L181.954 33.5273L181.792 33.497L181.631 33.5814L181.469 33.5448L181.308 33.5592L181.146 33.6324L180.985 33.5703L180.824 33.5257L180.662 33.6276L180.501 33.6388L180.338 33.5751L180.176 33.6006L180.014 33.5878L179.853 33.599L179.69 33.5607L179.528 33.6053L179.367 33.5385L179.205 33.5241L179.043 33.5687L178.88 33.497L178.719 33.5751L178.557 33.5671L178.395 33.5846L178.232 33.5607L178.07 33.5162L177.907 33.6292L177.745 33.5894L177.584 33.5193L177.422 33.5799L177.261 33.6499L177.097 33.5146L176.936 33.6436L176.774 33.5639L176.61 33.5369L176.448 33.5719L176.285 33.6483L176.123 33.5783L175.961 33.5544L175.798 33.6069L175.634 33.6037L175.469 33.5735Z" fill="#CE651B"/>
<path d="M58.7432 33.47L58.861 33.3362L58.9183 33.1467L59.0759 33.0209L59.1539 32.876L59.1953 32.7103L59.3306 32.602L59.4245 32.4683L59.485 32.3154L59.5105 32.1386L59.6395 32.0271L59.6808 31.8615L59.7891 31.7373L59.8894 31.6067L59.9483 31.4522L60.0709 31.3359L60.1903 31.2165L60.2635 31.07L60.3765 30.9489L60.4402 30.7976L60.488 30.6352L60.5087 30.4568L60.6058 30.3262L60.6663 30.1717L60.8462 30.0889L60.9624 29.9679L60.9258 29.7561L61.1232 29.6844L61.19 29.5331L61.2442 29.377L61.2935 29.2162L61.346 29.0585L61.4877 28.9518L61.6182 28.8387L61.6039 28.6413L61.7488 28.5362L61.8586 28.4119L61.9191 28.2574L61.9574 28.0918L62.0115 27.9342L62.0863 27.7892L62.2502 27.6953L62.333 27.5535L62.3935 27.4006L62.4906 27.2685L62.5384 27.1076L62.618 26.9659L62.6578 26.8002L62.7215 26.6489L62.8234 26.5199L62.9698 26.4132L62.9571 26.2205L63.0383 26.0788L63.1513 25.9546L63.2468 25.8208L63.2834 25.6552L63.3965 25.5309L63.441 25.3685L63.5604 25.2475L63.6225 25.0946L63.6655 24.9337L63.8343 24.8382L63.8486 24.6598L63.9139 24.5101L64.0364 24.3906L64.1144 24.2457L64.1049 24.0562L64.1622 23.9017L64.3612 23.8221L64.3644 23.6389L64.444 23.4956L64.4695 23.3252L64.5411 23.1787L64.6255 23.0385L64.7751 22.9318L64.791 22.7566L64.869 22.6117L65.0027 22.497L65.119 22.3728L65.1795 22.2199L65.1779 22.0352L65.2495 21.8887L65.3514 21.7565L65.4405 21.6179L65.5329 21.481L65.5822 21.3233L65.6873 21.1911L65.7064 21.0191L65.7494 20.8583L65.8927 20.7452L65.977 20.6034L65.9977 20.4315L66.0677 20.2833L66.1251 20.1798L66.0264 20.0365L65.8305 20.0699L65.7143 19.9298L65.5759 19.8374L65.4326 19.7578L65.2463 19.7705L65.1142 19.6654L64.9439 19.6431L64.8053 19.5507L64.6589 19.4775L64.5124 19.4026L64.3819 19.2943L64.2068 19.28L64.0715 19.1797L63.9282 19.1L63.7769 19.0379L63.6018 19.022L63.4761 18.9057L63.3646 18.7545L63.1481 18.8277L63.0526 18.6462L62.9014 18.5793L62.7676 18.4773L62.6148 18.4152H62.4333L62.2916 18.3292L62.1627 18.2177L61.9669 18.248L61.857 18.0935L61.674 18.0983L61.5641 17.9454L61.3954 17.9152L61.2553 17.8292L61.0658 17.8419L60.9369 17.7288L60.7888 17.6572L60.644 17.5759L60.5023 17.4915L60.3686 17.3864L60.195 17.3673L60.0167 17.3593L59.9085 17.2208L59.9626 17.0774L59.9929 16.9102L60.1648 16.8099L60.117 16.606L60.2062 16.4675L60.3304 16.3465L60.3463 16.1729L60.5023 16.0646L60.4768 15.8719L60.5516 15.7253L60.6647 15.5979L60.7284 15.4466L60.8064 15.3017L60.929 15.1791L60.9703 15.0166L61.0117 14.8558L61.1311 14.73L61.0993 14.5341L61.2442 14.421L61.311 14.2697L61.4129 14.1375L61.475 13.9846L61.5625 13.8445L61.6326 13.6964L61.666 13.5307L61.7217 13.3747L61.7631 13.2122L61.822 13.0593L61.9589 12.9431L61.994 12.7774L62.1102 12.6516L62.1579 12.4908L62.2168 12.3379L62.2916 12.1898L62.3346 12.0289L62.4174 11.8856L62.4413 11.7152L62.6276 11.6212L62.6292 11.4397L62.7613 11.3186L62.7868 11.1275L62.9618 11.1849L63.0812 11.3186L63.2198 11.411L63.3726 11.4747L63.5222 11.5464L63.7101 11.5352L63.8311 11.6674L63.9728 11.755L64.1479 11.7693L64.2848 11.8681L64.4519 11.8983L64.5904 11.9955L64.7305 12.0879L64.8722 12.1739L65.0362 12.2137L65.2256 12.1993L65.3562 12.3092L65.4931 12.4096L65.6379 12.4892L65.7828 12.572L65.9707 12.5593L66.1139 12.6453L66.211 12.8268L66.418 12.7759L66.5724 12.8348L66.6823 12.9909L66.859 13.0068L67.0229 13.0482L67.1407 13.1883L67.2792 13.2823L67.4528 13.303L67.6199 13.338L67.7266 13.5053L67.9097 13.5085L67.9479 13.5021L68.0816 13.5483L68.2424 13.5546L68.3634 13.6406L68.4939 13.6311L68.6626 13.6996L68.8091 13.5976L68.9317 13.4893L69.1068 13.4782L69.2724 13.4081L69.2676 13.1979L69.3854 13.0864L69.4109 12.9192L69.5589 12.8029L69.5828 12.6325L69.6385 12.4765L69.6831 12.3172L69.734 12.1595L69.8439 12.0257L69.9458 11.8904L70.0508 11.755L70.0078 11.5591L70.1113 11.4237L70.2196 11.29L70.2339 11.118L70.3278 10.9778L70.3628 10.8154L70.4313 10.6641L70.538 10.5303L70.5794 10.371L70.5634 10.1863L70.694 10.0621L70.6606 9.87097L70.8309 9.76267L70.9185 9.62252L70.9025 9.43938L70.9965 9.29923L71.0426 9.14156L71.0347 8.9632L71.1509 8.8342L71.2543 8.69882L71.2177 8.5093L71.2671 8.35164L71.3833 8.22264L71.4199 8.06019L71.49 7.91208L71.5377 7.75601L71.6301 7.61586L71.6476 7.44704L71.7654 7.31804L71.837 7.16993L71.8529 7.00112L71.9755 6.87212L71.9596 6.69216L72.0217 6.54245L72.0615 6.3816L72.1379 6.23826L72.235 6.09493L72.2111 5.8656L72.3942 5.96115L72.5184 6.08856L72.6903 6.09334L72.8686 6.09015L72.9689 6.27649L73.1679 6.21915L73.2905 6.35293L73.4305 6.43893L73.5945 6.4676L73.7744 6.45963L73.8986 6.58546L74.0403 6.66667L74.2106 6.67941L74.3603 6.74471L74.4956 6.84504L74.6771 6.8339L74.7758 7.025L74.9684 6.98519L75.0942 7.10782L75.2613 7.13171L75.4126 7.18904L75.5526 7.28142L75.7262 7.28938L75.8392 7.44386L75.9856 7.51871L76.1703 7.49801L76.3359 7.52508L76.4648 7.64293L76.624 7.68274L76.7657 7.76875L76.9185 7.82608L77.0984 7.81653L77.2178 7.95508L77.3515 8.06178L77.5442 8.02356L77.6747 8.13505L77.8371 8.17167L77.9899 8.2306L78.1348 8.31023L78.2717 8.40897L78.4675 8.358L78.6155 8.42967L78.7206 8.60963L78.8719 8.67334L79.0884 8.66219L79.0454 8.8549L78.9976 9.01257L78.926 9.16068L78.7461 9.26419L78.7716 9.45212L78.606 9.56042L78.6745 9.76586L78.5169 9.87734L78.4548 10.0286L78.4977 10.2213L78.3067 10.3201L78.3147 10.5L78.3083 10.6736L78.1619 10.7915L78.1762 10.9746L78.0631 11.1052L78.0122 11.2629L77.9644 11.4206L77.8641 11.5575L77.7686 11.6945L77.818 11.892L77.6254 11.9907L77.6652 12.1834L77.568 12.3204L77.4359 12.4446L77.5044 12.6484L77.4486 12.8045L77.3292 12.9335L77.2337 13.0721L77.1239 13.2043L77.0682 13.3587L77.0284 13.5196L76.9472 13.6645L76.9344 13.8381L76.8787 13.9926L76.8453 14.1566L76.702 14.2745L76.6877 14.4481L76.6065 14.593L76.6336 14.7809L76.5858 14.9402L76.425 15.0517L76.3693 15.2062L76.3231 15.3638L76.2022 15.4928L76.277 15.7015L76.1066 15.8097L76.0222 15.9531L75.992 16.1187L75.8917 16.2573L75.9188 16.4452L75.8042 16.5774L75.7803 16.7462L75.7389 16.907L75.6545 17.052L75.5176 17.2272L75.7325 17.2686L75.9044 17.2845L76.0541 17.3482L76.1783 17.466L76.2881 17.6126L76.4346 17.6795L76.589 17.732L76.7816 17.7033L76.9154 17.7989L77.0204 17.955L77.1955 17.9677L77.3292 18.0633L77.455 18.1779L77.6222 18.205L77.7718 18.2703L77.9215 18.3324L78.0775 18.3802L78.243 18.4136L78.3847 18.4949L78.4882 18.6541L78.6777 18.635L78.8241 18.7067L78.9276 18.8659L79.0963 18.8898L79.2317 18.9838L79.3845 19.0443L79.5357 19.1032L79.7188 19.0984L79.8366 19.2259L79.9528 19.358L80.1295 19.3692L80.2983 19.3931L80.4367 19.4823L80.5561 19.6097L80.7026 19.6813L80.8586 19.7323L81.0337 19.7435L81.1579 19.8613L81.3155 19.9123L81.4349 20.0429L81.6355 20.0731L81.5097 20.226L81.5034 20.4028L81.4524 20.5573L81.3378 20.6815L81.298 20.8439L81.2311 20.9904L81.064 21.0908L81.0067 21.2437L80.9271 21.3854L80.9191 21.5622L80.8761 21.7215L80.7742 21.852L80.7281 22.0113L80.5513 22.1053L80.4877 22.255L80.4606 22.4222L80.3381 22.5432L80.2712 22.6929L80.2202 22.8474L80.1581 22.9987L80.0292 23.1166L80.0244 23.2965L79.8891 23.4096L79.9019 23.5975L79.8573 23.7568L79.7793 23.8985L79.6567 24.0196L79.5612 24.1549L79.5469 24.3285L79.4673 24.4719L79.3224 24.5818L79.2651 24.7346L79.3033 24.9353L79.16 25.0468L79.0311 25.1662L79.0295 25.3812L78.8862 25.2379L78.7143 25.2267L78.6076 25.0755L78.4086 25.1185L78.3195 24.9305L78.1666 24.8748L78.0297 24.7904L77.8673 24.7553L77.689 24.7569L77.5314 24.7123L77.428 24.5547L77.2863 24.4782L77.1159 24.4575L76.9567 24.4193L76.8342 24.3015L76.702 24.2011L76.5699 24.104L76.4234 24.0355L76.2881 23.9463L76.1146 23.9336L75.9602 23.8842L75.8217 23.8014L75.6641 23.7568L75.5288 23.6644L75.3568 23.6501L75.2629 23.4717L75.0878 23.4637L74.9413 23.3953L74.8044 23.3061L74.6771 23.1978L74.5274 23.1357L74.3348 23.1596L74.1963 23.072L74.0896 22.9573L73.9527 22.9079L73.7967 23.0576L73.612 22.9589L73.4687 23.0656L73.3366 23.1643L73.2204 23.2774L73.1535 23.4271L72.9657 23.502L72.8973 23.658L72.8224 23.8046L72.8288 23.9829L72.8049 24.1502L72.6855 24.2776L72.5948 24.4177L72.5534 24.577L72.4754 24.7219L72.4643 24.8939L72.391 25.0404L72.3003 25.1806L72.3417 25.3733L72.1459 25.4704L72.149 25.6488L72.1124 25.8096L71.993 25.937L71.9071 26.0772L71.8864 26.2444L71.8832 26.4196L71.8529 26.582L71.7479 26.7158L71.6348 26.8448L71.6476 27.0264L71.5616 27.1681L71.4979 27.3194L71.4311 27.4675L71.2878 27.587L71.2798 27.7606L71.205 27.9055L71.1652 28.0663L71.1461 28.2352L71.014 28.3562L70.9694 28.5154L70.9407 28.6795L70.8229 28.8085L70.8595 28.9996L70.7752 29.1429L70.7131 29.2942L70.6399 29.4423L70.5539 29.5841L70.5523 29.7593L70.4424 29.8915L70.3708 30.0396L70.3151 30.194L70.2737 30.3549L70.1352 30.4743L70.1718 30.667L70.0349 30.7881L70.0397 30.968L69.9585 31.1114L69.9282 31.2754L69.847 31.4203L69.8025 31.5796L69.664 31.699L69.5844 31.8424L69.5764 32.0176L69.5621 32.1896L69.422 32.309L69.3552 32.4603L69.3536 32.6355L69.2501 32.7725L69.2358 32.9429L69.1148 33.0719L69.0304 33.2152L68.981 33.3744L68.911 33.4891L68.7804 33.4589L68.6149 33.5831L68.4509 33.5321L68.2854 33.5512L68.1214 33.5273L67.9558 33.6006L67.7918 33.5815L67.6279 33.5847L67.4623 33.5289L67.2983 33.4541L67.1344 33.5194L66.9704 33.4716L66.8048 33.4971L66.6393 33.5305L66.4753 33.4461L66.3113 33.548L66.1473 33.4684L65.9834 33.5512L65.8194 33.5926L65.6555 33.5688L65.4915 33.548L65.3259 33.5815L65.1619 33.4605L64.9964 33.5751L64.8324 33.5783L64.6685 33.4907L64.5029 33.5433L64.3389 33.5847L64.1749 33.5369L64.011 33.5385L63.847 33.505L63.6814 33.5767L63.5159 33.5146L63.3519 33.4955L63.1879 33.4525L63.0224 33.4318H62.8584L62.6928 33.4716L62.5288 33.4668L62.3633 33.5034L62.1977 33.5767L62.0322 33.5178L61.8682 33.4254L61.7026 33.5417L61.5386 33.4366L61.3731 33.4334L61.2075 33.5003L61.042 33.5512L60.878 33.5321L60.714 33.5082L60.5485 33.4238L60.3829 33.4796L60.2189 33.4429L60.0534 33.4907L59.8878 33.4302L59.7222 33.4175L59.5567 33.4652L59.3911 33.5353L59.2255 33.5242L59.06 33.4461L58.8928 33.5194L58.7432 33.47Z" fill="#CE651B"/>
<path d="M94.4093 20.1128L94.3329 20.1686L94.2071 20.2737L94.0081 20.2848L93.9429 20.4712L93.8298 20.5954L93.6611 20.6432L93.5449 20.7642L93.3857 20.8295L93.2567 20.9314L93.1691 21.0891L93.0291 21.1783L92.8587 21.2245L92.7457 21.3487L92.6454 21.4904L92.4989 21.5685L92.3318 21.6226L92.1806 21.6943L92.1121 21.879L91.9641 21.957L91.8303 22.0542L91.6457 22.0829L91.5199 22.1912L91.4005 22.3074L91.2731 22.4125L91.1235 22.489L91.02 22.6275L90.8417 22.6658L90.7128 22.7677L90.63 22.9333L90.4549 22.9779L90.31 23.0591L90.1938 23.1802L90.0362 23.2455L89.9088 23.3506L89.7719 23.4429L89.6939 23.6149L89.5825 23.7439L89.3994 23.7742L89.3071 23.9287L89.1479 23.9924L88.9807 24.0449L88.9154 24.2345L88.7547 24.2966L88.6321 24.4096L88.5 24.5132L88.3806 24.6294L88.2198 24.6963L88.18 24.5211L88.0351 24.4272L87.9651 24.2743L87.7932 24.1994L87.6785 24.0816L87.5703 23.9589L87.4811 23.822L87.4461 23.6452L87.376 23.4955L87.2455 23.3888L87.0911 23.3012L87.0322 23.1419L86.9191 23.0225L86.8602 22.8616L86.7584 22.7342L86.6374 22.6212L86.5912 22.4523L86.4511 22.3536L86.3317 22.2389L86.2171 22.1211L86.1279 21.9841L86.1216 21.7835L85.9353 21.7198L85.8095 21.6099L85.8016 21.4124L85.6981 21.285L85.636 21.1289L85.5389 20.9967L85.3495 20.9346L85.2619 20.796L85.1537 20.6734L85.0518 20.546L84.9531 20.4138L84.9149 20.2386L84.8496 20.0842L84.7477 19.9552L84.5981 19.8628L84.4675 19.7545L84.4261 19.5825L84.294 19.4758L84.2144 19.3293L84.0695 19.2321L83.9995 19.0729L84.1667 19.0092L84.2669 18.8483L84.4023 18.7543L84.5853 18.7368L84.7477 18.6859L84.8305 18.5123L84.9913 18.4581L85.1521 18.4024L85.2779 18.2941L85.359 18.1189L85.5739 18.1492L85.6743 18.0026L85.8382 17.9533L85.9735 17.8593L86.0929 17.7415L86.2123 17.6268L86.3922 17.5997L86.4925 17.4532L86.6437 17.3847L86.7647 17.2716L86.9176 17.2032L87.037 17.0885L87.1755 17.0009L87.3458 16.9611L87.4493 16.8193L87.5957 16.7445L87.7199 16.633L87.8759 16.5693L87.9714 16.4164L88.1084 16.3256L88.2834 16.2922L88.4522 16.2476L88.5509 16.0995L88.6544 15.9593L88.7913 15.867L88.968 15.8351L89.0556 15.6727L89.2243 15.6297L89.3501 15.523L89.53 15.4943L89.6541 15.3828L89.7894 15.2905L89.8945 15.1519L90.0123 15.034L90.1572 14.956L90.3036 14.8796L90.4374 14.784L90.5568 14.6678L90.6969 14.5817L90.8704 14.5435L91.0359 14.4958L91.1028 14.303L91.2238 14.19L91.3878 14.139L91.4976 14.0084L91.6505 13.9399L91.8033 13.8746L91.9354 13.7759L92.0835 13.7011L92.2347 13.631L92.3589 13.5227L92.4591 13.3809L92.5769 13.2631L92.7266 13.1898L92.8365 13.064H93.0386L93.0927 12.8602L93.2901 12.8522L93.3713 12.6834L93.5671 12.6754L93.6563 12.5193L93.8298 12.4811L93.946 12.3617L94.1116 12.3091L94.1976 12.1515L94.3408 12.0702L94.5048 12.0145L94.621 11.8982L94.7341 11.7756L94.855 11.6641L95.0095 11.5956L95.1448 11.5049L95.2706 11.3982L95.3486 11.2277L95.495 11.1513L95.6892 11.1354L95.7322 10.9204L95.9535 10.9395L96.0665 10.8185L96.1302 10.6305L96.3308 10.6242L96.439 10.4968L96.5696 10.398L96.654 10.2388L96.8482 10.2212L96.9326 10.0636L97.0949 10.0046L97.2111 9.88838L97.3687 9.82308L97.477 9.69727L97.547 9.52209L97.6951 9.44404L97.8543 9.38194L97.9482 9.23701L98.0597 9.11597L98.2252 9.06023L98.3637 8.97264L98.5149 8.90097L98.6598 8.81816L98.7299 8.64616L98.8206 8.49804L98.9655 8.41841L99.1565 8.39294L99.2186 8.20978L99.3794 8.14768L99.5322 8.07761L99.5959 7.89605L99.7694 7.85145L99.8777 7.72564L100.045 7.6699L100.126 7.51223L100.242 7.39757L100.343 7.26378L100.471 7.16345L100.612 7.07586L100.713 6.94527L100.826 6.82582L100.944 6.71435L101.068 6.60604L101.267 6.58853L101.322 6.4022L101.444 6.2939L101.64 6.27001L101.7 6.09323L101.871 6.04067L102.022 5.96423L102.052 5.75401L102.245 5.72534L102.385 5.63616L102.457 5.47531L102.574 5.36223L102.675 5.23164L102.797 5.12493L102.972 5.07716L103.101 4.95931L103.191 4.8335L103.254 4.95771L103.444 5.01664L103.434 5.22846L103.641 5.27623L103.647 5.4769L103.735 5.61545L103.867 5.72056L103.937 5.87186L104.09 5.96264L104.236 6.05501L104.241 6.25727L104.443 6.30823L104.467 6.49457L104.622 6.58216L104.654 6.76372L104.797 6.85927L104.843 7.03127L104.929 7.17142L105.061 7.27653L105.22 7.36094L105.276 7.52338L105.368 7.65716L105.462 7.79253L105.628 7.87216L105.652 8.06008L105.752 8.19067L105.82 8.34357L105.978 8.42956L106.129 8.52034L106.188 8.6812L106.26 8.83249L106.401 8.92964L106.526 9.04112L106.55 9.22905L106.634 9.3692L106.78 9.46475L106.917 9.56668L107.006 9.70523L107.013 9.9059L107.209 9.96482L107.231 10.1527L107.352 10.2674L107.409 10.4299L107.502 10.5668L107.607 10.6942L107.823 10.7372L107.798 10.9076L107.737 11.0223L107.632 11.1545L107.446 11.1847L107.306 11.2723L107.247 11.4635L107.076 11.5128L107.003 11.6848L106.871 11.7852L106.678 11.8075L106.612 11.989L106.462 12.0639L106.277 12.0957L106.167 12.2215L106.027 12.3107L105.932 12.4556L105.779 12.5257L105.695 12.6866L105.532 12.7471L105.405 12.8506L105.297 12.9796L105.118 13.0194L105.009 13.1452L104.868 13.2344L104.732 13.3268L104.634 13.4733L104.466 13.5243L104.375 13.6772L104.189 13.7074L104.117 13.8858L103.953 13.9447L103.832 14.061L103.687 14.1454L103.561 14.2537L103.474 14.4034L103.305 14.4703L103.253 14.6455L103.143 14.7681L103.003 14.8716L102.993 15.0611L102.824 15.1551L102.805 15.3303L102.652 15.4481L102.687 15.6376L102.694 15.808L102.597 15.953L102.498 16.1059L102.603 16.2842L102.557 16.4451L102.576 16.6091L102.492 16.7732L102.519 16.9372L102.578 17.1012L102.584 17.2653L102.551 17.4293L102.474 17.5918L102.566 17.7574L102.449 17.9198L102.5 18.0855L102.589 18.2495L102.546 18.4135L102.573 18.5776L102.544 18.7416L102.543 18.9072L102.474 19.0713L102.444 19.2353L102.496 19.3993L102.576 19.565L102.45 19.729L102.466 19.8931L102.496 20.0571L102.549 20.2227L102.449 20.3852L102.522 20.5508L102.426 20.7132L102.516 20.8789L102.45 21.0413L102.493 21.2069L102.546 21.371L102.5 21.535L102.436 21.699L102.495 21.8647L102.422 22.0287L102.402 22.1928L102.476 22.3584L102.501 22.5224L102.468 22.6865L102.439 22.8505L102.516 23.0161L102.452 23.1802L102.418 23.3442L102.49 23.5082L102.441 23.6723L102.508 23.8379L102.5 24.0019L102.493 24.1676L102.482 24.3316L102.49 24.4972L102.441 24.6613L102.442 24.8253L102.469 24.9893L102.399 25.1534L102.447 25.319L102.374 25.483L102.401 25.6471L102.387 25.8127L102.439 25.9767L102.469 26.1408L102.506 26.3048L102.369 26.4673L102.39 26.6313L102.417 26.7969L102.396 26.961L102.479 27.1266L102.439 27.2906L102.353 27.4547L102.433 27.6187L102.496 27.7843L102.46 27.9484L102.492 28.1124L102.445 28.2765L102.417 28.4405L102.422 28.6061L102.471 28.7718L102.352 28.9342L102.428 29.0998L102.482 29.2655L102.445 29.4295L102.364 29.5935L102.412 29.7592L102.36 29.9232L102.377 30.0888L102.418 30.2545L102.426 30.4185L102.428 30.5841L102.474 30.7498L102.445 30.9138L102.345 31.0778L102.445 31.245L102.35 31.4075L102.375 31.5731L102.458 31.7388L102.404 31.9028L102.342 32.0668L102.358 32.2325L102.41 32.3981L102.379 32.5637L102.328 32.7293L102.382 32.895L102.329 33.059L102.356 33.2262L102.43 33.3935L102.326 33.5145L102.208 33.6196L102.044 33.6212L101.88 33.5734L101.716 33.6132L101.552 33.5925L101.388 33.6228L101.224 33.5511L101.06 33.5081L100.897 33.5846L100.733 33.497L100.569 33.5336L100.405 33.5798L100.241 33.5304L100.078 33.5655L99.9143 33.5782L99.7519 33.6132L99.5879 33.5925L99.4239 33.5479L99.26 33.6212L99.096 33.6467L98.9321 33.5081L98.7681 33.5941L98.6041 33.5718L98.4401 33.5193L98.2777 33.5097L98.1138 33.5575L97.9498 33.5033L97.7858 33.618L97.6219 33.5033L97.4579 33.5607L97.2939 33.5193L97.13 33.5113L96.966 33.6164L96.802 33.5384L96.638 33.6276L96.4725 33.532L96.3085 33.6053L96.1445 33.5225L95.9806 33.6483L95.8166 33.6387L95.651 33.618L95.487 33.6228L95.3231 33.6499L95.1591 33.6371L94.9936 33.626L94.8296 33.5718L94.6656 33.5304L94.5016 33.5527L94.3377 33.5193L94.1737 33.6499L94.0081 33.6467L93.8441 33.6212L93.6786 33.6244L93.5146 33.5065L93.3491 33.5177L93.1851 33.6483L93.0195 33.618L92.8539 33.5686L92.7187 33.5591L92.7075 33.4221L92.7505 33.2629L92.6963 33.0909L92.7823 32.9364L92.7218 32.7628L92.8921 32.6195L92.8778 32.4522L92.8587 32.285L92.8396 32.1162L92.9383 31.9633L92.9319 31.7977L92.8921 31.6257L93.0227 31.4776L93.0131 31.3103L92.9861 31.1415L92.9941 30.9759L93.0577 30.8182L93.1373 30.6638L93.1612 30.5013L93.1055 30.3293L93.0848 30.1605L93.1182 29.9996L93.1325 29.8356L93.1533 29.6732L93.2137 29.5139L93.2901 29.3578L93.2885 29.1922L93.3347 29.0329L93.2503 28.8562L93.2949 28.6953L93.2663 28.5265L93.4239 28.3816L93.3745 28.2096L93.4764 28.0567L93.3968 27.8799L93.435 27.719L93.5226 27.5662L93.5512 27.4053L93.4573 27.2269L93.5655 27.0756L93.5353 26.9068L93.6085 26.7508L93.6197 26.5867L93.5512 26.4115L93.5863 26.2507L93.6881 26.0978L93.6945 25.9338L93.6292 25.7586L93.7853 25.6136L93.8028 25.4512L93.7104 25.2728L93.7423 25.112L93.7439 24.9463L93.8601 24.795L93.8139 24.623L93.8489 24.4622L93.8235 24.2934L93.8696 24.1325L93.9779 23.9812L93.9827 23.8156L93.962 23.6468L93.9413 23.478L94.0543 23.3267L94.1148 23.169L94.0336 22.9906L94.1243 22.8362L94.1769 22.6769L94.2055 22.5145L94.1339 22.3393L94.2071 22.1832L94.1578 22.0112L94.1371 21.8424L94.1737 21.6799L94.2039 21.5175L94.2517 21.3582L94.2756 21.1942L94.344 21.0365L94.3345 20.8693L94.352 20.7053L94.4555 20.5524L94.4061 20.3788L94.473 20.2132L94.4093 20.1128Z" fill="#CE651B"/>
<path d="M24.5415 30.5237L24.6513 30.3931L24.7787 30.28L24.8265 30.1176L24.9077 29.9742L24.9873 29.8277L25.0541 29.6748L25.1035 29.5124L25.199 29.377L25.3693 29.2862L25.3661 29.0919L25.4521 28.9518L25.6193 28.8578L25.6575 28.689L25.7609 28.5584L25.8326 28.4087L25.901 28.259L25.909 28.0743L26.0427 27.9596L26.1828 27.8481L26.2035 27.6713L26.2337 27.5009L26.3293 27.3656L26.4614 27.2493L26.5378 27.1028L26.5935 26.9467L26.6079 26.7699L26.7288 26.6457L26.7829 26.4896L26.9135 26.3702L26.9215 26.1902L27.0441 26.066L27.0488 25.8861L27.0998 25.7268L27.2112 25.5962L27.2462 25.4322L27.3099 25.2793L27.4739 25.1726L27.5248 25.0133L27.598 24.8668L27.5996 24.6868L27.6331 24.5228L27.727 24.3842L27.7636 24.2218L27.934 24.1135L27.9865 23.9574L27.9992 23.7854L28.1122 23.6532L28.1648 23.4988L28.2014 23.3363L28.2476 23.1802L28.3654 23.0465L28.3494 22.8649L28.472 22.7343L28.437 22.548L28.4593 22.3839L28.5198 22.2311L28.6233 22.0941L28.6981 21.946L28.687 21.7708L28.7427 21.6163L28.8684 21.4841L28.8987 21.3217L28.827 21.1322L28.9464 20.9984L29.0515 20.8535L28.9942 20.6639L29.1136 20.5222L29.0929 20.3438L29.2218 20.2021L29.1391 20.0094L29.303 19.874L29.3237 19.7068L29.3778 19.5444L29.3731 19.3723L29.3285 19.1924L29.3333 19.0236L29.459 18.8755L29.4941 18.7114L29.467 18.5378L29.4574 18.3674L29.5339 18.2082L29.5896 18.0457L29.5609 17.8578L29.5689 17.6683L29.5944 17.5011L29.6389 17.4373L29.5991 17.3259L29.596 17.2176L29.6819 17.1698L29.7615 17.157L29.6819 17.1698L29.8459 17.1013L30.0114 17.0997L30.1754 17.122L30.341 17.1634L30.5066 17.1539L30.6721 17.0503L30.8377 17.0695L31.0032 17.1379L31.1688 17.1809L31.3344 17.0408L31.4999 17.173L31.6655 17.1236L31.8311 17.1061L31.9966 17.0981L32.1622 17.0519L32.3277 17.1698L32.4933 17.1634L32.6589 17.1778L32.8244 17.1061L32.99 17.0647L33.1555 17.1268L33.3211 17.1586L33.4851 17.1379L33.6523 17.1555L33.8178 17.1013L33.9834 17.1125L34.1489 17.1443L34.3145 17.0344L34.4817 17.1778L34.6472 17.1093L34.8128 17.0806L34.98 17.1443L35.1471 17.1714L35.2999 17.122L35.362 17.2574L35.4018 17.4087L35.362 17.5759L35.3111 17.7431L35.3954 17.9056L35.3748 18.0712V18.2352L35.3716 18.4009L35.2856 18.5665L35.3445 18.7305L35.3302 18.8962L35.3525 19.0602L35.397 19.2258L35.3174 19.3899L35.3334 19.5539L35.3652 19.7195L35.2999 19.882L35.4002 20.0508L35.37 20.2148L35.3604 20.3789L35.3397 20.5429L35.3063 20.7053L35.3604 20.8742L35.2968 21.035L35.276 21.199L35.2697 21.3631L35.2776 21.5287L35.1805 21.6864L35.2713 21.86L35.1742 22.016L35.2283 22.1865L35.1901 22.3473L35.2044 22.5161L35.163 22.677L35.1614 22.8426L35.058 22.9939L35.015 23.1548L35.05 23.3252L35.0755 23.4956L34.9656 23.6453L34.9338 23.8061L34.9704 23.9797L34.8972 24.1342L34.9179 24.3046L34.8255 24.4543L34.7698 24.612L34.7523 24.7744L34.6886 24.9305L34.6361 25.0866L34.722 25.2729L34.6361 25.4226L34.6202 25.5882L34.5581 25.7411L34.5915 25.9195L34.5342 26.074L34.4976 26.2348L34.4021 26.3798L34.2874 26.5183L34.3081 26.6951L34.2174 26.84L34.1983 27.0056L34.184 27.1713L34.0566 27.3051L34.1059 27.4914L33.9818 27.6252L34.0089 27.8067L33.9993 27.9755L33.9245 28.1252L33.8528 28.2734L33.8305 28.4406L33.6618 28.5552L33.7143 28.7479L33.6618 28.904L33.5233 29.0282L33.5137 29.2002L33.4931 29.3691L33.3896 29.5044L33.3307 29.6589L33.2383 29.7975L33.2415 29.9774L33.1221 30.1048L33.0409 30.2498L32.9359 30.3835L32.8531 30.5253L32.7862 30.675L32.756 30.8406L32.6827 30.9887L32.6477 31.1528L32.6429 31.3343L32.5204 31.4585L32.358 31.6003L32.2291 31.6815L32.081 31.5557L31.9186 31.5286L31.7467 31.5732L31.5763 31.6003L31.4156 31.5589L31.2564 31.5127L31.1051 31.406L30.9332 31.4378L30.774 31.3805L30.6052 31.4044L30.4508 31.3216L30.2884 31.2865L30.1197 31.3104L29.9462 31.3566L29.7838 31.3232L29.6326 31.2244L29.4574 31.2738L29.3014 31.1958L29.1279 31.2451L28.9687 31.1942L28.8127 31.1114L28.6488 31.1018L28.4848 31.0811L28.3256 31.019L28.1664 30.9664L27.9897 31.0333L27.8209 31.0461L27.6697 30.9346L27.5009 30.9457L27.3433 30.8756L27.1794 30.8518L27.0138 30.8406L26.8451 30.8549L26.6843 30.8103L26.5171 30.8199L26.3643 30.7196L26.1923 30.745L26.0188 30.7881L25.8676 30.6798L25.6941 30.7243L25.5253 30.7355L25.3741 30.6192L25.2165 30.5524H25.0493L24.8869 30.5046L24.7182 30.503L24.5415 30.5237Z" fill="#CE651B"/>
<path d="M42.2696 33.54L42.1056 33.4396L41.9417 33.4667L41.7777 33.497L41.6121 33.5623L41.4481 33.5033L41.2858 33.4795L41.117 33.5527L40.9562 33.4763L40.7922 33.4683L40.6251 33.5049L40.4611 33.4779L40.3019 33.4078L40.1443 33.3313L39.9788 33.3441L39.8148 33.3393L39.6444 33.3727L39.4932 33.2629L39.3118 33.3712L39.1541 33.3106L38.9918 33.2756L38.8389 33.1912L38.6654 33.2294L38.5364 33.1832L38.4059 33.1562L38.4107 32.9953L38.4744 32.8329L38.3645 32.6688L38.476 32.5064L38.3375 32.3439L38.4298 32.1815L38.3438 32.019L38.39 31.8566L38.3661 31.6942L38.3311 31.5317L38.3375 31.3693L38.3677 31.2052L38.3693 31.0428L38.4171 30.8803L38.3661 30.7179L38.3582 30.5554L38.4266 30.393L38.4664 30.2306L38.3422 30.0681L38.3645 29.9057L38.4314 29.7432L38.425 29.5808L38.39 29.4168L38.4378 29.2543L38.4202 29.0919L38.3868 28.9294L38.4744 28.7654L38.3359 28.6029L38.4537 28.4405L38.3566 28.2765L38.3518 28.114L38.339 27.95L38.3757 27.7875L38.4776 27.6235L38.4584 27.4594L38.3788 27.297L38.3422 27.133L38.4043 26.9705L38.4441 26.8065L38.3948 26.644L38.398 26.48L38.39 26.3176L38.4123 26.1551L38.3375 25.9911L38.4425 25.8286L38.398 25.6662L38.4792 25.5038L38.3645 25.3397L38.468 25.1773L38.4457 25.0148L38.3773 24.8508L38.4298 24.6883L38.339 24.5259L38.3932 24.3619L38.4107 24.1994L38.4473 24.0354L38.4425 23.8729L38.4744 23.7089L38.4171 23.5465L38.4123 23.3824L38.3916 23.2184L38.4616 23.0559L38.4489 22.8919L38.355 22.7279L38.4441 22.5654L38.3757 22.4014L38.425 22.2389L38.3247 22.0749L38.4808 21.9125L38.4425 21.7484L38.433 21.586L38.4441 21.4219L38.347 21.2595L38.355 21.0955L38.3359 20.933L38.4123 20.769L38.4107 20.6065L38.3263 20.4425L38.3852 20.2785L38.4346 20.1144L38.4378 19.952L38.3263 19.7879L38.3804 19.6239L38.3916 19.4615L38.3534 19.2974L38.4505 19.135L38.4808 18.9709L38.3438 18.8085L38.3964 18.6445L38.4266 18.4804L38.4521 18.318L38.4569 18.1539L38.4139 17.9899L38.4043 17.8259L38.4346 17.6634L38.433 17.4994L38.39 17.3353L38.3868 17.1729L38.3279 17.0089L38.339 16.8448L38.4043 16.6808L38.4632 16.5183L38.4043 16.3543L38.3582 16.1919L38.3247 16.0294L38.4712 15.867L38.4282 15.7029L38.4346 15.5389L38.4823 15.3765L38.4505 15.2124L38.3327 15.0484L38.3438 14.8843L38.4346 14.7219L38.3422 14.5579L38.4012 14.3954L38.3518 14.2314L38.4091 14.0689L38.3343 13.9049L38.4808 13.7409L38.4569 13.5768L38.4823 13.4128L38.4314 13.2503L38.4839 13.0863L38.4648 12.9223L38.46 12.7598L38.3311 12.5958L38.4282 12.4317L38.4648 12.2677L38.4744 12.1037L38.4457 11.9396L38.363 11.7756L38.4362 11.6116L38.3295 11.4475L38.3422 11.2835L38.3502 11.1195L38.3438 10.9554L38.4616 10.7914L38.3884 10.6289L38.339 10.4633L38.3996 10.2993L38.4823 10.1352L38.3343 9.97119L38.4648 9.80716L38.4202 9.64312L38.4075 9.47908L38.4473 9.31345L38.4648 9.14942L38.3996 8.98379L38.382 8.79586L38.5667 8.78949L38.7291 8.76719L38.8915 8.81019L39.0554 8.85001L39.2178 8.80383L39.3818 8.80542L39.5442 8.84682L39.7066 8.81656L39.8689 8.75604L40.0313 8.8516L40.1953 8.83249L40.3576 8.75286L40.52 8.77993L40.684 8.80064L40.8464 8.88186L41.0104 8.82771L41.1727 8.80383L41.3351 8.88823L41.4991 8.78312L41.6615 8.83249L41.8255 8.83727L41.9878 8.75127L42.1518 8.86912L42.3157 8.74331L42.4781 8.86912L42.6421 8.75446L42.8045 8.84364L42.9685 8.73853L43.1324 8.88664L43.2948 8.8293L43.4588 8.88027L43.6211 8.78312L43.7835 8.79745L43.9475 8.82134L44.1115 8.74171H44.2755L44.4394 8.81338L44.6018 8.76561L44.7658 8.75923L44.9298 8.78153L45.0937 8.74808L45.2577 8.7879L45.4232 8.74808L45.5665 8.83886L45.5204 8.9822L45.6048 9.14623L45.5506 9.31027L45.5634 9.4743L45.6032 9.63834L45.5904 9.80238L45.5172 9.96642L45.6366 10.1304L45.5426 10.2961L45.6446 10.4601L45.5634 10.6242L45.6318 10.7882L45.5411 10.9522L45.6143 11.1163L45.6206 11.2803L45.6636 11.4443L45.5538 11.6084L45.6048 11.7724L45.5156 11.9365L45.5331 12.1005L45.5506 12.2645L45.6191 12.4286L45.6636 12.5926L45.5904 12.7566L45.5602 12.9223L45.6382 13.0863L45.6461 13.2503L45.5713 13.4144L45.514 13.58L45.6334 13.744L45.662 13.9081L45.5586 14.0721L45.5092 14.2362L45.6636 14.4002L45.6334 14.5642L45.5936 14.7283L45.5904 14.8923L45.549 15.0579L45.5347 15.222L45.549 15.386L45.6127 15.5516L45.5697 15.7157L45.5315 15.8797L45.6286 16.0437L45.6048 16.2078L45.5904 16.3734L45.5124 16.5375L45.5793 16.7015L45.5872 16.8655L45.6604 17.0296L45.6414 17.1936L45.5204 17.3576L45.5681 17.5201L45.6382 17.6841L45.6032 17.8498L45.5522 18.0138L45.6589 18.1778L45.6286 18.3435L45.5808 18.5075L45.5968 18.6715L45.5713 18.8356L45.5872 18.9996L45.5554 19.1636L45.6541 19.3277L45.5172 19.4917L45.5252 19.6557L45.6175 19.8214L45.5458 19.9854L45.549 20.151L45.6589 20.3151L45.6461 20.4791L45.6 20.6432L45.5188 20.8088L45.5522 20.9728L45.627 21.1384L45.6095 21.3025L45.5458 21.4681L45.5331 21.6322L45.5681 21.7978L45.5602 21.9618L45.5299 22.1275L45.6557 22.2915L45.514 22.4571L45.6541 22.6212L45.6668 22.7852L45.6446 22.9508L45.5713 23.1149L45.5936 23.2805L45.5267 23.4461L45.514 23.6102L45.635 23.7758L45.6063 23.9414L45.5888 24.107L45.5634 24.2727L45.5474 24.4383L45.6636 24.6055L45.6063 24.7536L45.6509 24.897L45.6573 25.0753L45.7719 25.19L45.8818 25.311L46.0919 25.2696L46.1954 25.3955L46.3434 25.4289L46.4946 25.4369L46.6459 25.4512L46.7525 25.4783L46.9149 25.4273L47.0868 25.4528L47.2301 25.3063L47.4116 25.3716L47.5692 25.3174L47.7332 25.2856L47.9035 25.276L48.0611 25.2187L48.2012 25.1168L48.3604 25.0674L48.5117 25.0005L48.6645 24.9336L48.8125 24.8619L48.9701 24.8078L49.1325 24.7584L49.2837 24.6867L49.4031 24.5609L49.5687 24.5132L49.6738 24.3682L49.8011 24.2599L49.9747 24.2217L50.0925 24.1007L50.1896 23.951L50.3297 23.8634L50.5239 23.8506L50.6512 23.7423L50.7865 23.6468L50.8534 23.4605L51.0015 23.384L51.1925 23.3585L51.3135 23.2455L51.4488 23.1483L51.4918 22.9349L51.6207 22.833L51.7481 22.7247L51.9694 22.7342L52.049 22.5654L52.2161 22.4906L52.3419 22.3632L52.4231 22.1832L52.6412 22.1673L52.7415 22.0351L52.7542 22.1928L52.8975 22.3026L52.9373 22.4683L53.122 22.5559L53.1808 22.7119L53.2222 22.876L53.2398 23.0527L53.3432 23.1849L53.5088 23.2837L53.4515 23.5019L53.6011 23.6086L53.7237 23.7296L53.7014 23.9287L53.8017 24.0625L53.9704 24.1596L54.0134 24.3236L54.0516 24.4893L54.1344 24.6342L54.2379 24.7648L54.2586 24.9416L54.37 25.069L54.421 25.2298L54.5802 25.3317L54.5547 25.5308L54.733 25.6232L54.7091 25.8223L54.8062 25.9592L54.9081 26.0914L54.9973 26.2316L55.1183 26.3558L55.139 26.531L55.2345 26.6679L55.2902 26.8256L55.3889 26.961L55.4876 27.0979L55.4637 27.2524L55.4621 27.4658L55.3157 27.5598L55.2154 27.6888L55.1055 27.8098L54.9591 27.9006L54.8556 28.0248L54.7712 28.1682L54.655 28.2812L54.542 28.3991L54.4687 28.5536L54.3254 28.6428L54.2315 28.7781L54.1678 28.9453L53.9704 28.9772L53.9291 29.1699L53.7826 29.2527L53.6998 29.4056L53.5008 29.4295L53.4228 29.5856L53.3146 29.7098L53.1092 29.7209L53.0694 29.928L52.8768 29.9503L52.786 30.0968L52.673 30.2178L52.5313 30.3022L52.3896 30.3866L52.2384 30.4535L52.1095 30.5539L51.9821 30.6558L51.8866 30.8071L51.7099 30.8357L51.565 30.9122L51.417 30.9807L51.3055 31.1113L51.132 31.1368L50.9967 31.2291L50.8805 31.3549L50.7101 31.3836L50.5637 31.4537L50.4331 31.5556L50.3201 31.6942L50.1529 31.7212L50.0288 31.8407L49.8696 31.8869L49.7136 31.9378L49.5783 32.035L49.4111 32.0589L49.2455 32.0859L49.1007 32.1608L48.9367 32.1895L48.795 32.2707L48.6581 32.3694L48.5307 32.4952L48.3716 32.5351L48.2251 32.6147L48.0341 32.5605L47.8685 32.5733L47.7555 32.7564L47.5596 32.6768L47.41 32.7405L47.262 32.8169L47.1155 32.8966L46.9658 32.9714L46.7908 32.9443L46.6188 32.9284L46.4867 33.0733L46.31 33.0383L46.1444 33.0399L45.99 33.0972L45.8404 33.1753L45.6843 33.2374L45.5252 33.2724L45.3484 33.2039L45.1876 33.2262L45.03 33.2724L44.8661 33.2756L44.7101 33.3345L44.5477 33.3536L44.3917 33.4173L44.2309 33.4524L44.0653 33.4428L43.8965 33.3807L43.7421 33.4954L43.5782 33.5049L43.4126 33.4763L43.2487 33.4651L43.0879 33.5193L42.9239 33.4858L42.7615 33.5272L42.5959 33.4842L42.4336 33.5033L42.2696 33.54Z" fill="#CE651B"/>
<path d="M17.1851 4.7093L17.3411 4.60896L17.4127 4.45289L17.5114 4.3207L17.6021 4.18215L17.7502 4.08978L17.8139 3.92734L17.8935 3.77763L18.0335 3.67889L18.102 3.51964L18.1959 3.38426L18.4061 3.34126L18.414 3.13263L18.5255 3.01L18.6544 2.90171L18.769 2.78067L18.9298 2.69785L18.9776 2.52267L19.0604 2.37615L19.2196 2.29334L19.2769 2.12452L19.4201 2.02896L19.5316 1.90634L19.5825 1.73274L19.7035 1.61808L19.8643 1.53526L19.8818 1.33619L19.9821 1.20241L20.1365 1.11481L20.2607 1.00175L20.3435 0.853627L20.474 0.745332L20.6094 0.641819L20.6746 0.480966L20.7399 0.316924L20.9468 0.272337L21.036 0.129L21.1012 0L21.2588 0.04937L21.3337 0.200668L21.383 0.37585L21.5327 0.465034L21.6457 0.586073L21.7635 0.703923L21.8112 0.879114L21.9132 1.00971L21.9912 1.16101L22.1519 1.24381L22.2856 1.34734L22.3971 1.46996L22.4433 1.64675L22.5404 1.78211L22.6773 1.88404L22.7234 2.06082L22.8731 2.15319L23.0307 2.23918L23.0641 2.42552L23.174 2.54974L23.2504 2.70104L23.4271 2.76952L23.5783 2.8603L23.6484 3.01796L23.7598 3.1406L23.7789 3.33967L23.9699 3.397L24.1005 3.5053L24.1578 3.67411L24.2852 3.7856L24.3568 3.94007L24.4667 4.06589L24.629 4.14712L24.7245 4.28408L24.7803 4.45449L24.9124 4.56278L25.0779 4.7077L24.9363 4.86696L24.7882 4.95615L24.6577 5.05967L24.6354 5.25396L24.5096 5.36226L24.403 5.48489L24.2311 5.55337L24.1339 5.68715L24.0464 5.82571L23.9461 5.9563L23.8203 6.063L23.7535 6.22067L23.5895 6.29712L23.4876 6.42452L23.4462 6.60449L23.287 6.6857L23.166 6.79559L23.0816 6.93893L22.9431 7.03767L22.8444 7.16826L22.733 7.28771L22.6996 7.47244L22.62 7.62056L22.4512 7.69222L22.3987 7.86103L22.2586 7.95819L22.109 8.04578L22.0898 8.24485L21.9482 8.34041L21.8558 8.47737L21.754 8.60478L21.6648 8.74493L21.5279 8.84367L21.3655 8.92171L21.3034 9.08574L21.1713 9.19086L21.1012 9.39152L20.9468 9.2657L20.8322 9.14785L20.7351 9.01726L20.689 8.84208L20.6109 8.69556L20.474 8.59681L20.3148 8.51718L20.2464 8.35952L20.127 8.24645L20.0601 8.09037L19.9503 7.96775L19.8229 7.86103L19.7672 7.69541L19.6223 7.60304L19.4966 7.49474L19.374 7.38326L19.2785 7.25108L19.2609 7.052L19.0699 6.99785L18.9378 6.89434L18.9187 6.69685L18.8088 6.57582L18.7372 6.42293L18.6337 6.29552L18.4395 6.24456L18.3456 6.11078L18.2294 5.99452L18.1195 5.87189L18.0145 5.74608L17.9667 5.57089L17.8919 5.4196L17.7836 5.29696L17.6292 5.21255L17.4923 5.11223L17.4397 4.94182L17.3013 4.84149L17.1851 4.7093Z" fill="#CE651B"/>
<path d="M22.7427 13.6486L22.8302 13.5005L22.9241 13.3762L22.636 13.311L22.6201 12.7567L22.5389 12.7217L22.437 12.6357L22.3113 12.529L22.0406 12.2997L22.0088 12.1006L21.9308 12.0401L21.7286 11.8824L21.6315 11.6451L21.5869 11.5352L21.5439 11.4556L21.5408 11.4588L21.3768 11.446L21.2128 11.4333L21.0489 11.4014L20.8849 11.3584L20.7209 11.4508L20.5569 11.4842L20.393 11.4651L20.229 11.4413L20.065 11.4126L19.901 11.4572L19.7371 11.4237L19.5731 11.4858L19.4091 11.4667L19.2452 11.3982L19.0812 11.4874L18.9172 11.4858L18.7532 11.4938L18.5893 11.4683L18.4253 11.3967L18.2613 11.411L18.0974 11.4779L17.935 11.411L17.771 11.4874L17.607 11.36L17.4447 11.4126L17.2807 11.3998L17.1183 11.4301L16.9543 11.4253L16.7904 11.4397L16.6264 11.4651L16.4624 11.4142L16.3 11.4556L16.1361 11.3823L15.9737 11.3935L15.8097 11.4269L15.6473 11.4428L15.4849 11.4842L15.321 11.4858L15.157 11.4667L14.9931 11.4763L14.8307 11.4413L14.6667 11.446L14.5027 11.3648L14.3387 11.4779L14.1764 11.4237L14.0124 11.4556L13.8484 11.489L13.6845 11.4301L13.5205 11.4237L13.3565 11.4317L13.1941 11.3839L13.0302 11.3791L12.8662 11.4858L12.7038 11.3903L12.5398 11.4508L12.3774 11.3919L12.2135 11.3712L12.0495 11.5018L11.8856 11.3887L11.7264 11.4269L11.5672 11.419L11.4589 11.2868L11.3077 11.239L11.1851 11.1148L11.1899 10.9444L11.1978 10.7835L11.2504 10.5637L11.2647 10.516L11.3698 10.379L11.3443 10.1895L11.4207 10.0414L11.4398 9.87095L11.5863 9.74992L11.5704 9.56677L11.7168 9.44573L11.6738 9.25144L11.7773 9.11447L11.8537 8.96636L11.8426 8.78481L11.8935 8.62873L11.9858 8.487L12.0416 8.33251L12.2167 8.22262L12.1307 8.0124L12.274 7.88977L12.3822 7.75599L12.3854 7.57922L12.438 7.42313L12.508 7.26706L12.36 7.17628L12.1848 7.17788L12.0448 7.08233L11.8919 7.02021L11.7407 6.96129L11.5958 6.88007L11.4239 6.8737L11.2838 6.78133L11.0991 6.80999L10.9495 6.7447L10.803 6.66507L10.6773 6.53448L10.4862 6.58702L10.3636 6.44687L10.1997 6.41821L10.0453 6.36566L9.87171 6.36407L9.72208 6.29559L9.59471 6.16817L9.43074 6.14269L9.25724 6.14429L9.11394 6.0551L8.9516 6.02484L8.80511 5.94999L8.65866 5.87833L8.51536 5.79392L8.36095 5.74136L8.17948 5.76366L8.02029 5.72384L7.88336 5.6251L7.75126 5.50725L7.59999 5.44833L7.4249 5.45469L7.30072 5.32092L7.15109 5.25562L6.99667 5.20306L6.82473 5.20148L6.6735 5.14255L6.492 5.16484L6.38535 4.97851L6.17839 4.94666L6.19591 5.17122L6.14655 5.33525L6.05102 5.4754L6.0176 5.63625L6.0415 5.81303L5.89501 5.94043L5.8839 6.10607L5.85521 6.26851L5.76291 6.41025L5.74857 6.57747L5.66259 6.72081L5.65941 6.89121L5.59096 7.04092L5.5034 7.18425L5.45085 7.33873L5.49862 7.52666L5.37444 7.65885L5.29803 7.80536L5.26461 7.96621L5.25504 8.13503L5.20254 8.28951L5.18501 8.45674L5.11338 8.60485L5.08155 8.76728L5.02422 8.92177L4.87936 9.04281L4.83 9.20047L4.80614 9.36451L4.79658 9.53491L4.76316 9.69736L4.67559 9.8391L4.54982 9.9681L4.59918 10.1608L4.48775 10.2946L4.36517 10.4236L4.33967 10.5892L4.3174 10.7548L4.29035 10.9205L4.24736 11.0797L4.06427 11.1848L4.13593 11.3871L4.03881 11.5257L3.87483 11.6371L3.83981 11.7996L3.7634 11.9445L3.77137 12.1245L3.75065 12.2917L3.71086 12.4541L3.61536 12.5911L3.566 12.7488L3.46569 12.8841L3.36223 13.0195L3.3288 13.182L3.24761 13.3269L3.15845 13.467L3.14252 13.6374L3.03109 13.768V13.9464L2.99288 14.1088L2.92125 14.257L2.80186 14.3844L2.78433 14.5548L2.72863 14.7092L2.60127 14.8335L2.58218 15.0039L2.49621 15.1456L2.41662 15.2905L2.28128 15.41L2.27969 15.5884L2.2224 15.7428L2.16189 15.8957L2.06161 16.0311L1.97723 16.1728L1.89286 16.3146L1.84668 16.4738L1.83075 16.6474L1.6684 16.7525L1.71773 16.958L1.53626 17.052L1.4869 17.2112L1.47415 17.3864L1.29906 17.4835L1.27834 17.6571L1.1717 17.7861L1.19715 17.982L1.02047 18.0776L1.01409 18.2575L0.964734 18.4168L0.853305 18.5442L0.826254 18.7146L0.74825 18.858L0.663872 18.9997L0.616105 19.1605L0.542881 19.3071L0.420298 19.4281L0.337513 19.5698L0.262696 19.7164L0.135332 19.8358L0.176724 20.0524L0 20.1878L0.183098 20.2515L0.343887 20.2929L0.485554 20.3773L0.644749 20.4219L0.77052 20.5429L0.94087 20.5604L1.09688 20.6098L1.25767 20.6464L1.41686 20.6878L1.52351 20.8567L1.71773 20.8121L1.82441 20.9825L2.00907 20.9586L2.14755 21.0478L2.31312 21.0748L2.44048 21.1959L2.60286 21.2293L2.75409 21.2867L2.88783 21.3902L3.02471 21.4889L3.21419 21.4539L3.37498 21.4921L3.48162 21.6593L3.65197 21.6737L3.83344 21.6593L3.92579 21.8632L4.11363 21.8313L4.27601 21.8664L4.40018 21.9906L4.53548 22.0893L4.67878 22.1721L4.87458 22.1212L5.00832 22.2231L5.1866 22.2151L5.31715 22.325L5.47794 22.3569L5.5814 22.5352L5.75175 22.5161L5.79952 22.3712L5.92051 22.2502L5.92529 22.0686L6.13062 21.9954L6.20388 21.8504L6.28029 21.7103L6.23412 21.5017L6.3185 21.3631L6.38057 21.215L6.54454 21.1178L6.648 20.9904L6.62892 20.7993L6.71011 20.6592L6.77696 20.5127L6.94413 20.4187L7.0301 20.2817L7.04599 20.1081L7.09217 19.9505L7.2259 19.8374L7.2816 19.6861L7.29753 19.5125L7.41215 19.3899L7.44398 19.2243L7.52836 19.0873L7.63186 18.9599L7.72576 18.8277L7.79899 18.6844L7.87543 18.541L8.04415 18.5363L8.20972 18.5474L8.37688 18.4964L8.54245 18.4885L8.70802 18.5283L8.87355 18.5363L9.03912 18.5203L9.20469 18.6191L9.37026 18.498L9.53424 18.549L9.69981 18.5171L9.86538 18.5442L10.0293 18.5554L10.1949 18.5458L10.3605 18.541L10.526 18.6143L10.69 18.4678L10.8556 18.4805L11.0211 18.4662L11.1867 18.5474H11.3522L11.5162 18.6207L11.6818 18.5044L11.8474 18.5203L12.0113 18.5442L12.1769 18.5633L12.3408 18.592L12.5064 18.4694L12.672 18.4837L12.836 18.5506L13.0126 18.5394L13.1575 18.6541L13.2594 18.7465L13.2865 18.7942L13.3756 18.9885L13.1941 19.1096L13.2706 19.3023L13.1973 19.452L13.1448 19.6081L13.1336 19.7753L13.0763 19.9314L12.9697 20.0715L12.9076 20.2228L12.933 20.4012L12.9187 20.5684L12.7946 20.7022L12.7054 20.8471L12.6449 21L12.7038 21.1879L12.6592 21.3472L12.5446 21.4825L12.5844 21.6657L12.543 21.825L12.3631 21.9412L12.4077 22.126L12.3281 22.2725L12.2931 22.4333L12.2183 22.5814L12.1816 22.7423L12.0846 22.8824L12.0034 23.0274L12.0527 23.2169L11.9508 23.3554L11.8633 23.4988L11.8744 23.6756L11.8633 23.8459L11.6929 23.959L11.6197 24.1055L11.6292 24.2855L11.5799 24.4416L11.5831 24.6184L11.451 24.7442L11.3761 24.8907L11.2934 25.0356L11.322 25.2235L11.2249 25.3621L11.1198 25.4975L11.1166 25.6743L11.0625 25.8303L10.9845 25.9753L10.881 26.1106L10.8094 26.2587L10.7059 26.3925L10.6088 26.5279L10.6804 26.7429L10.5642 26.8703L10.4003 26.9738L10.3541 27.1347L10.3907 27.3353L10.265 27.4564L10.1233 27.571L10.0564 27.7207L10.05 27.9023L9.94812 28.0345L9.80646 28.1459L9.76825 28.3132L9.74913 28.49L9.68547 28.6428L9.6218 28.7973L9.46261 28.8977L9.42759 29.0665L9.24927 29.1557L9.20469 29.3213L9.12669 29.4662L9.10761 29.6462L8.94522 29.7433L8.91973 29.9201L8.76372 30.0188L8.76691 30.2147L8.59974 30.3071L8.61408 30.5094L8.46445 30.6113L8.36732 30.7435L8.31163 30.9043L8.23522 31.0508L8.09989 31.1591L8.08076 31.3439L7.96137 31.4617L7.78628 31.5445L7.72895 31.7054L7.60477 31.8201L7.54111 31.9761L7.42968 32.1004L7.34371 32.2405L7.28957 32.403L7.13834 32.5001L7.0444 32.6355L7.01576 32.817L6.9107 32.9269L6.81357 33.0432L6.80561 33.2231L6.67828 33.306L6.8327 33.3267L6.99667 33.3808L7.16065 33.3155L7.32459 33.2932L7.48697 33.2964L7.65094 33.3601L7.81333 33.3824L7.9773 33.3314L8.13969 33.2661L8.30207 33.3362L8.46445 33.4015L8.62843 33.3187L8.79081 33.3075L8.95315 33.2964L9.11553 33.3235L9.27951 33.2741L9.4403 33.3728L9.60428 33.376L9.76666 33.2773L9.92904 33.3776L10.0914 33.3888L10.2538 33.349L10.4178 33.3267L10.5802 33.3187L10.7425 33.3139L10.9049 33.2661L11.0673 33.3155L11.2297 33.3458L11.392 33.2821L11.5544 33.3792L11.7168 33.4079L11.8808 33.2996L12.0432 33.2821L12.204 33.2789L12.3663 33.3633L12.5271 33.4174L12.6895 33.4111L12.8519 33.3521L13.0158 33.2789L13.1766 33.3585L13.339 33.384L13.5014 33.3617L13.6638 33.3219L13.8261 33.3792L13.9885 33.2837L14.1493 33.3267L14.3101 33.2916L14.4725 33.3171L14.6333 33.4365L14.7973 33.2868L14.958 33.3521L15.1204 33.3362L15.2828 33.3314L15.4451 33.4397L15.6075 33.4254L15.7699 33.3298L15.9323 33.3506L16.0947 33.2996L16.2571 33.3904L16.4194 33.3585L16.5818 33.3537L16.7442 33.3012L16.8747 33.3346L16.9209 33.1467L16.975 32.997L17.0849 32.8648L17.1788 32.7294L17.295 32.6004L17.3492 32.4475L17.2775 32.2453L17.408 32.1211L17.502 31.9841L17.459 31.793L17.6484 31.6927L17.5959 31.4968L17.6882 31.3582L17.7854 31.2213L17.8267 31.0636L17.8745 30.9075L17.9828 30.7753L17.9636 30.5938L18.1053 30.4743V30.3007L18.0926 30.1224L18.2804 30.0188L18.2295 29.8261L18.2868 29.6748L18.4396 29.557L18.3648 29.3563L18.524 29.2401L18.4906 29.0553L18.6657 28.9454L18.7326 28.7957L18.7724 28.6365L18.8074 28.4756L18.7628 28.2861L18.8201 28.1332L18.9936 28.0201L19.0589 27.8704L18.9984 27.6761L19.0892 27.5344L19.1592 27.3863L19.2117 27.2302L19.2388 27.0678L19.3423 26.9292L19.2929 26.7397L19.3916 26.5995L19.5238 26.4721L19.5014 26.2922L19.5508 26.1361L19.6272 25.988L19.6559 25.8256L19.7657 25.6886L19.7816 25.5214L19.7482 25.3382L19.8119 25.1869L19.9584 25.0611L19.9536 24.8875L20.0348 24.7426L20.0809 24.5849L20.0937 24.4161L20.2051 24.2807L20.1494 24.0912L20.3325 23.9765L20.307 23.7966L20.3961 23.6517L20.4471 23.4972L20.4455 23.3252L20.5155 23.1739L20.6302 23.0385L20.6063 22.8585L20.619 22.6913L20.6923 22.5432L20.8148 22.4078L20.7384 22.2135L20.9135 22.0941L20.8928 21.9173L20.8817 21.7437L20.9947 21.6052L21.0775 21.4587L21.0138 21.2707L21.1014 21.1242L21.1699 20.9729L21.1969 20.8105L21.2494 20.656L21.2176 20.476L21.329 20.3375L21.3306 20.1687L21.3879 20.0142L21.4946 19.8724V19.7036L21.5742 19.5539L21.606 19.3931L21.6586 19.2386L21.6777 19.073L21.7795 18.9312L21.8098 18.7688L21.7509 18.5856L21.8353 18.4375L21.9356 18.2942L21.9053 18.1174L21.9308 17.955L22.004 17.8052L21.9626 17.6253L22.0295 17.474L22.1823 17.3418L22.1202 17.1587L22.2317 17.0169L22.1855 16.8385L22.203 16.6745L22.2858 16.5264L22.3272 16.3687L22.3351 16.2015L22.4036 16.0502L22.3877 15.8814L22.4641 15.7301L22.5325 15.5772L22.445 15.3972L22.5166 15.2459L22.5835 15.0931L22.6583 14.9418L22.6726 14.7809L22.6774 14.6169L22.6933 14.4576L22.6758 14.2904L22.7936 14.1455L22.7761 13.9798L22.8461 13.8301L22.7427 13.6486Z" fill="#CE651B"/>
<path d="M110.365 17.7542L110.418 17.5774L110.553 17.4755L110.642 17.3385L110.79 17.2446L110.811 17.0582L110.929 16.942L111.012 16.7986L111.164 16.7079L111.297 16.6012L111.287 16.3925L111.481 16.332L111.513 16.1536L111.652 16.0533L111.687 15.8765L111.865 15.8049L111.925 15.6472L112.019 15.5134L112.158 15.4099L112.22 15.2522L112.299 15.1089L112.395 14.9751L112.526 14.8684L112.562 14.6932L112.675 14.5722L112.783 14.4496L112.855 14.2983L112.914 14.1374L113.016 14.01L113.115 13.8794L113.299 13.8109V13.6087L113.503 13.5529L113.519 13.3618L113.646 13.2519L113.716 13.1022L113.823 12.9764L113.925 12.8474L114.068 12.7503L114.078 12.5528L114.188 12.4301L114.383 12.3696L114.407 12.1849L114.531 12.0718L114.613 11.9269L114.657 11.7549L114.772 11.6339L114.904 11.5112L115.058 11.5956L115.138 11.7629L115.311 11.7995L115.389 11.9699L115.531 12.0527L115.7 12.0973L115.797 12.2438L115.943 12.3203L116.099 12.384L116.225 12.4875L116.386 12.5448L116.448 12.7375L116.633 12.7614L116.728 12.9063L116.86 13.0019L117.002 13.0847L117.19 13.1054L117.238 13.3172L117.454 13.2997L117.567 13.4223L117.661 13.5705L117.792 13.6676L117.949 13.7297L118.074 13.838L118.228 13.9049L118.301 14.0817L118.451 14.1549L118.604 14.2234L118.777 14.2632L118.877 14.4034L119 14.5133L119.181 14.5435L119.274 14.6932L119.408 14.7872L119.57 14.8445L119.694 14.9512L119.794 15.0914L119.892 15.2379L120.041 15.3112L120.181 15.3972L120.347 15.4497L120.426 15.6185L120.637 15.609L120.746 15.738L120.874 15.8431L120.972 15.988L121.156 16.0501L121.036 16.1887L120.936 16.3177L120.836 16.4451L120.689 16.5406L120.683 16.7365L120.495 16.8034L120.511 17.0168L120.34 17.0949L120.313 17.278L120.18 17.3831L120.103 17.5296L120.035 17.6809L119.934 17.8099L119.815 17.9246L119.718 18.0552L119.583 18.1587L119.529 18.3227L119.438 18.4597L119.287 18.5521L119.158 18.6604L119.162 18.8658L119.048 18.9853L118.898 19.0776L118.806 19.213L118.739 19.3675L118.602 19.471L118.521 19.6143L118.451 19.7656L118.285 19.8484L118.3 20.0619L118.109 20.124L118.091 20.3135L117.999 20.4505L117.913 20.589L117.787 20.7005L117.607 20.7722L117.526 20.9155L117.496 21.0955L117.429 21.2499L117.281 21.3471L117.152 21.4554L117.096 21.6178L116.997 21.7484L116.907 21.887L116.792 22.0064L116.754 22.1848L116.596 22.2405L116.467 22.188L116.384 22.0271L116.185 22.0239L116.114 21.8456L115.969 21.7659L115.797 21.7245L115.695 21.5876L115.509 21.5637L115.41 21.4235L115.288 21.3136L115.178 21.1878L115.042 21.0955L114.929 20.9744L114.764 20.925L114.628 20.8327L114.484 20.7546L114.393 20.6002L114.253 20.5142L114.067 20.4934L113.987 20.3246L113.813 20.2848L113.712 20.1479L113.519 20.1335L113.479 19.9106L113.323 19.8453L113.185 19.7561L113.059 19.651L112.869 19.6335L112.742 19.5315L112.599 19.4487L112.511 19.291L112.377 19.1955L112.194 19.1684L112.097 19.0235L111.995 18.8881L111.865 18.7894L111.666 18.783L111.566 18.6429L111.44 18.5362L111.284 18.4709L111.207 18.2957L111.093 18.1762L110.879 18.189L110.778 18.0504L110.661 17.9278L110.542 17.8099L110.365 17.7542Z" fill="#CE651B"/>
<path d="M29.2568 10.6656L29.2997 10.4873L29.3953 10.3551L29.4844 10.2404L29.4032 10.1114L29.2583 10.0158L29.2281 9.82314L29.1246 9.69254L28.94 9.62885L28.9113 9.43773L28.8158 9.30077L28.6773 9.19885L28.5531 9.08577L28.4417 8.96314L28.3303 8.83892L28.1886 8.74018L28.1217 8.58251L28.0389 8.436L27.8829 8.3484L27.8511 8.15888L27.7683 8.01396L27.5773 7.95503L27.4579 7.83877L27.3512 7.71295L27.3098 7.53141L27.2461 7.37055L27.1347 7.24633L26.9834 7.15555L26.8195 7.07592L26.7765 6.89755L26.689 6.75422L26.5664 6.64114L26.4294 6.53921L26.3674 6.37518L26.1875 6.30829L26.1142 6.15381L25.9821 6.04869L25.8962 5.90536L25.8818 5.7031L25.6621 5.66966L25.6128 5.50403L25.5252 5.64258L25.4234 5.77477L25.2355 5.83688L25.14 5.97544L25.1097 6.16496L24.9888 6.27962L24.9235 6.44207L24.7484 6.51374L24.6672 6.66185L24.5669 6.79403L24.5032 6.95647L24.3806 7.07274L24.2946 7.21447L24.1944 7.34666L24.0479 7.44221L23.9142 7.54733L23.7629 7.63651L23.6626 7.7687L23.6658 7.98529L23.5019 8.06492L23.3665 8.17003L23.3458 8.36592L23.1309 8.40574L23.1182 8.60958L22.9845 8.7147L22.8475 8.81662L22.7552 8.95359L22.6581 9.08896L22.5101 9.18292L22.4687 9.36289L22.292 9.43295L22.2347 9.59859L22.1869 9.77377L21.9736 9.81199L21.9561 10.0111L21.851 10.1385L21.6504 10.2404L21.816 10.371L21.9385 10.4841L22.093 10.5685L22.1821 10.7086L22.2904 10.8328L22.3716 10.9794L22.4511 11.1259L22.5164 11.2867L22.6485 11.3887L22.7966 11.4794L22.8969 11.61L22.9271 11.798L23.0529 11.9047L23.2185 11.9795L23.3538 12.0798L23.4461 12.2168L23.5623 12.3315L23.5687 12.5401L23.7693 12.5847L23.8059 12.7694L23.9587 12.8538L24.0049 13.0306L24.1896 13.088L24.2469 13.2536L24.2915 13.4304L24.4905 13.4765L24.6067 13.5912L24.6496 13.7696L24.75 13.9002L24.9028 13.9846L24.9888 14.1263L25.0508 14.2872L25.1495 14.4178L25.2785 14.5229L25.4552 14.5866L25.5045 14.7586L25.6128 14.808L25.7147 14.749L25.8118 14.6153L25.9009 14.4751L26.0028 14.3445L26.1509 14.2569L26.2193 14.0977L26.318 13.9671L26.5138 13.9161L26.5966 13.7728L26.7287 13.6693L26.8099 13.5227L26.8609 13.3523L26.9739 13.2329L27.0646 13.0975L27.2525 13.0402L27.3544 12.9112L27.4308 12.7631L27.5725 12.6691L27.6616 12.529L27.7126 12.357L27.8606 12.2694L27.9116 12.0974L28.0676 12.0145L28.1567 11.8744L28.3016 11.7836L28.3557 11.6164L28.4449 11.4778L28.5515 11.3536L28.7044 11.2692L28.8269 11.1561L28.8922 10.9985L28.9463 10.8297L29.1039 10.75L29.2568 10.6656Z" fill="#CE651B"/>
</svg>
