<svg width="187" height="34" viewBox="0 0 187 34" fill="none" xmlns="http://www.w3.org/2000/svg">
<path d="M115.296 33.5575L115.383 33.4667L115.541 33.403L115.605 33.2454L115.708 33.1259L115.796 32.9906L115.918 32.8807L116.052 32.7819L116.148 32.645L116.253 32.5176L116.364 32.3965L116.48 32.2803L116.679 32.2468L116.721 32.0573L116.837 31.9394L117.031 31.9012L117.081 31.7197L117.248 31.6544L117.393 31.5652L117.41 31.3518L117.601 31.3088L117.735 31.21L117.797 31.0428L117.908 30.9202L118.001 30.7816L118.115 30.6654L118.287 30.6017L118.402 30.4822L118.496 30.3469L118.617 30.2354L118.644 30.0363L118.856 30.0076L118.867 29.7958L119.062 29.7528L119.185 29.6413L119.263 29.4916L119.4 29.3929L119.459 29.2257L119.523 29.0632L119.72 29.0186L119.731 28.81L119.909 28.7479L119.964 28.5775L120.135 28.5106L120.199 28.3482L120.358 28.2669L120.476 28.1523L120.551 27.9994L120.599 27.8258L120.745 27.7334L120.857 27.6124L120.966 27.4897L121.006 27.3114L121.183 27.2429L121.286 27.1155L121.419 27.0104L121.465 26.8368L121.516 26.668L121.656 26.5708L121.785 26.4625L121.842 26.3001L121.92 26.152L122.094 26.0803L122.208 25.9593L122.261 25.7936L122.321 25.6344L122.429 25.5117L122.622 25.4496V25.2474L122.797 25.1709L122.872 25.0244L123.012 24.9225L123.114 24.7935L123.205 24.6565L123.181 24.4383L123.393 24.3874L123.426 24.2106L123.488 24.0545L123.655 23.9701L123.762 23.8459L123.759 23.6452L123.907 23.5481L123.923 23.3617L124.015 23.2264L124.19 23.1467L124.195 22.954L124.311 22.8346L124.475 22.7454L124.539 22.5909L124.641 22.4619L124.682 22.2947L124.803 22.1769L124.827 21.9985L124.958 21.8886L125.04 21.7469L125.096 21.5892L125.249 21.4904L125.306 21.3344L125.405 21.2022L125.499 21.0684L125.535 20.8996L125.674 20.7929L125.701 20.6177L125.862 20.5237L125.86 20.3326L125.989 20.218L126.056 20.0683L126.156 19.9377L126.234 19.7943L126.271 19.6255L126.414 19.5188L126.427 19.3389L126.514 19.2003L126.639 19.0824L126.635 18.8945L126.803 18.799L126.826 18.627L126.989 18.5298L126.981 18.3403L127.011 18.1715L127.14 18.0552L127.28 17.9437L127.244 17.7415L127.35 17.6125L127.404 17.4564L127.554 17.3497L127.602 17.192L127.622 17.0184L127.689 16.8703L127.793 16.7382L127.933 16.6267L127.922 16.4372L128.098 16.3432L128.124 16.1728L128.114 15.9864L128.224 15.8574L128.27 15.6982L128.366 15.5628L128.439 15.4163L128.57 15.2984L128.667 15.1647L128.689 14.9927L128.686 14.8111L128.867 14.7156L128.921 14.5611L128.963 14.3986L128.985 14.2282L129.144 14.1215V13.9416L129.299 13.8317L129.286 13.6453L129.413 13.5243L129.442 13.3555L129.461 13.1835L129.571 13.0529L129.697 12.9287L129.694 12.7901L129.78 12.7344L129.908 12.7853L130.085 12.7407L130.251 12.7423L130.407 12.8044L130.564 12.8602L130.741 12.8124L130.892 12.9048L131.05 12.9653L131.225 12.9207L131.378 12.9972L131.553 12.9605L131.714 12.9956L131.876 13.0306L132.037 13.0688L132.201 13.0879L132.355 13.1644L132.518 13.1914L132.686 13.193L132.836 13.2902L133.008 13.2711L133.158 13.3714L133.326 13.373L133.486 13.4128L133.658 13.3905L133.825 13.3873L133.995 13.3794L134.134 13.5434L134.301 13.5514L134.468 13.553L134.629 13.6007L134.807 13.5466L134.963 13.6135L135.111 13.7266L135.289 13.6756L135.464 13.6422L135.644 13.7202L135.665 13.9033L135.6 14.0483L135.55 14.2075L135.534 14.37L135.561 14.5404L135.42 14.6837L135.471 14.8573L135.501 15.0293L135.439 15.1854L135.335 15.3335L135.356 15.5039L135.278 15.6552L135.269 15.8208L135.28 15.988L135.259 16.1521L135.232 16.3129L135.248 16.4833L135.189 16.6394L135.058 16.7796L135.127 16.9611L135.001 17.1013L134.993 17.2669L135.039 17.4453L134.953 17.595L134.858 17.7399L134.837 17.9039L134.853 18.0759L134.786 18.2288L134.699 18.3753L134.713 18.5473L134.624 18.6939L134.613 18.8595L134.643 19.0379L134.485 19.1653L134.562 19.3548L134.522 19.514L134.431 19.659L134.425 19.8278L134.361 19.9807L134.342 20.1463L134.227 20.2833L134.14 20.4282L134.165 20.6066L134.033 20.7372L134.02 20.9044L134.016 21.0748L133.919 21.2165L133.901 21.3822L133.863 21.5414L133.844 21.7086L133.772 21.8567L133.678 21.9985L133.693 22.1769L133.662 22.3409L133.478 22.4492L133.505 22.6323L133.428 22.7789L133.322 22.9142L133.256 23.0655L133.244 23.2343L133.134 23.3681L133.185 23.5624L133.018 23.6739L133.011 23.8475L132.912 23.9844L132.844 24.1326L132.879 24.3237L132.745 24.4463L132.766 24.6326L132.615 24.7473L132.618 24.9257L132.478 25.0435L132.529 25.2442L132.454 25.3907L132.37 25.534L132.306 25.6853L132.265 25.8446L132.185 25.9895L132.105 26.1344L131.988 26.2603L131.881 26.3909L131.832 26.5485L131.731 26.6823L131.777 26.8862L131.703 27.0327L131.609 27.168L131.539 27.3177L131.359 27.4101L131.295 27.5614L131.336 27.7669L131.235 27.899L131.115 28.0217L131.018 28.1554L130.978 28.3195L130.883 28.4549L130.872 28.6348L130.735 28.7463L130.728 28.931L130.518 29.0011L130.47 29.162L130.424 29.3244L130.38 29.4869L130.23 29.5904L130.173 29.7464L130.142 29.9185L129.964 30.0029L129.907 30.1605L129.864 30.3262L129.791 30.4727L129.67 30.5905L129.533 30.6988L129.445 30.8358L129.423 31.0157L129.372 31.1766L129.272 31.3072L129.189 31.4505L129.1 31.5875L128.977 31.7022L128.84 31.8089L128.767 31.957L128.656 32.078L128.651 32.2739L128.538 32.3949L128.487 32.559L128.28 32.6131L128.243 32.7883L128.081 32.8743L128.07 33.067L127.958 33.188L127.809 33.2804L127.705 33.4078L127.683 33.6212L127.495 33.54L127.333 33.591L127.169 33.5384L127.006 33.5496L126.844 33.6403L126.68 33.626L126.518 33.5448L126.355 33.5591L126.191 33.6467L126.029 33.5097L125.867 33.5129L125.704 33.6292L125.542 33.618L125.378 33.6372L125.215 33.5432L125.053 33.6101L124.891 33.5957L124.727 33.6435L124.564 33.618L124.402 33.5304L124.238 33.548L124.076 33.5894L123.913 33.6308L123.749 33.5384L123.587 33.4986L123.424 33.6021L123.262 33.532L123.098 33.5018L122.936 33.4938L122.773 33.5878L122.611 33.5352L122.449 33.6053L122.286 33.6483L122.124 33.634L121.961 33.6244L121.797 33.5957L121.635 33.5942L121.473 33.548L121.309 33.5782L121.146 33.5814L120.984 33.4986L120.822 33.5703L120.659 33.5257L120.497 33.5655L120.334 33.5703L120.17 33.5926L120.007 33.5575L119.844 33.5273L119.682 33.6053L119.518 33.5623L119.355 33.5289L119.193 33.5734L119.029 33.6021L118.865 33.5177L118.703 33.6292L118.539 33.6403L118.376 33.5304L118.212 33.548L118.05 33.5289L117.886 33.4922L117.722 33.5607L117.56 33.548L117.396 33.5368L117.233 33.6467L117.071 33.5097L116.907 33.5448L116.743 33.5002L116.581 33.4986L116.417 33.5989L116.253 33.5209L116.089 33.5384L115.925 33.6387L115.761 33.5066L115.597 33.6403L115.431 33.5926L115.296 33.5575Z" fill="#573B3A"/>
<path d="M144.643 33.2708L144.791 33.1976L144.81 32.9698L145.03 32.9253L145.116 32.758L145.215 32.6243L145.318 32.4968L145.395 32.3455L145.592 32.301L145.696 32.1735L145.815 32.0605L145.867 31.8885L145.944 31.7372L146.098 31.6528L146.229 31.5477L146.318 31.4091L146.436 31.2944L146.499 31.132L146.613 31.0141L146.741 30.9058L146.757 30.7084L146.972 30.6701L147.022 30.4997L147.101 30.3532L147.251 30.2624L147.373 30.1494L147.439 29.9933L147.488 29.8229L147.561 29.6732L147.697 29.5697L147.84 29.4725L147.873 29.2925L147.991 29.1763L148.09 29.0441L148.19 28.9151L148.357 28.8323L148.405 28.6651L148.512 28.5393L148.587 28.3911L148.642 28.2303L148.798 28.1395L148.876 27.993L148.938 27.8369L149.08 27.735L149.083 27.5407L149.193 27.4165L149.285 27.2795L149.386 27.1489L149.496 27.0263L149.529 26.8527L149.663 26.7428L149.758 26.609L149.839 26.4673L149.908 26.316L150.065 26.2204L150.059 26.0245L150.215 25.9274L150.237 25.749L150.339 25.62L150.395 25.4624L150.495 25.3318L150.561 25.1805L150.715 25.0801L150.815 24.948L150.846 24.776L150.882 24.6087L151.035 24.5068L151.119 24.3667L151.143 24.1915L151.261 24.0704L151.294 23.9016L151.428 23.787L151.527 23.6532L151.592 23.5019L151.696 23.3697L151.79 23.2327L151.755 23.0289L151.876 22.9063L151.931 22.7502L152.027 22.6148L152.033 22.4333L152.122 22.2947L152.192 22.1466L152.313 22.0224L152.452 21.9061L152.463 21.7293L152.576 21.6019L152.622 21.4411L152.662 21.2786L152.807 21.164L152.783 20.9728L152.923 20.855L152.915 20.6718L152.942 20.5046L153.031 20.3645L153.114 20.2211L153.149 20.0571L153.324 19.9552L153.283 19.7593L153.343 19.6064L153.487 19.4885L153.499 19.3165L153.523 19.1509L153.628 19.0155L153.687 18.8643L153.78 18.7241L153.773 18.5457L153.888 18.4151L153.964 18.2702L154.063 18.1333L154.139 17.9867L154.197 17.8338L154.216 17.665L154.275 17.5137L154.295 17.3481L154.281 17.1697L154.389 17.036L154.531 16.9133L154.472 16.7206L154.623 16.5996L154.679 16.4451L154.666 16.2699L154.668 16.0979L154.735 15.9482L154.805 15.8001L154.932 15.6679L154.926 15.4959L155.005 15.3494V15.179L155.106 15.0388L155.16 14.8844L155.155 14.714L155.126 14.5404L155.172 14.3859L155.279 14.2425L155.23 14.0753L155.286 14.0307L155.233 13.9607L155.217 13.8333L155.045 13.6581L154.916 13.6724L154.771 13.6756L154.626 13.6342L154.453 13.6039L154.278 13.6931L154.104 13.7281L153.942 13.6405L153.778 13.6772L153.614 13.6278L153.45 13.6294L153.288 13.6421L153.124 13.6804L152.961 13.6597L152.797 13.6931L152.635 13.6151L152.471 13.6644L152.309 13.7329L152.145 13.6469L151.982 13.717L151.818 13.752L151.656 13.6581L151.492 13.6151L151.329 13.6374L151.166 13.6151L151.003 13.6374L150.839 13.6485L150.675 13.7329L150.511 13.7473L150.349 13.6342L150.185 13.7441L150.021 13.6565L149.859 13.6644L149.695 13.7265L149.532 13.7186L149.368 13.7425L149.204 13.6023L149.042 13.7058L148.878 13.6405L148.714 13.7441L148.552 13.6151L148.388 13.6039L148.224 13.6708L148.06 13.6835L147.897 13.7234L147.733 13.6995L147.569 13.717L147.407 13.6676L147.243 13.6851L147.079 13.6342L146.915 13.6788L146.753 13.7504L146.59 13.6246L146.428 13.6597L146.264 13.6867L146.101 13.7377L145.938 13.7584L145.774 13.6294L145.611 13.7345L145.447 13.6676L145.283 13.6995L145.121 13.7473L144.957 13.6581L144.795 13.6183L144.631 13.6851L144.468 13.6326L144.304 13.6772L144.14 13.7297L143.976 13.7504L143.812 13.6851L143.648 13.7441L143.486 13.7027L143.322 13.6979L143.158 13.6071L142.994 13.6485L142.83 13.6469L142.666 13.6788L142.504 13.6342L142.34 13.6023L142.176 13.631L142.012 13.6342L141.848 13.6214L141.684 13.6851L141.518 13.6214L141.356 13.6405L141.192 13.6835L141.028 13.6804L140.864 13.7218L140.7 13.709L140.536 13.7297L140.372 13.7313L140.208 13.7106L140.043 13.674L139.879 13.6676L139.715 13.6772L139.549 13.6804L139.383 13.6198L139.186 13.7122L139.146 13.5163L139.231 13.3539L139.169 13.1914L139.269 13.029L139.227 12.8665L139.153 12.7041L139.221 12.5417L139.194 12.3792L139.269 12.2168L139.283 12.0543L139.245 11.8919L139.215 11.7294L139.167 11.567L139.286 11.4045L139.27 11.2421L139.216 11.0781L139.27 10.9156L139.275 10.7532L139.161 10.5907L139.162 10.4283L139.243 10.2658L139.293 10.1018L139.229 9.93936L139.169 9.77533L139.204 9.61288L139.293 9.45044L139.267 9.2864L139.204 9.12396L139.157 8.96151L139.253 8.79748L139.261 8.63503L139.258 8.47258L139.242 8.31014L139.154 8.1461L139.175 7.98366L139.197 7.81962L139.143 7.65718L139.227 7.49314L139.172 7.3307L139.173 7.16666L139.242 7.00421L139.264 6.84018L139.28 6.67614L139.145 6.5121L139.164 6.29073L139.383 6.27322L139.547 6.30029L139.71 6.30188L139.874 6.41973L140.038 6.33692L140.202 6.31303L140.366 6.36399L140.528 6.28596L140.692 6.42292L140.856 6.39744L141.018 6.36718L141.182 6.35922L141.346 6.32418L141.509 6.31144L141.673 6.36877L141.835 6.33533L141.999 6.34329L142.161 6.33692L142.325 6.30188H142.488L142.652 6.37992L142.814 6.39903L142.978 6.27481L143.14 6.26685L143.304 6.38788L143.467 6.37992L143.631 6.28277L143.793 6.41814L143.957 6.31144L144.12 6.29233L144.283 6.27003L144.447 6.30825L144.61 6.41496L144.774 6.40699L144.938 6.2764L145.1 6.31144L145.264 6.30029L145.428 6.31303L145.592 6.39266L145.756 6.37833L145.92 6.36559L146.084 6.34807L146.248 6.38788L146.412 6.35603L146.576 6.35284L146.74 6.40699L146.904 6.31622L147.068 6.27003L147.232 6.33692L147.394 6.34648L147.558 6.4054L147.722 6.38629L147.886 6.36877L148.048 6.34966L148.212 6.38788L148.376 6.36081L148.54 6.33055L148.703 6.36081L148.867 6.42451L149.031 6.36718L149.195 6.34966L149.359 6.32258L149.521 6.41655L149.685 6.31303L149.849 6.28596L150.013 6.29073L150.177 6.34807L150.341 6.32099L150.506 6.42292L150.67 6.27959L150.834 6.35922L150.998 6.38947L151.162 6.41655L151.326 6.32896L151.49 6.3194L151.654 6.30666L151.817 6.38629L151.981 6.32896L152.145 6.33692L152.309 6.27322L152.473 6.42292L152.636 6.41814L152.8 6.33533L152.964 6.31622L153.128 6.3194L153.292 6.37195L153.456 6.33055L153.622 6.3401L153.786 6.41336L153.95 6.39585L154.114 6.32258L154.278 6.37355L154.442 6.4054L154.606 6.28914L154.77 6.31781L154.934 6.2764L155.098 6.40062L155.262 6.37195L155.426 6.35125L155.59 6.38788L155.755 6.39585L155.919 6.33533L156.083 6.39903L156.247 6.31781L156.411 6.38629L156.575 6.35762L156.739 6.35125L156.903 6.37833L157.068 6.3401L157.232 6.33214L157.396 6.42292L157.559 6.30825L157.723 6.29551L157.887 6.27959H158.051L158.215 6.27799L158.379 6.33373L158.543 6.33692L158.707 6.39266L158.871 6.41018L159.035 6.3401L159.199 6.36718L159.362 6.28596H159.526L159.69 6.41336L159.854 6.27799L160.02 6.36081L160.184 6.28596L160.348 6.27322L160.512 6.33055L160.677 6.35444L160.841 6.30825L161.005 6.41814L161.169 6.42292L161.335 6.32736L161.499 6.41496L161.663 6.35444L161.828 6.34648L161.992 6.27162L162.158 6.26844L162.322 6.32418L162.488 6.33214L162.651 6.41177L162.815 6.27162L162.979 6.40381L163.145 6.35762L163.309 6.34648L163.475 6.31781L163.638 6.39266L163.804 6.41496L163.968 6.38788L164.134 6.39107L164.299 6.40859L164.463 6.37514L164.629 6.37833L164.796 6.29233L164.966 6.34329L164.941 6.52007L164.979 6.69685L164.895 6.85292L164.915 7.02014L164.848 7.17621L164.867 7.34344L164.818 7.5027L164.762 7.66036L164.85 7.83555L164.856 8.00118L164.716 8.1477L164.727 8.31333L164.64 8.46781L164.619 8.62866L164.683 8.80384L164.667 8.96629L164.59 9.12077L164.659 9.29596L164.61 9.45521L164.541 9.6097L164.538 9.77533L164.45 9.92662L164.489 10.0986L164.444 10.2563L164.498 10.4315L164.46 10.5891L164.355 10.7373L164.294 10.8933L164.247 11.051L164.213 11.2103L164.326 11.395L164.224 11.5431L164.161 11.6976L164.162 11.8648L164.17 12.032L164.145 12.1929L164.124 12.3569L164.033 12.505L163.966 12.6595L164.022 12.8363L163.981 12.9955L163.925 13.1516L163.882 13.3093L163.828 13.467L163.893 13.6469L163.731 13.7807L163.815 13.9654L163.721 14.1135L163.713 14.2792L163.669 14.4368L163.629 14.5961L163.602 14.7585L163.497 14.9019L163.519 15.0739L163.457 15.2268L163.4 15.3813L163.446 15.5596L163.393 15.7157L163.384 15.8813L163.328 16.0358L163.263 16.1887L163.291 16.3639L163.269 16.5263L163.204 16.6808L163.096 16.8225L163.182 17.0121L163.062 17.1522L162.975 17.3003L163.064 17.4898L162.893 17.6188L162.858 17.7781L162.932 17.966L162.806 18.1046L162.777 18.2654L162.715 18.4183L162.68 18.5792L162.688 18.7496L162.707 18.9232L162.553 19.0538L162.569 19.2274L162.502 19.3803L162.41 19.5252L162.359 19.6828L162.363 19.8533L162.287 20.003L162.238 20.1606L162.341 20.3581L162.217 20.4951L162.148 20.6464L162.093 20.8024L162.056 20.9633L161.98 21.113L161.996 21.2882L161.981 21.4554L161.854 21.5908L161.894 21.7739L161.814 21.9236L161.72 22.0685L161.784 22.2581L161.631 22.3871L161.652 22.567L161.593 22.7231L161.51 22.8712L161.502 23.0416L161.512 23.2168L161.48 23.3793L161.4 23.529L161.247 23.6548L161.233 23.8236L161.171 23.9781L161.149 24.1437L161.144 24.3141L161.152 24.4893L161.075 24.639L161.01 24.7919L160.889 24.9273L160.915 25.1088L160.848 25.2601L160.751 25.4034L160.797 25.5914L160.711 25.7363L160.625 25.8828L160.66 26.066L160.463 26.1758L160.466 26.351L160.416 26.5071L160.327 26.652L160.364 26.8384L160.221 26.9642L160.219 27.1362L160.128 27.2795L160.053 27.4276L160.114 27.6219L160.041 27.7716L159.921 27.9038L159.866 28.0583L159.845 28.2255L159.813 28.388L159.735 28.5345L159.698 28.6969L159.686 28.8657L159.616 29.0154L159.542 29.1651L159.506 29.3276L159.433 29.4773L159.418 29.6477L159.253 29.7624L159.291 29.9519L159.187 30.0888L159.06 30.2163L159.046 30.3883L159.003 30.5459L158.944 30.7004L158.886 30.8533L158.758 30.9791L158.695 31.1304L158.758 31.3327L158.616 31.4521L158.563 31.6082L158.453 31.7404L158.49 31.9331L158.434 32.0876L158.325 32.2197L158.288 32.3838L158.218 32.5319L158.118 32.6657L158.105 32.8408L157.979 32.9619L157.888 33.0973L157.829 33.29L157.661 33.2167L157.498 33.3425L157.334 33.3107L157.172 33.2183L157.01 33.2485L156.847 33.3441L156.685 33.3266L156.521 33.2963L156.358 33.2884L156.196 33.3537L156.032 33.3266L155.87 33.3489L155.707 33.2581L155.543 33.3441L155.381 33.2852L155.219 33.3138L155.055 33.3393L154.892 33.3266L154.73 33.2199H154.568L154.404 33.2055L154.241 33.274L154.079 33.3266L153.915 33.3361L153.752 33.36L153.588 33.2103L153.426 33.3218L153.264 33.2199L153.1 33.3123L152.937 33.2708L152.775 33.2071L152.611 33.2533L152.449 33.2103L152.285 33.2931L152.124 33.2087L151.961 33.2613L151.799 33.3059L151.637 33.3473L151.474 33.2183L151.31 33.2278L151.148 33.2485L150.984 33.3298L150.822 33.274L150.659 33.247L150.495 33.2629L150.333 33.3345L150.171 33.3537L150.008 33.2884H149.846L149.682 33.2804L149.519 33.231L149.355 33.2278L149.193 33.2517L149.029 33.3059L148.867 33.204L148.703 33.2708L148.54 33.2645L148.376 33.2708L148.214 33.2549L148.05 33.2804L147.886 33.2533L147.724 33.2215L147.56 33.2278L147.396 33.247L147.233 33.3568L147.069 33.2549L146.905 33.3091L146.743 33.2199L146.581 33.3314L146.417 33.2549L146.253 33.2613L146.09 33.3457L145.926 33.2517L145.762 33.3282L145.598 33.2183L145.434 33.3138L145.272 33.2677L145.108 33.3075L144.943 33.3489L144.779 33.2677L144.643 33.2708Z" fill="#573B3A"/>
<path d="M175.469 33.3998L175.459 33.2262L175.598 33.0988L175.626 32.9379L175.596 32.7596L175.671 32.613L175.738 32.4633L175.862 32.3327L175.857 32.1608L175.883 31.9983L176.011 31.8693L175.957 31.683L176.053 31.5428L176.104 31.3883L176.069 31.2084L176.228 31.0889L176.156 30.8962L176.323 30.7784L176.261 30.5889L176.394 30.4599L176.341 30.2735L176.529 30.1605L176.521 29.99L176.618 29.8483L176.573 29.6652L176.635 29.5123L176.706 29.3626L176.626 29.318L176.537 29.3116L176.429 29.2654L176.33 29.4008L176.207 29.5059L176.066 29.5855L175.961 29.7113L175.808 29.7782L175.706 29.9104L175.516 29.9295L175.367 29.9996L175.292 30.1652L175.131 30.221L175.012 30.3309L174.908 30.4599L174.773 30.5506L174.601 30.5905L174.547 30.7832L174.362 30.8086L174.299 30.9886L174.12 31.022L174.036 31.1765L173.853 31.2036L173.77 31.3613L173.646 31.4648L173.544 31.5986L173.35 31.6097L173.253 31.7499L173.071 31.7785L172.953 31.8932L172.837 32.0063L172.75 32.1592L172.592 32.3105L172.501 32.1066L172.426 31.9601L172.266 31.8773L172.161 31.753L172.121 31.5779L172.07 31.4122L171.876 31.3565L171.755 31.2434L171.737 31.0523L171.678 30.8915L171.457 30.8564L171.382 30.7067L171.315 30.5538L171.22 30.4216L171.154 30.2672L171.065 30.1286L170.957 30.0076L170.807 29.9168L170.744 29.7607L170.674 29.6078L170.499 29.5378L170.419 29.3944L170.331 29.2543L170.295 29.0775L170.144 28.9883L170.037 28.8625L169.881 28.7765L169.796 28.6347L169.795 28.4325L169.656 28.3306L169.502 28.2414L169.43 28.0901L169.379 27.9547L169.429 27.7923L169.575 27.7158L169.734 27.6537L169.852 27.5406L169.997 27.461L170.115 27.3479L170.263 27.2747L170.331 27.0963L170.543 27.1043L170.667 26.9976L170.739 26.8256L170.911 26.781L171.037 26.679L171.097 26.4911L171.236 26.4019L171.392 26.3382L171.571 26.3016L171.68 26.1742L171.763 26.0149L171.903 25.9289L172.071 25.878L172.207 25.7872L172.315 25.6598L172.449 25.5658L172.595 25.4894L172.648 25.2887L172.864 25.3015L172.907 25.0896L173.028 24.9782L173.171 24.8953L173.345 24.8539L173.461 24.7345L173.63 24.6867L173.768 24.5975L173.823 24.4L173.971 24.322L174.111 24.236L174.254 24.1548L174.394 24.0656L174.453 23.8745L174.625 23.8315L174.755 23.7312L174.934 23.6945L175.055 23.5815L175.192 23.4923L175.23 23.2757L175.405 23.2311L175.532 23.1276L175.656 23.0193L175.792 22.9269L175.938 22.8473L176.048 22.7215L176.209 22.6593L176.266 22.4635L176.457 22.4412L176.577 22.3249L176.717 22.2278L176.728 22.0844L176.54 22.086L176.378 22.1354L176.214 22.1258L176.051 22.1306H175.889L175.726 22.1322L175.564 22.1115L175.402 22.0812L175.239 22.0701L175.075 22.1195L174.913 22.0765L174.751 22.1433L174.587 22.164L174.424 22.1003L174.26 22.1338L174.098 22.2007L173.936 22.1895L173.773 22.0844L173.609 22.0956L173.445 22.0892L173.283 22.1943L173.12 22.164L172.957 22.0653L172.794 22.0796L172.63 22.0701L172.466 22.2086L172.304 22.207L172.14 22.2102L171.977 22.0637L171.815 22.1433L171.651 22.0956L171.489 22.1147L171.325 22.2039L171.161 22.078L170.997 22.1099L170.834 22.0573L170.67 22.1322L170.506 22.0892L170.342 22.2102L170.179 22.1895L170.015 22.1497L169.886 22.0972L169.871 21.9698L169.771 21.8057L169.924 21.6417L169.841 21.4776L169.79 21.3152L169.903 21.1512L169.878 20.9887L169.774 20.8247L169.812 20.6606L169.857 20.4966L169.852 20.3342L169.822 20.1701L169.886 20.0061L169.847 19.842L169.878 19.678L169.784 19.514L169.902 19.3499L169.787 19.1875L169.902 19.0235L169.879 18.861L169.852 18.6954L169.838 18.5329L169.79 18.3689L169.854 18.2049L169.835 18.0408L169.857 17.8752L169.835 17.7128L169.811 17.5471L169.917 17.3831L169.782 17.2175L169.843 17.0455L170.013 17.0439L170.175 17.0518L170.338 17.106H170.502L170.664 17.0757L170.826 17.0869L170.989 17.0916L171.151 17.0407L171.314 17.0837L171.476 17.0566L171.64 16.9833L171.802 17.0996L171.966 16.9897L172.129 17.0311L172.291 16.9738L172.455 17.0885L172.617 17.0248L172.78 16.9993L172.944 17.1235L173.106 16.9913L173.27 17.0932L173.433 17.0343L173.596 17.0072L173.759 17.0248L173.923 17.0407L174.085 17.0757L174.249 17.0678L174.413 17.055L174.576 16.9833L174.738 17.0566L174.9 17.0693L175.064 17.09L175.228 17.0375L175.391 17.1044L175.555 17.0932L175.719 17.0407L175.883 17.098L176.045 17.1076L176.209 17.0773L176.373 17.0072L176.538 17.0582L176.671 17.02L176.683 16.8894L176.702 16.7253L176.671 16.5629L176.715 16.3989L176.755 16.2348L176.742 16.0708L176.777 15.9083L176.753 15.7443L176.71 15.5803L176.637 15.4178L176.653 15.2538L176.626 15.0898L176.739 14.9273L176.779 14.7633L176.639 14.5992L176.772 14.4352L176.755 14.2712L176.721 14.1071L176.683 13.9431L176.65 13.779L176.718 13.6134L176.755 13.5003L176.866 13.4112L177.029 13.4844L177.193 13.5179L177.355 13.494L177.519 13.4446L177.681 13.4143L177.845 13.408L178.009 13.5035L178.173 13.5067L178.336 13.4844L178.5 13.5051L178.664 13.4669L178.828 13.4685L178.992 13.4223L179.156 13.4048L179.318 13.4319L179.482 13.5083L179.646 13.4048L179.81 13.408L179.974 13.4478L180.138 13.4669L180.302 13.4191L180.466 13.4589L180.628 13.4239L180.792 13.4701L180.956 13.4526L181.12 13.4143L181.284 13.5195L181.448 13.4462L181.612 13.4335L181.776 13.486L181.94 13.4876L182.105 13.3905L182.269 13.3698L182.435 13.5099L182.616 13.4335L182.618 13.6118L182.675 13.7759L182.677 13.9383L182.667 14.1023L182.585 14.2664L182.65 14.4304L182.645 14.5929L182.58 14.7569L182.534 14.9209L182.55 15.0834L182.632 15.2474L182.636 15.4115L182.605 15.5739L182.588 15.7379L182.566 15.902L182.593 16.066L182.558 16.23L182.618 16.3941L182.65 16.5581L182.573 16.7222L182.559 16.8878L182.612 17.0407L182.761 17.0327L182.924 17.004L183.086 17.0932L183.247 16.9802L183.409 17.0598L183.57 17.0853L183.732 17.0964L183.895 17.0056L184.056 17.0439L184.218 16.9929L184.38 17.02L184.541 17.0248L184.702 17.0295L184.864 17.0725L185.027 17.012L185.187 17.0455L185.35 17.0566L185.512 17.0502L185.675 16.9897L185.837 17.0423L185.998 17.1315L186.162 16.9754L186.324 17.0996L186.487 17.0948L186.595 17.1092L186.58 17.2127L186.657 17.3735L186.638 17.536L186.592 17.6968L186.701 17.8577L186.609 18.0185L186.69 18.1794L186.598 18.3418L186.641 18.5027L186.622 18.6635L186.714 18.826L186.665 18.9868L186.663 19.1477L186.651 19.3101L186.635 19.471L186.595 19.6318L186.651 19.7927L186.719 19.9535L186.635 20.1144L186.654 20.2768L186.698 20.4377L186.587 20.6001L186.717 20.7626L186.697 20.9234L186.636 21.0843L186.697 21.2467L186.603 21.4108L186.692 21.613L186.491 21.6273L186.331 21.5796L186.171 21.5859L186.011 21.5796L185.851 21.5222L185.691 21.5541L185.53 21.5859L185.371 21.5334L185.211 21.6465L185.052 21.5636L184.891 21.5684L184.732 21.535L184.571 21.5445L184.411 21.5238L184.25 21.5254L184.091 21.5668L183.93 21.5828L183.769 21.6162L183.608 21.6289L183.447 21.5557L183.285 21.5955L183.124 21.5525L182.97 21.6082L182.831 21.6815L182.717 21.7834L182.677 21.9331L182.634 22.078L182.677 22.2341L182.55 22.3982L182.626 22.5622L182.559 22.7262L182.626 22.8903L182.64 23.0527L182.57 23.2168L182.545 23.3808L182.551 23.5448L182.55 23.7089L182.64 23.8729L182.57 24.0369L182.551 24.201L182.613 24.365L182.581 24.529L182.624 24.6931L182.596 24.8571L182.572 25.0212L182.553 25.1852L182.586 25.3492L182.68 25.5133L182.636 25.6773L182.604 25.8413L182.593 26.0038L182.58 26.1678L182.669 26.3303L182.653 26.4943L182.531 26.6583L182.663 26.8224L182.675 26.9864L182.581 27.1505L182.64 27.3145L182.674 27.4785L182.596 27.6426L182.57 27.805L182.623 27.969L182.664 28.1331L182.556 28.2971L182.632 28.4612L182.658 28.6268L182.661 28.7908L182.679 28.9549L182.607 29.1189L182.621 29.2829L182.543 29.447L182.615 29.611L182.672 29.775L182.588 29.9391L182.527 30.1047L182.659 30.2688L182.615 30.4328L182.659 30.5968L182.567 30.7625L182.612 30.9265L182.623 31.0905L182.644 31.2546L182.658 31.4186L182.609 31.5826L182.567 31.7483L182.523 31.9123L182.637 32.0763L182.596 32.242L182.545 32.4076L182.597 32.5716L182.564 32.7357L182.593 32.9013L182.588 33.0669L182.54 33.2326L182.572 33.3711L182.438 33.4428L182.277 33.3679L182.117 33.4715L181.954 33.3536L181.792 33.3249L181.631 33.4077L181.469 33.3711L181.308 33.3871L181.146 33.4587L180.985 33.3982L180.824 33.352L180.662 33.4539L180.501 33.4651L180.338 33.4014L180.176 33.4269L180.014 33.4141L179.853 33.4253L179.69 33.3871L179.528 33.4316L179.367 33.3663L179.205 33.3504L179.043 33.395L178.88 33.3233L178.719 33.4014L178.557 33.3934L178.395 33.4109L178.232 33.3871L178.07 33.3425L177.907 33.4555L177.745 33.4173L177.584 33.3456L177.422 33.4062L177.261 33.4762L177.097 33.3409L176.936 33.4699L176.774 33.3918L176.61 33.3632L176.448 33.3998L176.285 33.4746L176.123 33.4046L175.961 33.3823L175.798 33.4332L175.634 33.43L175.469 33.3998Z" fill="#573B3A"/>
<path d="M58.7432 33.4699L58.861 33.3345L58.9183 33.145L59.0759 33.0192L59.1539 32.8758L59.1953 32.7102L59.3306 32.6019L59.4245 32.4681L59.485 32.3137L59.5105 32.1385L59.6395 32.027L59.6808 31.8598L59.7891 31.7356L59.8894 31.6066L59.9483 31.4505L60.0709 31.3342L60.1903 31.2164L60.2635 31.0698L60.3765 30.9488L60.4402 30.7959L60.488 30.6335L60.5087 30.4567L60.6058 30.3245L60.6663 30.17L60.8462 30.0872L60.9624 29.9678L60.9258 29.756L61.1232 29.6827L61.19 29.533L61.2442 29.3753L61.2935 29.2145L61.346 29.0568L61.4877 28.9501L61.6182 28.8386L61.6039 28.6411L61.7488 28.536L61.8586 28.4118L61.9191 28.2573L61.9574 28.0917L62.0115 27.934L62.0863 27.7891L62.2502 27.6936L62.333 27.5534L62.3935 27.4005L62.4906 27.2683L62.5384 27.1075L62.618 26.9641L62.6578 26.8001L62.7215 26.6488L62.8234 26.5182L62.9698 26.4131L62.9571 26.2204L63.0383 26.0787L63.1513 25.9544L63.2468 25.8207L63.2834 25.6534L63.3965 25.5292L63.441 25.3684L63.5604 25.2473L63.6225 25.0944L63.6655 24.932L63.8343 24.838L63.8486 24.6597L63.9139 24.5084L64.0364 24.3889L64.1144 24.2456L64.1049 24.0561L64.1622 23.9016L64.3612 23.822L64.3644 23.6388L64.444 23.4955L64.4695 23.3251L64.5411 23.1786L64.6255 23.0368L64.7751 22.9301L64.791 22.7549L64.869 22.6116L65.0027 22.4953L65.119 22.3711L65.1795 22.2182L65.1779 22.0351L65.2495 21.887L65.3514 21.7548L65.4405 21.6162L65.5329 21.4808L65.5822 21.3216L65.6873 21.191L65.7064 21.0174L65.7494 20.8566L65.8927 20.7435L65.977 20.6033L65.9977 20.4297L66.0677 20.2816L66.1251 20.1781L66.0264 20.0364L65.8305 20.0698L65.7143 19.9281L65.5759 19.8357L65.4326 19.7561L65.2463 19.7688L65.1142 19.6653L64.9439 19.643L64.8053 19.549L64.6589 19.4758L64.5124 19.4009L64.3819 19.2942L64.2068 19.2783L64.0715 19.1796L63.9282 19.0983L63.7769 19.0362L63.6018 19.0219L63.4761 18.9056L63.3646 18.7543L63.1481 18.826L63.0526 18.6444L62.9014 18.5791L62.7676 18.4772L62.6148 18.4151H62.4333L62.2916 18.3291L62.1627 18.2176L61.9669 18.2479L61.857 18.0934L61.674 18.0982L61.5641 17.9453L61.3954 17.915L61.2553 17.8274L61.0658 17.8418L60.9369 17.7271L60.7888 17.657L60.644 17.5758L60.5023 17.4914L60.3686 17.3863L60.195 17.3672L60.0167 17.3576L59.9085 17.2207L59.9626 17.0757L59.9929 16.9085L60.1648 16.8098L60.117 16.6059L60.2062 16.4674L60.3304 16.3447L60.3463 16.1711L60.5023 16.0644L60.4768 15.8717L60.5516 15.7252L60.6647 15.5978L60.7284 15.4465L60.8064 15.3016L60.929 15.1774L60.9703 15.0165L61.0117 14.8541L61.1311 14.7298L61.0993 14.5324L61.2442 14.4193L61.311 14.2696L61.4129 14.1358L61.475 13.9845L61.5625 13.8444L61.6326 13.6963L61.666 13.529L61.7217 13.3746L61.7631 13.2121L61.822 13.0576L61.9589 12.943L61.994 12.7773L62.1102 12.6499L62.1579 12.4907L62.2168 12.3362L62.2916 12.1897L62.3346 12.0288L62.4174 11.8855L62.4413 11.7151L62.6276 11.6211L62.6292 11.438L62.7613 11.3169L62.7868 11.1258L62.9618 11.1831L63.0812 11.3185L63.2198 11.4109L63.3726 11.4746L63.5222 11.5463L63.7101 11.5335L63.8311 11.6673L63.9728 11.7549L64.1479 11.7676L64.2848 11.868L64.4519 11.8982L64.5904 11.9954L64.7305 12.0861L64.8722 12.1737L65.0362 12.2136L65.2256 12.1992L65.3562 12.3091L65.4931 12.4078L65.6379 12.4891L65.7828 12.5703L65.9707 12.5591L66.1139 12.6436L66.211 12.8251L66.418 12.7757L66.5724 12.8347L66.6823 12.9891L66.859 13.0067L67.0229 13.0465L67.1407 13.1882L67.2792 13.2806L67.4528 13.3029L67.6199 13.3363L67.7266 13.5051L67.9097 13.5067L67.9479 13.5004L68.0816 13.5466L68.2424 13.5545L68.3634 13.6389L68.4939 13.631L68.6626 13.6994L68.8091 13.5975L68.9317 13.4876L69.1068 13.4765L69.2724 13.408L69.2676 13.1978L69.3854 13.0863L69.4109 12.9175L69.5589 12.8012L69.5828 12.6324L69.6385 12.4763L69.6831 12.3155L69.734 12.1578L69.8439 12.0256L69.9458 11.8887L70.0508 11.7549L70.0078 11.5574L70.1113 11.422L70.2196 11.2898L70.2339 11.1163L70.3278 10.9777L70.3628 10.8137L70.4313 10.664L70.538 10.5302L70.5794 10.3693L70.5634 10.1862L70.694 10.062L70.6606 9.87085L70.8309 9.76255L70.9185 9.62081L70.9025 9.43766L70.9965 9.29911L71.0426 9.14144L71.0347 8.96307L71.1509 8.83248L71.2543 8.69711L71.2177 8.50759L71.2671 8.35152L71.3833 8.22092L71.4199 8.06007L71.49 7.91196L71.5377 7.75429L71.6301 7.61574L71.6476 7.44692L71.7654 7.31633L71.837 7.16822L71.8529 6.9994L71.9755 6.8704L71.9596 6.69044L72.0217 6.54074L72.0615 6.38148L72.1379 6.23655L72.235 6.09322L72.2111 5.86548L72.3942 5.96104L72.5184 6.08685L72.6903 6.09322L72.8686 6.08844L72.9689 6.27477L73.1679 6.21744L73.2905 6.35122L73.4305 6.43881L73.5945 6.46589L73.7744 6.45792L73.8986 6.58374L74.0403 6.66655L74.2106 6.67929L74.3603 6.743L74.4956 6.84492L74.6771 6.83218L74.7758 7.02489L74.9684 6.98507L75.0942 7.10611L75.2613 7.13L75.4126 7.18892L75.5526 7.28129L75.7262 7.28926L75.8392 7.44374L75.9856 7.517L76.1703 7.49789L76.3359 7.52496L76.4648 7.64122L76.624 7.68103L76.7657 7.76703L76.9185 7.82596L77.0984 7.81481L77.2178 7.95496L77.3515 8.06166L77.5442 8.02185L77.6747 8.13333L77.8371 8.16996L77.9899 8.23048L78.1348 8.30851L78.2717 8.40726L78.4675 8.35788L78.6155 8.42955L78.7206 8.60951L78.8719 8.67322L79.0884 8.66048L79.0454 8.85478L78.9976 9.01244L78.926 9.15896L78.7461 9.26407L78.7716 9.4504L78.606 9.56029L78.6745 9.76414L78.5169 9.87563L78.4548 10.0269L78.4977 10.2212L78.3067 10.32L78.3147 10.4983L78.3083 10.6735L78.1619 10.7914L78.1762 10.9729L78.0631 11.1051L78.0122 11.2612L77.9644 11.4204L77.8641 11.5558L77.7686 11.6944L77.818 11.8903L77.6254 11.989L77.6652 12.1817L77.568 12.3203L77.4359 12.4429L77.5044 12.6483L77.4486 12.8028L77.3292 12.9334L77.2337 13.0704L77.1239 13.2026L77.0682 13.3586L77.0284 13.5195L76.9472 13.6644L76.9344 13.8364L76.8787 13.9909L76.8453 14.1549L76.702 14.2744L76.6877 14.4464L76.6065 14.5913L76.6336 14.7808L76.5858 14.9385L76.425 15.0516L76.3693 15.206L76.3231 15.3637L76.2022 15.4911L76.277 15.7013L76.1066 15.808L76.0222 15.9514L75.992 16.1186L75.8917 16.2556L75.9188 16.4451L75.8042 16.5757L75.7803 16.7445L75.7389 16.9069L75.6545 17.0518L75.5176 17.227L75.7325 17.2684L75.9044 17.2844L76.0541 17.3481L76.1783 17.4659L76.2881 17.6108L76.4346 17.6777L76.589 17.7319L76.7816 17.7032L76.9154 17.7988L77.0204 17.9548L77.1955 17.966L77.3292 18.0631L77.455 18.1762L77.6222 18.2049L77.7718 18.2686L77.9215 18.3307L78.0775 18.3801L78.243 18.4135L78.3847 18.4931L78.4882 18.654L78.6777 18.6333L78.8241 18.7066L78.9276 18.8658L79.0963 18.8897L79.2317 18.9837L79.3845 19.0426L79.5357 19.1015L79.7188 19.0983L79.8366 19.2241L79.9528 19.3579L80.1295 19.3691L80.2983 19.3914L80.4367 19.4806L80.5561 19.608L80.7026 19.6812L80.8586 19.7322L81.0337 19.7417L81.1579 19.8612L81.3155 19.9121L81.4349 20.0427L81.6355 20.073L81.5097 20.2243L81.5034 20.4011L81.4524 20.5571L81.3378 20.6814L81.298 20.8422L81.2311 20.9903L81.064 21.0891L81.0067 21.242L80.9271 21.3837L80.9191 21.5605L80.8761 21.7213L80.7742 21.8519L80.7281 22.0096L80.5513 22.1036L80.4877 22.2533L80.4606 22.4221L80.3381 22.5431L80.2712 22.6912L80.2202 22.8473L80.1581 22.9986L80.0292 23.1149L80.0244 23.2948L79.8891 23.4095L79.9019 23.5958L79.8573 23.7551L79.7793 23.8984L79.6567 24.0194L79.5612 24.1532L79.5469 24.3284L79.4673 24.4701L79.3224 24.5816L79.2651 24.7345L79.3033 24.9352L79.16 25.0467L79.0311 25.1661L79.0295 25.3795L78.8862 25.2378L78.7143 25.225L78.6076 25.0737L78.4086 25.1167L78.3195 24.9304L78.1666 24.8747L78.0297 24.7887L77.8673 24.7552H77.689L77.5314 24.7106L77.428 24.553L77.2863 24.4765L77.1159 24.4558L76.9567 24.4176L76.8342 24.2997L76.702 24.201L76.5699 24.1023L76.4234 24.0338L76.2881 23.9462L76.1146 23.9334L75.9602 23.8841L75.8217 23.7997L75.6641 23.7551L75.5288 23.6627L75.3568 23.6484L75.2629 23.47L75.0878 23.4636L74.9413 23.3951L74.8044 23.306L74.6771 23.1977L74.5274 23.1356L74.3348 23.1578L74.1963 23.0718L74.0896 22.9556L73.9527 22.9062L73.7967 23.0559L73.612 22.9588L73.4687 23.0655L73.3366 23.1642L73.2204 23.2757L73.1535 23.427L72.9657 23.5018L72.8973 23.6579L72.8224 23.8044L72.8288 23.9828L72.8049 24.15L72.6855 24.2774L72.5948 24.416L72.5534 24.5753L72.4754 24.7202L72.4643 24.8922L72.391 25.0403L72.3003 25.1788L72.3417 25.3731L72.1459 25.4703L72.149 25.6471L72.1124 25.8095L71.993 25.9369L71.9071 26.0771L71.8864 26.2443L71.8832 26.4179L71.8529 26.5819L71.7479 26.7141L71.6348 26.8447L71.6476 27.0263L71.5616 27.168L71.4979 27.3177L71.4311 27.4674L71.2878 27.5853L71.2798 27.7588L71.205 27.9054L71.1652 28.0646L71.1461 28.2334L71.014 28.3561L70.9694 28.5137L70.9407 28.6794L70.8229 28.8084L70.8595 28.9995L70.7752 29.1428L70.7131 29.2941L70.6399 29.4406L70.5539 29.5824L70.5523 29.7591L70.4424 29.8913L70.3708 30.0394L70.3151 30.1939L70.2737 30.3532L70.1352 30.4742L70.1718 30.6653L70.0349 30.7864L70.0397 30.9663L69.9585 31.1097L69.9282 31.2753L69.847 31.4186L69.8025 31.5779L69.664 31.6989L69.5844 31.8423L69.5764 32.0174L69.5621 32.1879L69.422 32.3089L69.3552 32.4586L69.3536 32.6354L69.2501 32.7707L69.2358 32.9427L69.1148 33.0701L69.0304 33.2151L68.981 33.3727L68.911 33.489L68.7804 33.4587L68.6149 33.5814L68.4509 33.5304L68.2854 33.5511L68.1214 33.5256L67.9558 33.5989L67.7918 33.5814L67.6279 33.583L67.4623 33.5288L67.2983 33.4524L67.1344 33.5193L66.9704 33.4715L66.8048 33.497L66.6393 33.5304L66.4753 33.446L66.3113 33.5463L66.1473 33.4683L65.9834 33.5495L65.8194 33.5925L65.6555 33.567L65.4915 33.5463L65.3259 33.5814L65.1619 33.4587L64.9964 33.575L64.8324 33.5766L64.6685 33.4906L64.5029 33.5431L64.3389 33.583L64.1749 33.5368L64.011 33.5384L63.847 33.5033L63.6814 33.575L63.5159 33.5145L63.3519 33.4954L63.1879 33.4508L63.0224 33.4317L62.8584 33.4301L62.6928 33.4715L62.5288 33.4667L62.3633 33.5033L62.1977 33.5766L62.0322 33.5177L61.8682 33.4237L61.7026 33.5416L61.5386 33.4364L61.3731 33.4317L61.2075 33.4986L61.042 33.5495L60.878 33.5304L60.714 33.5065L60.5485 33.4237L60.3829 33.4778L60.2189 33.4428L60.0534 33.489L59.8878 33.4285L59.7222 33.4173L59.5567 33.4635L59.3911 33.5336L59.2255 33.5224L59.06 33.446L58.8928 33.5193L58.7432 33.4699Z" fill="#573B3A"/>
<path d="M94.4536 19.8213L94.3788 19.8787L94.2514 19.9838L94.054 19.9933L93.9888 20.1812L93.8757 20.3055L93.7054 20.3532L93.5892 20.4743L93.4316 20.538L93.3026 20.6415L93.2135 20.7992L93.075 20.8884L92.903 20.933L92.7916 21.0588L92.6913 21.2005L92.5432 21.2785L92.3777 21.3311L92.2249 21.4044L92.1564 21.5891L92.0084 21.6671L91.8746 21.7643L91.69 21.7929L91.5658 21.9012L91.4464 22.0175L91.3174 22.1226L91.1678 22.1991L91.0659 22.3376L90.8876 22.3758L90.7571 22.4778L90.6743 22.6434L90.5008 22.688L90.3543 22.7692L90.2381 22.8887L90.0805 22.9555L89.9531 23.0607L89.8162 23.153L89.7398 23.325L89.6284 23.4524L89.4453 23.4843L89.353 23.6388L89.1922 23.7025L89.025 23.755L88.9598 23.9445L88.799 24.0067L88.6764 24.1197L88.5459 24.2217L88.4249 24.3395L88.2641 24.4064L88.2243 24.2312L88.0794 24.1357L88.0094 23.9844L87.839 23.9095L87.7244 23.7917L87.6162 23.669L87.527 23.5321L87.4904 23.3553L87.4219 23.204L87.2914 23.0989L87.137 23.0113L87.0765 22.852L86.9634 22.7326L86.9061 22.5717L86.8026 22.4443L86.6833 22.3312L86.6355 22.1624L86.497 22.0637L86.3776 21.949L86.263 21.8312L86.1738 21.6926L86.1675 21.4935L85.9812 21.4298L85.8538 21.3199L85.8459 21.1225L85.744 20.9951L85.6804 20.839L85.5848 20.7068L85.3938 20.6447L85.3078 20.5061L85.198 20.3835L85.0961 20.2561L84.999 20.1239L84.9608 19.9487L84.8939 19.7942L84.7936 19.6652L84.644 19.5713L84.5134 19.4646L84.4704 19.2926L84.3383 19.1859L84.2603 19.0394L84.1139 18.9422L84.0454 18.783L84.211 18.7192L84.3128 18.5584L84.4466 18.4644L84.6312 18.4469L84.792 18.3959L84.8764 18.2208L85.0372 18.1682L85.1964 18.1125L85.3222 18.0042L85.4049 17.829L85.6198 17.8592L85.7201 17.7111L85.8825 17.6618L86.0178 17.5694L86.1372 17.4515L86.2582 17.3353L86.4365 17.3098L86.5368 17.1633L86.688 17.0948L86.8106 16.9817L86.9618 16.9132L87.0812 16.797L87.2214 16.711L87.3917 16.6712L87.4936 16.5294L87.6416 16.4546L87.7658 16.3431L87.9202 16.2794L88.0157 16.1265L88.1542 16.0357L88.3278 16.0007L88.4965 15.9577L88.5952 15.8096L88.6987 15.6694L88.8356 15.5771L89.0123 15.5452L89.1015 15.3828L89.2702 15.3382L89.3959 15.2315L89.5759 15.2044L89.6984 15.0929L89.8337 15.0005L89.9388 14.862L90.0566 14.7441L90.2031 14.6661L90.3495 14.5897L90.4833 14.4941L90.6027 14.3778L90.7427 14.2918L90.9147 14.2536L91.0818 14.2058L91.1471 14.0131L91.2697 13.9001L91.4337 13.8491L91.5419 13.7185L91.6947 13.65L91.8492 13.5847L91.9797 13.486L92.1294 13.4111L92.2806 13.3411L92.4048 13.2328L92.5034 13.091L92.6213 12.9732L92.7709 12.8999L92.8808 12.7725H93.0829L93.1386 12.5687L93.3344 12.5623L93.4156 12.3935L93.6114 12.3855L93.7006 12.2294L93.8757 12.1912L93.9919 12.0718L94.1559 12.0192L94.2434 11.8615L94.3867 11.7803L94.5491 11.7246L94.6669 11.6083L94.78 11.4857L94.9009 11.3742L95.0538 11.3057L95.1907 11.2149L95.3164 11.1082L95.3929 10.9378L95.5409 10.8614L95.7335 10.8455L95.7781 10.6305L95.9978 10.6496L96.1108 10.5285L96.1745 10.3406L96.3751 10.3342L96.4849 10.2068L96.6155 10.1081L96.6983 9.94884L96.8941 9.93132L96.9769 9.77365L97.1392 9.71473L97.257 9.59847L97.4131 9.53317L97.5229 9.40736L97.5929 9.23217L97.7394 9.15413L97.8986 9.09202L97.9925 8.9471L98.1055 8.82606L98.2695 8.77032L98.408 8.68273L98.5608 8.61106L98.7041 8.52825L98.7742 8.35465L98.8649 8.20814L99.0098 8.12691L99.2008 8.10302L99.2629 7.91987L99.4237 7.85776L99.5781 7.78769L99.6402 7.60613L99.8153 7.55995L99.9236 7.43573L100.089 7.37999L100.17 7.22232L100.287 7.10765L100.388 6.97388L100.516 6.87354L100.656 6.78595L100.758 6.65536L100.871 6.53591L100.99 6.42443L101.113 6.31614L101.313 6.29862L101.367 6.11228L101.488 6.00399L101.684 5.9801L101.746 5.80332L101.917 5.75076L102.066 5.67273L102.097 5.46251L102.291 5.43543L102.429 5.34625L102.503 5.18539L102.62 5.07232L102.721 4.94173L102.843 4.83502L103.017 4.78725L103.147 4.6694L103.235 4.54358L103.3 4.6678L103.49 4.72673L103.48 4.93854L103.685 4.98632L103.693 5.18699L103.779 5.32554L103.911 5.43065L103.983 5.58195L104.134 5.67273L104.282 5.7651L104.286 5.96736L104.488 6.01832L104.512 6.20465L104.668 6.29225L104.698 6.4738L104.841 6.56936L104.887 6.74136L104.975 6.88151L105.107 6.98662L105.265 7.07102L105.322 7.23347L105.414 7.36725L105.508 7.50262L105.672 7.58225L105.698 7.77017L105.796 7.90076L105.866 8.05365L106.022 8.13965L106.174 8.23043L106.232 8.39128L106.306 8.54258L106.447 8.63973L106.57 8.75121L106.594 8.93914L106.68 9.07928L106.825 9.17484L106.963 9.27676L107.051 9.41532L107.057 9.61599L107.253 9.67491L107.277 9.86284L107.396 9.9775L107.454 10.1399L107.547 10.2769L107.653 10.4043L107.869 10.4457L107.842 10.6177L107.783 10.7324L107.676 10.8646L107.492 10.8948L107.35 10.9824L107.293 11.1735L107.121 11.2229L107.048 11.3949L106.917 11.4952L106.724 11.5175L106.658 11.6991L106.508 11.774L106.323 11.8058L106.212 11.9316L106.072 12.0208L105.978 12.1657L105.823 12.2358L105.739 12.3967L105.578 12.4556L105.451 12.5607L105.343 12.6897L105.164 12.7295L105.053 12.8553L104.914 12.9445L104.776 13.0369L104.68 13.1818L104.51 13.2344L104.421 13.3872L104.235 13.4175L104.163 13.5959L103.999 13.6548L103.878 13.7711L103.733 13.8555L103.607 13.9638L103.52 14.1135L103.351 14.1804L103.297 14.3555L103.187 14.4782L103.047 14.5817L103.037 14.7712L102.869 14.8652L102.851 15.0404L102.697 15.1582L102.732 15.3461L102.738 15.5181L102.643 15.6631L102.542 15.8159L102.649 15.9943L102.601 16.1552L102.622 16.3192L102.536 16.4832L102.565 16.6473L102.622 16.8113L102.63 16.9754L102.595 17.1394L102.518 17.3018L102.612 17.4675L102.493 17.6299L102.546 17.7939L102.633 17.9596L102.592 18.1236L102.619 18.2877L102.59 18.4517L102.587 18.6173L102.518 18.7814L102.488 18.9454L102.541 19.1094L102.62 19.2751L102.496 19.4391L102.512 19.6031L102.542 19.7672L102.593 19.9312L102.493 20.0952L102.566 20.2593L102.472 20.4233L102.561 20.5889L102.495 20.7514L102.539 20.917L102.592 21.0811L102.544 21.2451L102.48 21.4091L102.539 21.5748L102.468 21.7388L102.447 21.9028L102.522 22.0685L102.547 22.2325L102.512 22.3965L102.485 22.5606L102.56 22.7262L102.496 22.8902L102.463 23.0543L102.536 23.2183L102.487 23.3824L102.553 23.548L102.546 23.712L102.538 23.8777L102.526 24.0417L102.536 24.2057L102.487 24.3714L102.488 24.5354L102.514 24.6994L102.444 24.8635L102.493 25.0291L102.418 25.1931L102.447 25.3572L102.432 25.5228L102.483 25.6868L102.515 25.8509L102.552 26.0149L102.413 26.1774L102.434 26.3414L102.461 26.507L102.44 26.6711L102.523 26.8367L102.485 27.0007L102.399 27.1648L102.479 27.3288L102.542 27.4944L102.504 27.6585L102.538 27.8225L102.49 27.9865L102.461 28.1506L102.468 28.3162L102.515 28.4818L102.396 28.6443L102.472 28.8099L102.528 28.9755L102.49 29.1396L102.41 29.3036L102.456 29.4692L102.405 29.6333L102.423 29.7989L102.463 29.963L102.471 30.1286L102.472 30.2942L102.518 30.4598L102.49 30.6239L102.39 30.7879L102.49 30.9535L102.396 31.1176L102.421 31.2832L102.503 31.4488L102.448 31.6129L102.386 31.7769L102.402 31.9425L102.455 32.1082L102.425 32.2738L102.374 32.4394L102.426 32.6035L102.374 32.7691L102.402 32.9363L102.474 33.1035L102.372 33.2246L102.253 33.3297L102.089 33.3313L101.925 33.2835L101.761 33.3233L101.597 33.3026L101.433 33.3329L101.269 33.2612L101.105 33.2182L100.941 33.2947L100.777 33.2071L100.613 33.2437L100.449 33.2899L100.287 33.2405L100.123 33.2755L99.9602 33.2883L99.7962 33.3233L99.6338 33.3026L99.4698 33.258L99.3059 33.3313L99.1419 33.3568L98.9764 33.2182L98.814 33.3042L98.65 33.2819L98.486 33.2294L98.3221 33.2198L98.1581 33.2676L97.9957 33.2134L97.8317 33.3281L97.6677 33.2134L97.5022 33.2708L97.3382 33.2294L97.1743 33.2214L97.0103 33.3249L96.8463 33.2485L96.6823 33.3377L96.5184 33.2421L96.3544 33.3138L96.1888 33.2325L96.0265 33.3584L95.8609 33.3488L95.6969 33.3281L95.5329 33.3329L95.369 33.3599L95.2034 33.3472L95.0394 33.3361L94.8755 33.2803L94.7115 33.2405L94.5475 33.2628L94.382 33.2294L94.218 33.3599L94.054 33.3568L93.8884 33.3313L93.7245 33.3345L93.5589 33.215L93.395 33.2278L93.2294 33.3568L93.0654 33.3281L92.8982 33.2787L92.763 33.2676L92.7534 33.1322L92.7964 32.973L92.7406 32.7994L92.8282 32.6465L92.7677 32.4729L92.938 32.3295L92.9222 32.1623L92.9046 31.9951L92.8839 31.8263L92.9826 31.6734L92.9763 31.5078L92.938 31.3358L93.0686 31.1877L93.059 31.0204L93.032 30.8516L93.0384 30.686L93.102 30.5283L93.1832 30.3738L93.2055 30.2114L93.1498 30.0378L93.1291 29.8706L93.1641 29.7097L93.1768 29.5457L93.1992 29.3817L93.258 29.224L93.3344 29.0679V28.9023L93.379 28.743L93.2946 28.5662L93.3408 28.4054L93.3122 28.2366L93.4698 28.0917L93.4204 27.9197L93.5223 27.7668L93.4411 27.59L93.4793 27.4291L93.5685 27.2762L93.5971 27.1154L93.5032 26.937L93.6098 26.7857L93.5812 26.6169L93.6544 26.4608L93.6656 26.2968L93.5955 26.1216L93.6306 25.9608L93.7324 25.8079L93.7388 25.6438L93.6735 25.4687L93.8312 25.3237L93.8486 25.1613L93.7547 24.9829L93.7882 24.8221L93.7898 24.6564L93.9044 24.5051L93.8598 24.3331L93.8948 24.1723L93.8694 24.0019L93.9155 23.8426L94.0238 23.6913L94.027 23.5257L94.0062 23.3569L93.9856 23.1881L94.1002 23.0368L94.1607 22.8775L94.0795 22.7007L94.1686 22.5462L94.2212 22.387L94.2514 22.2245L94.1782 22.0494L94.2514 21.8933L94.2021 21.7213L94.1814 21.5525L94.218 21.39L94.2482 21.2276L94.2976 21.0683L94.3214 20.9043L94.3883 20.7466L94.3788 20.5794L94.3963 20.4154L94.5014 20.2609L94.452 20.0873L94.5173 19.9232L94.4536 19.8213Z" fill="#573B3A"/>
<path d="M24.5415 30.522L24.6513 30.393L24.7787 30.2799L24.8265 30.1159L24.9077 29.9725L24.9873 29.8276L25.0541 29.6747L25.1035 29.5123L25.199 29.3753L25.3693 29.2845L25.3661 29.0918L25.4521 28.9501L25.6193 28.8577L25.6575 28.6889L25.7609 28.5583L25.8326 28.4086L25.901 28.2573L25.909 28.0742L26.0427 27.9595L26.1828 27.848L26.2035 27.6712L26.2337 27.5008L26.3293 27.3655L26.4614 27.2476L26.5378 27.1027L26.5935 26.945L26.6079 26.7682L26.7288 26.6456L26.7829 26.4879L26.9135 26.3685L26.9215 26.1901L27.0441 26.0643L27.0488 25.8843L27.0998 25.7267L27.2112 25.5961L27.2462 25.4305L27.3099 25.2792L27.4739 25.1709L27.5248 25.0132L27.598 24.8651L27.5996 24.6867L27.6331 24.5227L27.727 24.3841L27.7636 24.2217L27.934 24.1118L27.9865 23.9573L27.9992 23.7853L28.1122 23.6531L28.1648 23.4971L28.2014 23.3362L28.2476 23.1785L28.3654 23.0448L28.3494 22.8648L28.472 22.7326L28.437 22.5479L28.4593 22.3822L28.5198 22.2293L28.6233 22.0924L28.6981 21.9459L28.687 21.7691L28.7427 21.6162L28.8684 21.4824L28.8987 21.3216L28.827 21.132L28.9464 20.9967L29.0515 20.8518L28.9942 20.6622L29.1136 20.5205L29.0929 20.3421L29.2218 20.2004L29.1391 20.0077L29.303 19.8739L29.3237 19.7051L29.3778 19.5442L29.3731 19.3722L29.3285 19.1923L29.3333 19.0219L29.459 18.8753L29.4941 18.7113L29.467 18.5361L29.4574 18.3657L29.5339 18.208L29.5896 18.0456L29.5609 17.8577L29.5689 17.6682L29.5944 17.5009L29.6389 17.4356L29.5991 17.3242L29.596 17.2175L29.6819 17.1697L29.7615 17.1553L29.6819 17.1697L29.8459 17.1012L30.0114 17.098L30.1754 17.1203L30.341 17.1633L30.5066 17.1538L30.6721 17.0502L30.8377 17.0693L31.0032 17.1362L31.1688 17.1808L31.3344 17.0391L31.4999 17.1729L31.6655 17.1219L31.8311 17.106L31.9966 17.0964L32.1622 17.0502L32.3277 17.1697L32.4933 17.1633L32.6589 17.1776L32.8244 17.1044L32.99 17.063L33.1555 17.1267L33.3211 17.1585L33.4851 17.1362L33.6523 17.1538L33.8178 17.0996L33.9834 17.1123L34.1489 17.1442L34.3145 17.0327L34.4817 17.176L34.6472 17.1076L34.8128 17.0805L34.98 17.1426L35.1471 17.1697L35.2999 17.1219L35.362 17.2573L35.4018 17.4086L35.362 17.5742L35.3111 17.7414L35.3954 17.9039L35.3748 18.0695V18.2351L35.3716 18.3992L35.2856 18.5648L35.3445 18.7304L35.3302 18.8945L35.3525 19.0601L35.397 19.2241L35.3174 19.3882L35.3334 19.5538L35.3652 19.7194L35.2999 19.8819L35.4002 20.0491L35.37 20.2131L35.3604 20.3788L35.3397 20.5428L35.3063 20.7052L35.3604 20.874L35.2968 21.0349L35.276 21.1973L35.2697 21.363L35.2776 21.5286L35.1805 21.6847L35.2713 21.8583L35.1742 22.0143L35.2283 22.1863L35.1901 22.3472L35.2044 22.5144L35.163 22.6753L35.1614 22.8409L35.058 22.9938L35.015 23.153L35.05 23.325L35.0755 23.4955L34.9656 23.6436L34.9338 23.806L34.9704 23.978L34.8972 24.1325L34.9179 24.3045L34.8255 24.4542L34.7698 24.6103L34.7523 24.7743L34.6886 24.9288L34.6361 25.0849L34.722 25.2728L34.6361 25.4209L34.6202 25.5865L34.5581 25.741L34.5915 25.9178L34.5342 26.0739L34.4976 26.2347L34.4021 26.3796L34.2874 26.5182L34.3081 26.6934L34.2174 26.8383L34.1983 27.0039L34.184 27.1712L34.0566 27.3033L34.1059 27.4913L33.9818 27.6235L34.0089 27.805L33.9993 27.9754L33.9245 28.1235L33.8528 28.2732L33.8305 28.4389L33.6618 28.5535L33.7143 28.7478L33.6618 28.9039L33.5233 29.0265L33.5137 29.2001L33.4931 29.3673L33.3896 29.5043L33.3307 29.6572L33.2383 29.7973L33.2415 29.9773L33.1221 30.1047L33.0409 30.248L32.9359 30.3818L32.8531 30.5236L32.7862 30.6733L32.756 30.8405L32.6827 30.987L32.6477 31.1526L32.6429 31.3342L32.5204 31.4568L32.358 31.6002L32.2291 31.6814L32.081 31.554L31.9186 31.5285L31.7467 31.5715L31.5763 31.5986L31.4156 31.5572L31.2564 31.511L31.1051 31.4059L30.9332 31.4377L30.774 31.3788L30.6052 31.4027L30.4508 31.3215L30.2884 31.2864L30.1197 31.3103L29.9462 31.3565L29.7838 31.323L29.6326 31.2243L29.4574 31.2737L29.3014 31.1956L29.1279 31.245L28.9687 31.1925L28.8127 31.1096L28.6488 31.1001L28.4848 31.081L28.3256 31.0173L28.1664 30.9663L27.9897 31.0332L27.8209 31.0443L27.6697 30.9329L27.5009 30.9456L27.3433 30.8739L27.1794 30.8516L27.0138 30.8405L26.8451 30.8532L26.6843 30.8102L26.5171 30.8198L26.3643 30.7195L26.1923 30.7433L26.0188 30.7879L25.8676 30.678L25.6941 30.7242L25.5253 30.7354L25.3741 30.6175L25.2165 30.5522L25.0493 30.5506L24.8869 30.5045L24.7182 30.5013L24.5415 30.522Z" fill="#573B3A"/>
<path d="M42.2696 33.54L42.1056 33.438L41.9417 33.4651L41.7777 33.497L41.6121 33.5607L41.4481 33.5018L41.2858 33.4779L41.117 33.5511L40.9562 33.4747L40.7922 33.4667L40.6251 33.5033L40.4611 33.4779L40.3019 33.4078L40.1443 33.3313L39.9788 33.3425L39.8148 33.3377L39.6444 33.3727L39.4932 33.2629L39.3118 33.3712L39.1541 33.309L38.9918 33.274L38.8389 33.1896L38.6654 33.2278L38.5364 33.1832L38.4059 33.1562L38.4107 32.9937L38.4744 32.8313L38.3645 32.6688L38.476 32.5064L38.3375 32.3439L38.4298 32.1799L38.3438 32.0175L38.39 31.855L38.3661 31.6926L38.3311 31.5301L38.3375 31.3677L38.3677 31.2052L38.3693 31.0428L38.4171 30.8803L38.3661 30.7179L38.3582 30.5555L38.4266 30.393L38.4664 30.2306L38.3422 30.0681L38.3645 29.9041L38.4314 29.7416L38.425 29.5792L38.39 29.4167L38.4378 29.2543L38.4202 29.0919L38.3868 28.9278L38.4744 28.7654L38.3359 28.6029L38.4537 28.4389L38.3566 28.2765L38.3518 28.1124L38.339 27.95L38.3757 27.7859L38.4776 27.6235L38.4584 27.4595L38.3788 27.2954L38.3422 27.133L38.4043 26.9689L38.4441 26.8065L38.3948 26.6425L38.398 26.48L38.39 26.3176L38.4123 26.1535L38.3375 25.9911L38.4425 25.8286L38.398 25.6646L38.4792 25.5022L38.3645 25.3397L38.468 25.1757L38.4457 25.0132L38.3773 24.8508L38.4298 24.6867L38.339 24.5243L38.3932 24.3619L38.4107 24.1978L38.4473 24.0354L38.4425 23.8713L38.4744 23.7089L38.4171 23.5449L38.4123 23.3808L38.3916 23.2184L38.4616 23.0543L38.4489 22.8903L38.355 22.7279L38.4441 22.5638L38.3757 22.4014L38.425 22.2373L38.3247 22.0749L38.4808 21.9109L38.4425 21.7484L38.433 21.5844L38.4441 21.4219L38.347 21.2579L38.355 21.0955L38.3359 20.9314L38.4123 20.769L38.4107 20.6049L38.3263 20.4409L38.3852 20.2785L38.4346 20.1144L38.4378 19.9504L38.3263 19.7879L38.3804 19.6239L38.3916 19.4599L38.3534 19.2974L38.4505 19.1334L38.4808 18.9709L38.3438 18.8069L38.3964 18.6429L38.4266 18.4804L38.4521 18.3164L38.4569 18.1523L38.4139 17.9883L38.4043 17.8259L38.4346 17.6618L38.433 17.4978L38.39 17.3353L38.3868 17.1713L38.3279 17.0073L38.339 16.8448L38.4043 16.6808L38.4632 16.5167L38.4043 16.3543L38.3582 16.1919L38.3247 16.0278L38.4712 15.8654L38.4282 15.7029L38.4346 15.5389L38.4823 15.3749L38.4505 15.2108L38.3327 15.0484L38.3438 14.8843L38.4346 14.7203L38.3422 14.5579L38.4012 14.3938L38.3518 14.2314L38.4091 14.0673L38.3343 13.9049L38.4808 13.7409L38.4569 13.5768L38.4823 13.4128L38.4314 13.2487L38.4839 13.0863L38.4648 12.9223L38.46 12.7582L38.3311 12.5942L38.4282 12.4302L38.4648 12.2661L38.4744 12.1021L38.4457 11.938L38.363 11.774L38.4362 11.61L38.3295 11.4459L38.3422 11.2819L38.3502 11.1179L38.3438 10.9538L38.4616 10.7914L38.3884 10.6273L38.339 10.4633L38.3996 10.2993L38.4823 10.1352L38.3343 9.97119L38.4648 9.80556L38.4202 9.64153L38.4075 9.47749L38.4473 9.31345L38.4648 9.14782L38.3996 8.98219L38.382 8.79586L38.5667 8.78949L38.7291 8.7656L38.8915 8.81019L39.0554 8.84841L39.2178 8.80223L39.3818 8.80382L39.5442 8.84523L39.7066 8.81497L39.8689 8.75604L40.0313 8.8516L40.1953 8.8309L40.3576 8.75127L40.52 8.77834L40.684 8.79904L40.8464 8.88027L41.0104 8.82612L41.1727 8.80223L41.3351 8.88823L41.4991 8.78312L41.6615 8.83249L41.8255 8.83567L41.9878 8.75127L42.1518 8.86753L42.3157 8.7433L42.4781 8.86912L42.6421 8.75445L42.8045 8.84205L42.9685 8.73853L43.1324 8.88505L43.2948 8.82771L43.4588 8.88027L43.6211 8.78312L43.7835 8.79745L43.9475 8.81975L44.1115 8.74171L44.2755 8.74012L44.4394 8.81179L44.6018 8.76401L44.7658 8.75764L44.9298 8.78153L45.0937 8.74808L45.2577 8.7879L45.4232 8.74649L45.5665 8.83886L45.5204 8.9806L45.6048 9.14464L45.5506 9.30867L45.5634 9.47271L45.6032 9.63675L45.5904 9.80079L45.5172 9.96642L45.6366 10.1305L45.5426 10.2945L45.6446 10.4585L45.5634 10.6226L45.6318 10.7882L45.5411 10.9522L45.6143 11.1163L45.6206 11.2803L45.6636 11.4443L45.5538 11.6068L45.6048 11.7708L45.5156 11.9349L45.5331 12.0989L45.5506 12.2629L45.6191 12.4286L45.6636 12.5926L45.5904 12.7566L45.5602 12.9207L45.6382 13.0847L45.6461 13.2503L45.5713 13.4144L45.514 13.5784L45.6334 13.7425L45.662 13.9065L45.5586 14.0705L45.5092 14.2346L45.6636 14.4002L45.6334 14.5642L45.5936 14.7283L45.5904 14.8923L45.549 15.0563L45.5347 15.222L45.549 15.386L45.6127 15.55L45.5697 15.7141L45.5315 15.8781L45.6286 16.0437L45.6048 16.2078L45.5904 16.3718L45.5124 16.5359L45.5793 16.7015L45.5872 16.8655L45.6604 17.0296L45.6414 17.192L45.5204 17.356L45.5681 17.5201L45.6382 17.6841L45.6032 17.8482L45.5522 18.0122L45.6589 18.1778L45.6286 18.3419L45.5808 18.5059L45.5968 18.6699L45.5713 18.834L45.5872 18.998L45.5554 19.162L45.6541 19.3261L45.5172 19.4917L45.5252 19.6557L45.6175 19.8198L45.5458 19.9854L45.549 20.1495L45.6589 20.3135L45.6461 20.4791L45.6 20.6432L45.5188 20.8072L45.5522 20.9728L45.627 21.1369L45.6095 21.3025L45.5458 21.4665L45.5331 21.6322L45.5681 21.7962L45.5602 21.9618L45.5299 22.1259L45.6557 22.2915L45.514 22.4555L45.6541 22.6196L45.6668 22.7852L45.6446 22.9492L45.5713 23.1149L45.5936 23.2789L45.5267 23.4445L45.514 23.6102L45.635 23.7758L45.6063 23.9398L45.5888 24.1055L45.5634 24.2711L45.5474 24.4383L45.6636 24.6039L45.6063 24.7536L45.6509 24.897L45.6573 25.0737L45.7719 25.19L45.8818 25.3095L46.0919 25.2696L46.1954 25.3955L46.3434 25.4273L46.4946 25.4353L46.6459 25.4512L46.7525 25.4767L46.9149 25.4257L47.0868 25.4512L47.2301 25.3063L47.4116 25.37L47.5692 25.3158L47.7332 25.284L47.9035 25.276L48.0611 25.2171L48.2012 25.1152L48.3604 25.0674L48.5117 24.9989L48.6645 24.9336L48.8125 24.8619L48.9701 24.8062L49.1325 24.7568L49.2837 24.6852L49.4031 24.5593L49.5687 24.5116L49.6738 24.3666L49.8011 24.2583L49.9747 24.2217L50.0925 24.0991L50.1896 23.9494L50.3297 23.8634L50.5239 23.849L50.6512 23.7423L50.7865 23.6452L50.8534 23.4605L51.0015 23.3824L51.1925 23.3585L51.3135 23.2439L51.4488 23.1467L51.4918 22.9349L51.6207 22.8314L51.7481 22.7247L51.9694 22.7326L52.049 22.5638L52.2161 22.4906L52.3419 22.3632L52.4231 22.1816L52.6412 22.1673L52.7415 22.0335L52.7542 22.1912L52.8975 22.301L52.9373 22.4667L53.122 22.5559L53.1808 22.7103L53.2222 22.876L53.2398 23.0527L53.3432 23.1849L53.5088 23.2837L53.4515 23.5003L53.6011 23.607L53.7237 23.728L53.7014 23.9271L53.8017 24.0609L53.9704 24.158L54.0134 24.322L54.0516 24.4893L54.1344 24.6326L54.2379 24.7648L54.2586 24.94L54.37 25.0674L54.421 25.2282L54.5802 25.3302L54.5547 25.5308L54.733 25.6216L54.7091 25.8223L54.8062 25.9576L54.9081 26.0914L54.9973 26.2316L55.1183 26.3542L55.139 26.5294L55.2345 26.6663L55.2902 26.824L55.3889 26.961L55.4876 27.0963L55.4637 27.2524L55.4621 27.4658L55.3157 27.5582L55.2154 27.6872L55.1055 27.8082L54.9591 27.899L54.8556 28.0248L54.7712 28.1666L54.655 28.2812L54.542 28.3975L54.4687 28.5536L54.3254 28.6412L54.2315 28.7781L54.1678 28.9437L53.9704 28.9772L53.9291 29.1683L53.7826 29.2511L53.6998 29.404L53.5008 29.4279L53.4228 29.584L53.3146 29.7098L53.1092 29.7193L53.0694 29.9264L52.8768 29.9487L52.786 30.0968L52.673 30.2178L52.5313 30.3022L52.3896 30.385L52.2384 30.4519L52.1095 30.5523L51.9821 30.6558L51.8866 30.8071L51.7099 30.8342L51.565 30.9122L51.417 30.9807L51.3055 31.1113L51.132 31.1368L50.9967 31.2275L50.8805 31.3549L50.7101 31.3836L50.5637 31.4537L50.4331 31.5556L50.3201 31.6926L50.1529 31.7212L50.0288 31.8391L49.8696 31.8853L49.7136 31.9378L49.5783 32.0334L49.4111 32.0589L49.2455 32.0859L49.1007 32.1608L48.9367 32.1895L48.795 32.2707L48.6581 32.3694L48.5307 32.4952L48.3716 32.535L48.2251 32.6147L48.0341 32.5605L47.8685 32.5733L47.7555 32.7564L47.5596 32.6752L47.41 32.7389L47.262 32.8153L47.1155 32.895L46.9658 32.9714L46.7908 32.9443L46.6188 32.9268L46.4867 33.0733L46.31 33.0367L46.1444 33.0383L45.99 33.0956L45.8404 33.1753L45.6843 33.2358L45.5252 33.2708L45.3484 33.2023L45.1876 33.2262L45.03 33.2724L44.8661 33.2756L44.7101 33.3345L44.5477 33.352L44.3917 33.4173L44.2309 33.4524L44.0653 33.4412L43.8965 33.3791L43.7421 33.4954L43.5782 33.5049L43.4126 33.4747L43.2487 33.4635L43.0879 33.5193L42.9239 33.4858L42.7615 33.5256L42.5959 33.4826L42.4336 33.5033L42.2696 33.54Z" fill="#573B3A"/>
<path d="M17.1851 4.7077L17.3411 4.60737L17.4127 4.45289L17.5114 4.31911L17.6021 4.18215L17.7502 4.08978L17.8139 3.92574L17.8935 3.77763L18.0335 3.6773L18.102 3.51963L18.1959 3.38267L18.4061 3.33967L18.414 3.13263L18.5255 3.01L18.6544 2.9017L18.769 2.78067L18.9298 2.69785L18.9776 2.52267L19.0604 2.37615L19.2196 2.29174L19.2769 2.12293L19.4201 2.02896L19.5316 1.90474L19.5825 1.73115L19.7035 1.61807L19.8643 1.53526L19.8818 1.33459L19.9821 1.20081L20.1365 1.11322L20.2607 1.00015L20.3435 0.852037L20.474 0.745333L20.6094 0.641815L20.6746 0.479371L20.7399 0.316926L20.9468 0.270741L21.036 0.127408L21.1012 0L21.2588 0.0477783L21.3337 0.200667L21.383 0.374259L21.5327 0.465037L21.6457 0.586074L21.7635 0.703926L21.8112 0.877519L21.9132 1.0097L21.9912 1.15941L22.1519 1.24222L22.2856 1.34733L22.3971 1.46837L22.4433 1.64515L22.5404 1.78052L22.6773 1.88404L22.7234 2.05922L22.8731 2.15159L23.0307 2.23759L23.0641 2.42393L23.174 2.54974L23.2504 2.70104L23.4271 2.76952L23.5783 2.8603L23.6484 3.01796L23.7598 3.14059L23.7789 3.33808L23.9699 3.397L24.1005 3.5053L24.1578 3.67252L24.2852 3.784L24.3568 3.94007L24.4667 4.0643L24.629 4.14711L24.7245 4.28407L24.7803 4.45448L24.9124 4.56278L25.0779 4.7077L24.9363 4.86696L24.7882 4.95456L24.6577 5.05807L24.6354 5.25237L24.5096 5.36067L24.403 5.4833L24.2311 5.55337L24.1339 5.68556L24.0464 5.8257L23.9461 5.9563L23.8203 6.063L23.7535 6.21907L23.5895 6.29552L23.4876 6.42452L23.4462 6.60289L23.287 6.68411L23.166 6.79559L23.0816 6.93893L22.9431 7.03608L22.8444 7.16826L22.733 7.2877L22.6996 7.47244L22.62 7.62056L22.4512 7.69063L22.3987 7.86104L22.2586 7.95659L22.109 8.04578L22.0898 8.24485L21.9482 8.33881L21.8558 8.47578L21.754 8.60478L21.6648 8.74493L21.5279 8.84367L21.3655 8.9217L21.3034 9.08574L21.1713 9.18926L21.1012 9.39152L20.9468 9.26411L20.8322 9.14785L20.7351 9.01567L20.689 8.84207L20.6109 8.69396L20.474 8.59522L20.3148 8.51559L20.2464 8.35952L20.127 8.24644L20.0601 8.08878L19.9503 7.96774L19.8229 7.86104L19.7672 7.69381L19.6223 7.60304L19.4966 7.49474L19.374 7.38326L19.2785 7.24948L19.2609 7.05041L19.0699 6.99626L18.9378 6.89433L18.9187 6.69685L18.8088 6.57582L18.7372 6.42133L18.6337 6.29552L18.4395 6.24456L18.3456 6.10919L18.2294 5.99293L18.1195 5.8703L18.0145 5.74448L17.9667 5.57089L17.8919 5.41959L17.7836 5.29537L17.6292 5.21096L17.4923 5.11063L17.4397 4.94022L17.3013 4.84148L17.1851 4.7077Z" fill="#573B3A"/>
<path d="M110.365 17.7542L110.418 17.5758L110.553 17.4739L110.642 17.3369L110.79 17.243L110.811 17.0566L110.929 16.9404L111.012 16.7986L111.164 16.7079L111.297 16.6012L111.287 16.3909L111.481 16.3304L111.513 16.1536L111.652 16.0517L111.687 15.8749L111.865 15.8033L111.925 15.6456L112.019 15.5118L112.158 15.4099L112.22 15.2522L112.299 15.1073L112.395 14.9751L112.526 14.8668L112.562 14.6916L112.675 14.5722L112.783 14.448L112.855 14.2967L112.914 14.1374L113.016 14.0084L113.115 13.8778L113.299 13.8093V13.6071L113.503 13.5529L113.519 13.3618L113.646 13.2519L113.716 13.1006L113.823 12.9764L113.925 12.8474L114.068 12.7487L114.078 12.5528L114.188 12.4302L114.383 12.3681L114.407 12.1833L114.531 12.0702L114.613 11.9269L114.657 11.7549L114.772 11.6339L114.904 11.5096L115.058 11.5956L115.138 11.7613L115.311 11.7995L115.389 11.9683L115.531 12.0511L115.7 12.0973L115.797 12.2422L115.943 12.3187L116.099 12.384L116.225 12.4875L116.386 12.5432L116.448 12.7375L116.633 12.7598L116.728 12.9063L116.86 13.0019L117.002 13.0831L117.19 13.1038L117.238 13.3156L117.454 13.2981L117.567 13.4223L117.661 13.5689L117.792 13.6676L117.949 13.7281L118.074 13.838L118.228 13.9033L118.301 14.0817L118.451 14.1533L118.604 14.2234L118.777 14.2632L118.877 14.4018L119 14.5133L119.181 14.5419L119.274 14.6932L119.408 14.7872L119.57 14.8429L119.694 14.9496L119.794 15.0914L119.892 15.2379L120.041 15.3112L120.181 15.3956L120.347 15.4497L120.426 15.6185L120.637 15.609L120.746 15.7364L120.874 15.8415L120.972 15.988L121.156 16.0501L121.036 16.1887L120.936 16.3161L120.836 16.4451L120.689 16.5391L120.683 16.7365L120.495 16.8018L120.511 17.0168L120.34 17.0949L120.313 17.278L120.18 17.3815L120.103 17.528L120.035 17.6809L119.934 17.8099L119.815 17.923L119.718 18.0552L119.583 18.1587L119.529 18.3212L119.438 18.4581L119.287 18.5505L119.158 18.6588L119.162 18.8642L119.048 18.9837L118.898 19.0761L118.806 19.213L118.739 19.3659L118.602 19.471L118.521 19.6128L118.451 19.7656L118.285 19.8469L118.3 20.0603L118.109 20.124L118.091 20.3135L117.999 20.4489L117.913 20.589L117.787 20.6989L117.607 20.7706L117.526 20.9155L117.496 21.0955L117.429 21.2499L117.281 21.3455L117.152 21.4554L117.096 21.6178L116.997 21.7484L116.907 21.8854L116.792 22.0064L116.754 22.1832L116.596 22.2405L116.467 22.188L116.384 22.0255L116.185 22.0223L116.114 21.844L115.969 21.7659L115.797 21.7245L115.695 21.586L115.509 21.5637L115.41 21.4235L115.288 21.3136L115.178 21.1878L115.042 21.0955L114.929 20.9744L114.764 20.9235L114.628 20.8311L114.484 20.753L114.393 20.6002L114.253 20.5142L114.067 20.4919L113.987 20.3246L113.813 20.2832L113.712 20.1479L113.519 20.1319L113.479 19.909L113.323 19.8453L113.185 19.7561L113.059 19.651L112.869 19.6335L112.742 19.5299L112.599 19.4487L112.511 19.2911L112.377 19.1955L112.194 19.1668L112.097 19.0235L111.995 18.8865L111.865 18.7878L111.666 18.783L111.566 18.6413L111.44 18.5362L111.284 18.4709L111.207 18.2957L111.093 18.1746L110.879 18.189L110.778 18.0488L110.661 17.9278L110.542 17.8083L110.365 17.7542Z" fill="#573B3A"/>
<path d="M29.2568 10.6639L29.2997 10.4871L29.3953 10.3534L29.4844 10.2403L29.4032 10.1113L29.2583 10.0141L29.2281 9.82302L29.1246 9.69243L28.94 9.62872L28.9113 9.43602L28.8158 9.30065L28.6773 9.19872L28.5531 9.08406L28.4417 8.96302L28.3303 8.8372L28.1886 8.74006L28.1217 8.5808L28.0389 8.43428L27.8829 8.34669L27.8511 8.15876L27.7683 8.01383L27.5773 7.95491L27.4579 7.83865L27.3512 7.71124L27.3098 7.53128L27.2461 7.36883L27.1347 7.24461L26.9834 7.15543L26.8195 7.0742L26.7765 6.89583L26.689 6.75409L26.5664 6.63943L26.4294 6.5375L26.3674 6.37346L26.1875 6.30657L26.1142 6.15209L25.9821 6.04857L25.8962 5.90524L25.8818 5.70298L25.6621 5.66954L25.6128 5.50391L25.5252 5.64087L25.4234 5.77465L25.2355 5.83517L25.14 5.97372L25.1097 6.16324L24.9888 6.2795L24.9235 6.44035L24.7484 6.51202L24.6672 6.66172L24.5669 6.79391L24.5032 6.95635L24.3806 7.07102L24.2946 7.21435L24.1944 7.34654L24.0479 7.44209L23.9142 7.54561L23.7629 7.6348L23.6626 7.76698L23.6658 7.98517L23.5019 8.0648L23.3665 8.16832L23.3458 8.3658L23.1309 8.40561L23.1182 8.60946L22.9845 8.71298L22.8475 8.81491L22.7552 8.95346L22.6581 9.08883L22.5101 9.1812L22.4687 9.36117L22.292 9.43124L22.2347 9.59846L22.1869 9.77365L21.9736 9.81187L21.9561 10.0109L21.851 10.1384L21.6504 10.2403L21.816 10.3709L21.9385 10.4824L22.093 10.5684L22.1821 10.7085L22.2904 10.8327L22.3716 10.9776L22.4511 11.1242L22.5164 11.285L22.6485 11.3885L22.7966 11.4777L22.8969 11.6083L22.9271 11.7978L23.0529 11.9045L23.2185 11.9794L23.3538 12.0797L23.4461 12.2151L23.5623 12.3298L23.5687 12.54L23.7693 12.5846L23.8059 12.7677L23.9587 12.8521L24.0049 13.0289L24.1896 13.0878L24.2469 13.2535L24.2915 13.4286L24.4905 13.4764L24.6067 13.5911L24.6496 13.7679L24.75 13.8985L24.9028 13.9829L24.9888 14.1262L25.0508 14.2871L25.1495 14.4176L25.2785 14.5212L25.4552 14.5865L25.5045 14.7569L25.6128 14.8078L25.7147 14.7473L25.8118 14.6151L25.9009 14.4734L26.0028 14.3444L26.1509 14.2552L26.2193 14.0975L26.318 13.9654L26.5138 13.916L26.5966 13.7711L26.7287 13.6675L26.8099 13.521L26.8609 13.3506L26.9739 13.2328L27.0646 13.0958L27.2525 13.0385L27.3544 12.9111L27.4308 12.7629L27.5725 12.6674L27.6616 12.5288L27.7126 12.3568L27.8606 12.2676L27.9116 12.0972L28.0676 12.0144L28.1567 11.8743L28.3016 11.7835L28.3557 11.6147L28.4449 11.4761L28.5515 11.3519L28.7044 11.2675L28.8269 11.156L28.8922 10.9968L28.9463 10.8295L29.1039 10.7499L29.2568 10.6639Z" fill="#573B3A"/>
<path d="M22.7427 13.6485L22.8302 13.4988L22.9241 13.3745L22.636 13.3092L22.6201 12.7566L22.5389 12.72L22.437 12.634L22.3113 12.5273L22.0406 12.2995L22.0088 12.1005L21.9308 12.0399L21.7286 11.8823L21.6315 11.645L21.5869 11.5351L21.5439 11.4555L21.5408 11.4571L21.3768 11.4443L21.2128 11.4332L21.0489 11.4013L20.8849 11.3567L20.7209 11.4507L20.5569 11.4841L20.393 11.465L20.229 11.4411L20.065 11.4125L19.901 11.4555L19.7371 11.422L19.5731 11.4857L19.4091 11.465L19.2452 11.3965L19.0812 11.4857H18.9172L18.7532 11.4921L18.5893 11.4666L18.4253 11.3965L18.2613 11.4109L18.0974 11.4762L17.935 11.4093L17.771 11.4873L17.607 11.3599L17.4447 11.4125L17.2807 11.3997L17.1183 11.4284L16.9543 11.4252L16.7904 11.4379L16.6264 11.465L16.4624 11.4141L16.3 11.4539L16.1361 11.3806L15.9737 11.3934L15.8097 11.4268L15.6473 11.4427L15.4849 11.4841L15.321 11.4857L15.157 11.465L14.9931 11.4746L14.8307 11.4411L14.6667 11.4459L14.5027 11.3631L14.3387 11.4762L14.1764 11.4236L14.0124 11.4555L13.8484 11.4873L13.6845 11.43L13.5205 11.4236L13.3565 11.43L13.1941 11.3822L13.0302 11.3774L12.8662 11.4841L12.7038 11.3902L12.5398 11.4507L12.3774 11.3902L12.2135 11.3695L12.0495 11.5001L11.8856 11.3886L11.7264 11.4268L11.5672 11.4188L11.4589 11.2851L11.3077 11.2389L11.1851 11.1131L11.1899 10.9427L11.1978 10.7818L11.2504 10.562L11.2647 10.5158L11.3698 10.3773L11.3443 10.1894L11.4207 10.0412L11.4398 9.87083L11.5863 9.7498L11.5704 9.56506L11.7168 9.44561L11.6738 9.25132L11.7773 9.11435L11.8537 8.96624L11.8426 8.78469L11.8935 8.62702L11.9858 8.48687L12.0416 8.3308L12.2167 8.2225L12.1307 8.01069L12.274 7.88965L12.3822 7.75428L12.3854 7.57909L12.438 7.42143L12.508 7.26695L12.36 7.17617H12.1848L12.0448 7.08061L11.8919 7.02009L11.7407 6.95957L11.5958 6.87995L11.4239 6.87198L11.2838 6.78121L11.0991 6.80987L10.9495 6.74298L10.803 6.66335L10.6773 6.53435L10.4862 6.58532L10.3636 6.44517L10.1997 6.4165L10.0453 6.36395H9.87171L9.72208 6.29546L9.59471 6.16646L9.43074 6.14258H9.25724L9.11394 6.05498L8.9516 6.02472L8.80511 5.94828L8.65866 5.87661L8.51536 5.7938L8.36095 5.73965L8.17948 5.76354L8.02029 5.72213L7.88336 5.62339L7.75126 5.50554L7.59999 5.44661L7.4249 5.45298L7.30072 5.3192L7.15109 5.2555L6.99667 5.20295L6.82473 5.20135L6.6735 5.14083L6.492 5.16313L6.38535 4.9768L6.17839 4.94495L6.19591 5.17109L6.14655 5.33354L6.05102 5.47528L6.0176 5.63454L6.0415 5.81132L5.89501 5.93872L5.8839 6.10595L5.85521 6.2668L5.76291 6.41013L5.74857 6.57576L5.66259 6.72069L5.65941 6.89109L5.59096 7.0408L5.5034 7.18413L5.45085 7.33861L5.49862 7.52495L5.37444 7.65713L5.29803 7.80365L5.26461 7.9645L5.25504 8.13491L5.20254 8.28939L5.18501 8.45661L5.11338 8.60472L5.08155 8.76717L5.02422 8.92006L4.87936 9.04269L4.83 9.19876L4.80614 9.3628L4.79658 9.53321L4.76316 9.69565L4.67559 9.83898L4.54982 9.96798L4.59918 10.1591L4.48775 10.2929L4.36517 10.4219L4.33967 10.5875L4.3174 10.7547L4.29035 10.9204L4.24736 11.0796L4.06427 11.1831L4.13593 11.387L4.03881 11.5255L3.87483 11.6354L3.83981 11.7979L3.7634 11.9444L3.77137 12.1228L3.75065 12.2916L3.71086 12.4524L3.61536 12.591L3.566 12.7471L3.46569 12.884L3.36223 13.0178L3.3288 13.1818L3.24761 13.3252L3.15845 13.4653L3.14252 13.6373L3.03109 13.7679V13.9463L2.99288 14.1087L2.92125 14.2552L2.80186 14.3826L2.78433 14.5546L2.72863 14.7091L2.60127 14.8318L2.58218 15.0038L2.49621 15.1455L2.41662 15.2888L2.28128 15.4083L2.27969 15.5882L2.2224 15.7427L2.16189 15.8956L2.06161 16.0294L1.97723 16.1711L1.89286 16.3129L1.84668 16.4737L1.83075 16.6473L1.6684 16.7508L1.71773 16.9563L1.53626 17.0518L1.4869 17.2095L1.47415 17.3863L1.29906 17.4834L1.27834 17.6554L1.1717 17.786L1.19715 17.9803L1.02047 18.0775L1.01409 18.2558L0.964734 18.4151L0.853305 18.5425L0.826254 18.7129L0.74825 18.8578L0.663872 18.9996L0.616105 19.1588L0.542881 19.3054L0.420298 19.428L0.337513 19.5697L0.262696 19.7162L0.135332 19.8341L0.176724 20.0523L0 20.1861L0.183098 20.2514L0.343887 20.2928L0.485554 20.3772L0.644749 20.4218L0.77052 20.5412L0.94087 20.5587L1.09688 20.6081L1.25767 20.6447L1.41686 20.6877L1.52351 20.8549L1.71773 20.8119L1.82441 20.9808L2.00907 20.9569L2.14755 21.0477L2.31312 21.0731L2.44048 21.1942L2.60286 21.2292L2.75409 21.2865L2.88783 21.3901L3.02471 21.4872L3.21419 21.4538L3.37498 21.492L3.48162 21.6576L3.65197 21.6735L3.83344 21.6576L3.92579 21.8615L4.11363 21.8312L4.27601 21.8662L4.40018 21.9905L4.53548 22.0892L4.67878 22.1704L4.87458 22.1211L5.00832 22.2214L5.1866 22.2134L5.31715 22.3249L5.47794 22.3568L5.5814 22.5351L5.75175 22.5144L5.79952 22.3695L5.92051 22.2485L5.92529 22.0685L6.13062 21.9937L6.20388 21.8503L6.28029 21.7086L6.23412 21.5015L6.3185 21.363L6.38057 21.2133L6.54454 21.1177L6.648 20.9887L6.62892 20.7976L6.71011 20.6591L6.77696 20.5109L6.94413 20.4186L7.0301 20.2816L7.04599 20.108L7.09217 19.9488L7.2259 19.8373L7.2816 19.6844L7.29753 19.5108L7.41215 19.3898L7.44398 19.2241L7.52836 19.0872L7.63186 18.9598L7.72576 18.826L7.79899 18.6842L7.87543 18.5409L8.04415 18.5361L8.20972 18.5457L8.37688 18.4963L8.54245 18.4868L8.70802 18.5266L8.87355 18.5361L9.03912 18.5186L9.20469 18.6174L9.37026 18.4979L9.53424 18.5473L9.69981 18.5154L9.86538 18.5441L10.0293 18.5536L10.1949 18.5457L10.3605 18.5409L10.526 18.6142L10.69 18.4661L10.8556 18.4804L11.0211 18.4645L11.1867 18.5457L11.3522 18.5473L11.5162 18.6189L11.6818 18.5043L11.8474 18.5202L12.0113 18.5441L12.1769 18.5616L12.3408 18.5919L12.5064 18.4692L12.672 18.482L12.836 18.5489L13.0126 18.5393L13.1575 18.6524L13.2594 18.7464L13.2865 18.7941L13.3756 18.9884L13.1941 19.1079L13.2706 19.3022L13.1973 19.4519L13.1448 19.6079L13.1336 19.7752L13.0763 19.9296L12.9697 20.0698L12.9076 20.2227L12.933 20.4011L12.9187 20.5683L12.7946 20.7021L12.7054 20.8454L12.6449 20.9983L12.7038 21.1878L12.6592 21.3455L12.5446 21.4824L12.5844 21.6656L12.543 21.8248L12.3631 21.9395L12.4077 22.1258L12.3281 22.2724L12.2931 22.4332L12.2183 22.5813L12.1816 22.7406L12.0846 22.8807L12.0034 23.0256L12.0527 23.2168L11.9508 23.3537L11.8633 23.4971L11.8744 23.6754L11.8633 23.8458L11.6929 23.9589L11.6197 24.1054L11.6292 24.2838L11.5799 24.4415L11.5831 24.6182L11.451 24.7425L11.3761 24.8906L11.2934 25.0339L11.322 25.2234L11.2249 25.3604L11.1198 25.4958L11.1166 25.6725L11.0625 25.8286L10.9845 25.9751L10.881 26.1089L10.8094 26.2586L10.7059 26.3908L10.6088 26.5278L10.6804 26.7412L10.5642 26.8702L10.4003 26.9737L10.3541 27.1329L10.3907 27.3336L10.265 27.4562L10.1233 27.5693L10.0564 27.7206L10.05 27.9022L9.94812 28.0344L9.80646 28.1458L9.76825 28.3115L9.74913 28.4898L9.68547 28.6427L9.6218 28.7972L9.46261 28.8975L9.42759 29.0664L9.24927 29.1555L9.20469 29.3196L9.12669 29.4661L9.10761 29.6461L8.94522 29.7416L8.91973 29.9184L8.76372 30.0187L8.76691 30.213L8.59974 30.3054L8.61408 30.5092L8.46445 30.6096L8.36732 30.7434L8.31163 30.9026L8.23522 31.0491L8.09989 31.159L8.08076 31.3438L7.96137 31.4616L7.78628 31.5444L7.72895 31.7037L7.60477 31.8199L7.54111 31.976L7.42968 32.0986L7.34371 32.2404L7.28957 32.4028L7.13834 32.4984L7.0444 32.6354L7.01576 32.8153L6.9107 32.9268L6.81357 33.0431L6.80561 33.2214L6.67828 33.3042L6.8327 33.3249L6.99667 33.3791L7.16065 33.3138L7.32459 33.2931L7.48697 33.2963L7.65094 33.36L7.81333 33.3823L7.9773 33.3313L8.13969 33.266L8.30207 33.3361L8.46445 33.3998L8.62843 33.3186L8.79081 33.3074L8.95315 33.2963L9.11553 33.3234L9.27951 33.2724L9.4403 33.3727L9.60428 33.3759L9.76666 33.2756L9.92904 33.3759L10.0914 33.3886L10.2538 33.3488L10.4178 33.3249L10.5802 33.317L10.7425 33.3122L10.9049 33.266L11.0673 33.3154L11.2297 33.3457L11.392 33.2819L11.5544 33.3775L11.7168 33.4078L11.8808 33.2979L12.0432 33.2804L12.204 33.2788L12.3663 33.3632L12.5271 33.4173L12.6895 33.4109L12.8519 33.352L13.0158 33.2772L13.1766 33.3584L13.339 33.3823L13.5014 33.3616L13.6638 33.3218L13.8261 33.3775L13.9885 33.2819L14.1493 33.3249L14.3101 33.2899L14.4725 33.3154L14.6333 33.4348L14.7973 33.2867L14.958 33.352L15.1204 33.3361L15.2828 33.3313L15.4451 33.4396L15.6075 33.4253L15.7699 33.3297L15.9323 33.3504L16.0947 33.2995L16.2571 33.3886L16.4194 33.3584L16.5818 33.3536L16.7442 33.3011L16.8747 33.3329L16.9209 33.1466L16.975 32.9953L17.0849 32.8647L17.1788 32.7277L17.295 32.6003L17.3492 32.4474L17.2775 32.2436L17.408 32.1209L17.502 31.9824L17.459 31.7929L17.6484 31.6909L17.5959 31.4966L17.6882 31.3581L17.7854 31.2211L17.8267 31.0635L17.8745 30.9074L17.9828 30.7736L17.9636 30.5937L18.1053 30.4726V30.3006L18.0926 30.1222L18.2804 30.0171L18.2295 29.826L18.2868 29.6731L18.4396 29.5553L18.3648 29.3546L18.524 29.2399L18.4906 29.0536L18.6657 28.9437L18.7326 28.794L18.7724 28.6348L18.8074 28.4739L18.7628 28.286L18.8201 28.1315L18.9936 28.02L19.0589 27.8687L18.9984 27.6744L19.0892 27.5343L19.1592 27.3846L19.2117 27.2301L19.2388 27.0661L19.3423 26.9291L19.2929 26.7396L19.3916 26.5994L19.5238 26.4704L19.5014 26.2905L19.5508 26.1344L19.6272 25.9879L19.6559 25.8238L19.7657 25.6885L19.7816 25.5212L19.7482 25.3381L19.8119 25.1852L19.9584 25.061L19.9536 24.8874L20.0348 24.7409L20.0809 24.5832L20.0937 24.416L20.2051 24.279L20.1494 24.0895L20.3325 23.9748L20.307 23.7949L20.3961 23.6515L20.4471 23.4955L20.4455 23.3235L20.5155 23.1738L20.6302 23.0368L20.6063 22.8584L20.619 22.6912L20.6923 22.5415L20.8148 22.4061L20.7384 22.2134L20.9135 22.094L20.8928 21.9172L20.8817 21.742L20.9947 21.6051L21.0775 21.4585L21.0138 21.269L21.1014 21.1241L21.1699 20.9728L21.1969 20.8104L21.2494 20.6543L21.2176 20.4759L21.329 20.3374L21.3306 20.1669L21.3879 20.0125L21.4946 19.8723V19.7019L21.5742 19.5538L21.606 19.3929L21.6586 19.2369L21.6777 19.0728L21.7795 18.9295L21.8098 18.7687L21.7509 18.5839L21.8353 18.4374L21.9356 18.2925L21.9053 18.1173L21.9308 17.9548L22.004 17.8035L21.9626 17.6252L22.0295 17.4739L22.1823 17.3417L22.1202 17.1585L22.2317 17.0168L22.1855 16.8384L22.203 16.6744L22.2858 16.5247L22.3272 16.367L22.3351 16.2014L22.4036 16.0485L22.3877 15.8797L22.4641 15.7284L22.5325 15.5755L22.445 15.3971L22.5166 15.2442L22.5835 15.0929L22.6583 14.9417L22.6726 14.7792L22.6774 14.6168L22.6933 14.4559L22.6758 14.2903L22.7936 14.1454L22.7761 13.9797L22.8461 13.8284L22.7427 13.6485Z" fill="#573B3A"/>
</svg>
