<svg width="217" height="28" viewBox="0 0 217 28" fill="none" xmlns="http://www.w3.org/2000/svg">
<path d="M174.062 6.78403V10.5513C174.062 10.5513 182.447 10.5426 182.496 10.5426C184.199 10.5426 185.581 11.9193 185.581 13.6158C185.581 15.3122 184.199 16.6889 182.496 16.6889L174.062 16.6975L167.205 26.9336V4.05941C167.205 2.17291 168.74 0.643555 170.634 0.643555H183.641C185.347 0.643555 186.723 2.01451 186.723 3.71092C186.723 5.40733 185.347 6.78403 183.641 6.78403H174.062Z" fill="#573B3A"/>
<path d="M133.141 3.97563V26.9016H126.286V3.97563C126.286 3.03958 126.673 2.19282 127.295 1.57934C127.919 0.965872 128.775 0.585693 129.715 0.585693C131.591 0.585693 133.141 2.10353 133.141 3.97563Z" fill="#573B3A"/>
<path d="M16.2504 26.916L8.68125 17.9472L0.880859 26.9045V3.97563C0.880859 3.03958 1.26828 2.19282 1.88988 1.57934C2.42186 1.05804 3.12152 0.703778 3.89925 0.611614C4.03224 0.594333 4.17102 0.585693 4.3098 0.585693C4.44857 0.585693 4.58735 0.594333 4.72034 0.611614C6.40879 0.813224 7.73584 2.24178 7.73584 3.97563V8.58964L13.5645 1.91632L13.8015 1.64271C13.8015 1.64271 13.8218 1.62255 13.8333 1.61103C14.4549 0.994674 15.3107 0.611614 16.259 0.611614H22.423C22.9521 0.611614 23.2383 1.23372 22.8914 1.63119L13.2233 12.7342C16.8199 17.4634 20.4137 22.1897 24.0103 26.9189C22.1137 26.9189 19.182 26.9189 16.2504 26.916Z" fill="#573B3A"/>
<path d="M51.2655 26.9162H43.7484L40.2645 18.4256L37.8099 12.4377L35.3438 18.4256L34.3868 20.7527H39.6603C38.9519 22.8034 38.2494 24.8656 37.541 26.9162H31.8483H24.3284L24.684 26.0666L25.4877 24.1571L27.8961 18.4284L34.1786 3.47469C34.4272 2.88714 34.7568 2.33127 35.1934 1.8618C35.8757 1.13601 36.7228 0.626221 37.8099 0.626221C38.79 0.626221 39.5938 1.064 40.2327 1.68035C40.7474 2.17574 41.129 2.78921 41.4065 3.44589L47.7006 18.4284L50.1061 24.1599L51.2655 26.9162Z" fill="#573B3A"/>
<path d="M103.018 26.9162H95.5006L92.0167 18.4256L89.5621 12.4377L87.096 18.4256L86.139 20.7527H91.4125C90.7041 22.8034 90.0016 24.8656 89.2932 26.9162H83.6005H76.0806L76.4362 26.0666L77.2399 24.1571L79.6483 18.4284L85.9308 3.47469C86.1794 2.88714 86.509 2.33127 86.9456 1.8618C87.6279 1.13601 88.475 0.626221 89.5621 0.626221C90.5422 0.626221 91.346 1.064 91.9849 1.68035C92.4996 2.17574 92.8812 2.78921 93.1588 3.44589L99.4528 18.4284L101.858 24.1599L103.018 26.9162Z" fill="#573B3A"/>
<path d="M202.662 0.672241C195.391 0.672241 189.498 6.54487 189.498 13.7856C189.498 21.0263 195.391 26.8989 202.662 26.8989C209.933 26.8989 215.825 21.0291 215.825 13.7856C215.825 6.54199 209.933 0.672241 202.662 0.672241ZM202.662 20.3581C199.019 20.3581 196.064 17.4146 196.064 13.7856C196.064 10.1566 199.019 7.21307 202.662 7.21307C206.305 7.21307 209.259 10.1566 209.259 13.7856C209.259 17.4146 206.305 20.3581 202.662 20.3581Z" fill="#573B3A"/>
<path d="M75.6294 7.42613C73.3801 3.35648 69.0347 0.59729 64.0445 0.59729H57.1143C57.0652 0.59729 57.016 0.597291 56.9669 0.603052C56.2528 0.631853 55.5965 0.885305 55.0616 1.29429C54.9864 1.35477 54.9084 1.41525 54.839 1.47862C54.7927 1.51894 54.7522 1.55926 54.7089 1.60246C54.6655 1.64567 54.6221 1.69175 54.5817 1.73783C54.44 1.89624 54.3128 2.06617 54.2029 2.24762C54.1711 2.29946 54.1393 2.35418 54.1104 2.4089C54.0728 2.48379 54.0352 2.55867 54.0005 2.63355C53.934 2.7862 53.8791 2.94173 53.8329 3.10302C53.8126 3.18366 53.7924 3.26719 53.775 3.35072C53.7664 3.39968 53.7577 3.44864 53.749 3.4976C53.7403 3.55232 53.7346 3.60705 53.7288 3.66465C53.723 3.72226 53.7201 3.77986 53.7172 3.83746C53.7143 3.89507 53.7114 3.95555 53.7114 4.01315V26.942H60.5664L64.0445 26.9305C69.0376 26.9305 73.383 24.1713 75.6294 20.1017C76.6703 18.2209 77.2601 16.0608 77.2601 13.7653C77.2601 11.4699 76.6674 9.30687 75.6294 7.42613ZM64.0445 20.1017H60.5664V7.42613H64.0445C67.5573 7.42613 70.4051 10.2631 70.4051 13.7625C70.4051 17.2618 67.5573 20.1017 64.0445 20.1017Z" fill="#573B3A"/>
<path d="M112.353 3.97563V26.916H105.498V3.97563C105.498 3.03958 105.885 2.19282 106.507 1.57934C107.132 0.965872 107.987 0.585693 108.927 0.585693C110.803 0.585693 112.353 2.10353 112.353 3.97563Z" fill="#573B3A"/>
<path d="M160.43 3.97563V26.9275L159.338 26.0145L153.575 21.2018L146.611 15.3839V26.8987H139.756V1.99985C139.756 1.47854 140.371 1.1934 140.77 1.53326L140.794 1.55342L146.611 6.49864L153.575 12.4173V3.97563C153.575 3.03958 153.963 2.19282 154.584 1.57934C155.209 0.965872 156.065 0.585693 157.004 0.585693C158.881 0.585693 160.43 2.10353 160.43 3.97563Z" fill="#573B3A"/>
</svg>
